<svg data-bbox="7.556 20.992 184.886 158.016" viewBox="7.6 21 184.9 158" xmlns="http://www.w3.org/2000/svg" data-type="color" aria-hidden="true" aria-labelledby="svgcid-jjpe1d-qtr1pa" width="300%"><defs><style>#prefix__comp-kyjx1reo svg [data-color="1"]{fill:#0acb8b}#prefix__comp-kyjx1reo svg [data-color="2"]{fill:#000}#prefix__comp-kyjx1reo svg [data-color="3"]{fill:#ffbf23}#prefix__comp-kyjx1reo svg [data-color="4"]{fill:#07875d}#prefix__comp-kyjx1reo svg [data-color="5"]{fill:#ffd7ef}#prefix__comp-kyjx1reo svg [data-color="6"]{fill:#fe393c}#prefix__comp-kyjx1reo svg [data-color="8"]{fill:#fff}</style></defs><path d="M75.8 89.7c.2 2.1.3 4.3.6 6.4.7 7.6.3 15.1-.7 22.6-.2 1.3-.1 2.4.1 3.7l1.6 9.7 1.2 7.9.4 1.4.7-1.7c3.5-11.3 6.8-22.7 8.6-34.4 1.3-8.8 1.6-17.6.2-26.4l-.4-2.1-3.5 5a39.3 39.3 0 0 1-4 4l-4.8 3.9zm8.2 11.5.4-.4.6.2c0 .2-.2.5-.3.5l-.7-.3zM63.8 55.3l1 .9 2.6 4.4a64.8 64.8 0 0 1 6.5 19c0 .2 0 .3.2.5.4-.2.7-.3 1-.6 3.6-2.6 6.7-5.6 9-9.4 1-1.5 1.2-2.8.3-4.4a28.8 28.8 0 0 0-12-12.3A15.4 15.4 0 0 0 61 51.8c-3 .8-5.4 2.5-7.1 5.2-1.3 2-2.4 4.2-3 6.5a50.1 50.1 0 0 0 19.8 8.2c-.6-3-1.9-5.7-3.2-8.3l-4.1-7.8.3-.3zm11.3 6c0-.7.4-1 1.1-1 .8 0 1.6.6 1.5 1.3 0 .7-.5 1-1.2 1-.8 0-1.4-.5-1.4-1.3z" fill="#0ACB8B" data-color="1"></path><path d="M75.8 107c0-7.6-.4-14.7-1.8-21.9A47.3 47.3 0 0 1 51.2 77l1.1 3.8c.6 1.8 1.6 3.3 3.1 4.7a57.2 57.2 0 0 1 13.9 18.3 3.5 3.5 0 0 0 2.4 2.1l4 1.1z" fill="#0ACB8B" data-color="1"></path><path d="M50.8 64.5c-.9 3.5-1 6.8-.1 10 .2.9 1 1.7 1.9 2.2a61.8 61.8 0 0 0 6 3.4 42.5 42.5 0 0 0 14.4 4h.7c-.5-4-1.5-7.6-2.5-11.5-7.3-1.3-14-3.9-20.4-8.1zm1 5c.6-.4 1-.7 1.3-.6.2 0 .6.5.5.7 0 .3-.4.7-.7.7-.3 0-.6-.4-1-.9zM85.9 69c-4.7 6.7-4.7 6.7-11.6 12.4l1.3 7c.3-.1.6-.1.8-.3 4.3-3.2 8.2-6.8 10.7-11.6.5-.9.7-1.6.3-2.6l-1.5-4.8zM75.7 107.9l-4.9-1.1 3.7 10h.3l1-9z" fill="#0ACB8B" data-color="1"></path><path d="m15.6 165.4-1.2-.2c-4.2-1-8 4-6.5 7.8 1 2.3 2.1 4.1 4.1 5.3.9.5 2 .7 3 .7l10-.1 18.7-.6 14.4.3 19.3-.1 1.2-.2c1-.1 1.5-.7 1.3-1.7l-.8-3.6-.2-1.3.6-4.2c.4-7.9.6-15.8-.3-23.6 0-.7 0-1.3.4-1.9.4-.4.7-1 .9-1.6l3.2-11a457.2 457.2 0 0 0 3.1-12 108 108 0 0 0 3.5-29.5 56.9 56.9 0 0 0-4.4-21.1A29.3 29.3 0 0 0 74 53.2a18.9 18.9 0 0 0-8.3-2.8c-5.4-.5-9.7 1.5-12.6 6.1-4.4 6.9-5 14.2-2.6 22l1.3 3.8-1.5-1a31.8 31.8 0 0 0-12-5.5c-7.9-1.5-14.3 1-19.3 7a19.6 19.6 0 0 0-4.2 9.3c-.8 4.2.4 8.2 2.4 12 2.2 4.4 5.2 8.3 8.6 12 4.6 4.7 9.8 8.9 15 13l5 3.8-1.7.1-3.5.5a9.6 9.6 0 0 0-7.1 12.6c.6 2 1.7 3.8 2.6 5.7.4 1 .8 1.8 1 2.8.2.3 0 .6-.1 1.2l-2-.8c-.8-.3-1.7-.8-2.6-1-1.6-.2-2.8.7-3 2.4l.2 3v2c-1.3.3-2-.2-2.6-1-.6-.7-1-1.5-1.5-2.3-1-1.2-1.7-2.6-2.8-3.6a6.2 6.2 0 0 0-7.8-1c-2 1.2-3.1 3.5-2.5 5.9l1.4 3.2 1.8 2.8zm2.7 2.3.3-.5-1.2-1.3c-1.6-1.8-3-3.8-3.8-6-1-2.8.2-5.2 2.9-6.1a5 5 0 0 1 5.6 1.4c1 1 1.8 2.3 2.6 3.5.7 1 1.3 2 2.1 2.8.8.9 1.9 1.4 3 .8 1-.6 1-1.7.8-2.7l-.2-1v-2c0-1.3.7-1.8 2-1.6.6 0 1.1.3 1.6.5l1.2.6c.8.4 1.6.7 2.4 0 .8-.6.6-1.5.3-2.3-.3-1-.8-1.8-1.2-2.7-.8-1.8-1.8-3.6-2.4-5.4-1.5-5 1-9.6 6-11.1 1.4-.4 2.9-.6 4.3-.7 1.6-.1 3 .4 4.1 1.4l2.6 2.1c6.4 5.3 12.3 11.1 17.3 17.8 3.4 4.5 6.1 9.4 7.6 15a5 5 0 0 0 1.2 2c1.4 1.4 1.5 3 1.5 5-1 .2-2 .4-3 .4l-12 .1c-9.9 0-19.7-.8-29.6-.1-6.2.4-12.5.2-18.7.4-2.1.1-3.8-.6-5-2.2-.7-1-1.2-2.1-1.7-3.2-1-2.2 0-3.8 1.5-5.3 1.4-1.5 3-1.5 4.8-1l2 1 1.1.4zM64 125.6l-.6.5-1.2.5c-6 2-12 2.7-18.4 1.6-2.3-.4-4.5-1.1-6.2-2.9l-1.5-1.2c-5-4-9.7-8.3-13.6-13.4l-2-2.9c10 2.2 19.6 1.4 29.1-1.6 5.5 6 10.2 12.4 14.4 19.4zm11.8-36 4.8-3.8c1.4-1.3 2.8-2.6 4-4l3.5-5 .4 2.1a83.5 83.5 0 0 1-.2 26.4c-1.8 11.7-5.1 23-8.6 34.4l-.7 1.7c-.2-.7-.4-1-.4-1.5l-1.2-7.8-1.6-9.7c-.2-1.3-.3-2.5-.1-3.7 1-7.5 1.4-15 .7-22.6-.3-2.1-.4-4.3-.6-6.4zm-12-34.3-.3.3 4.1 7.8c1.3 2.6 2.6 5.3 3.2 8.3a50.1 50.1 0 0 1-19.7-8.2c.5-2.3 1.6-4.4 2.9-6.5 1.7-2.7 4-4.4 7.1-5.2 4-1 7.8-.2 11.3 1.6 5.3 2.8 9.1 7 12 12.3 1 1.6.7 3-.2 4.4a35.2 35.2 0 0 1-9 9.4l-1 .6-.3-.4a10.6 10.6 0 0 1-.2-1 64.9 64.9 0 0 0-6.3-18c-.8-1.6-1.8-3-2.7-4.5-.2-.4-.6-.6-.9-1zm.8 71.1 3 5.8c2.9 5.5 4.8 11.3 6.9 17 1.8 5 3.1 10 3.8 15.3a15 15 0 0 1-.3 6.4c-.6-.6-1-1.1-1.2-1.8a52.2 52.2 0 0 0-10.2-18 165.2 165.2 0 0 0-5.8-6.2c-5.1-5.3-10.9-10-16.8-14.5l-1.3-1.2c7.5 1 14.7.3 21.9-2.8zM47 103.3l-2 .5c-4.9 1-9.8 1.3-14.8 1.3-3.6 0-7.2-.2-10.7-1-.7-.2-1.5-.3-1.9-1.2-2-4.7-3-9.4-.8-14.2a33.8 33.8 0 0 1 3-5.3c1.5-2.1 1.6-2 3.8-.6 6 4.2 11.6 8.9 16.9 13.9l6.5 6.6zm11.5 12.4a41.6 41.6 0 0 0 7-16.7c.5.5.8 1.1 1.1 1.7 5.1 9 8.1 18.7 9.6 28.8.5 3.2.5 6.4 1.1 9.4 1 4.6 1.3 9.1 1.5 13.7v7.6c-4.3-16-10-31.2-20.3-44.5zM40.3 77.2l4.7 2c4.3 2.2 8 5.2 11.5 8.4 2.2 2 3 4.2 2.7 7v1a56 56 0 0 1-3.3 12l-1.2 2.6-17-17.9c1.8-4.5 3.1-9.4 2.6-15.1zM75.8 107l-4.1-1c-1.2-.4-1.9-1-2.4-2.2a57.2 57.2 0 0 0-13.9-18.3 10.2 10.2 0 0 1-3-4.7L51.1 77A47.3 47.3 0 0 0 74 85c1.3 7.2 1.8 14.3 1.7 21.9zm-25-42.5c6.3 4.2 13.1 6.8 20.4 8.1 1 3.9 2 7.6 2.5 11.4l-.7.2-1.3-.2c-4.6-.6-9-1.8-13-3.8a61.8 61.8 0 0 1-6.1-3.5c-.8-.5-1.7-1.3-1.9-2.2-.8-3.2-.8-6.5.1-10zM39.7 77.2c.6 5.2-.8 10-2.6 15a69626.4 69626.4 0 0 0-10.6-8.7l-.4-5.2c4.2-2.2 8.7-2.5 13.6-1.1zM85.9 69l1.5 4.8c.4 1 .1 1.7-.3 2.6a34.9 34.9 0 0 1-10.7 11.6c-.2.2-.5.2-.8.3l-1.3-7c7-5.7 7-5.7 11.6-12.3zM55 111c3-6.2 4.8-12.6 5-19.8 1.1 1.5 2 2.8 3 3.8 1.4 1.4 1.5 3 1.2 5-.8 5-2.8 9.4-5.3 13.7l-1 1.1-3-3.8zm-6-5.5-2.2.6c-2.5.5-5 1.1-7.6 1.5-6.2 1-12.3.7-18.4-.7-1.3-.3-1.4-.5-1.8-2.1 9.5 1.7 19 1.2 28.4-1l1.6 1.7zm26.6 2.3-.9 8.9h-.3l-3.7-10 5 1zM22.2 80.7 25 79c.6 1.3.6 2.5.5 3.9l-3.3-2.2z" data-color="2"></path><path d="m18.3 167.7-1.1-.4-2-1c-1.8-.5-3.4-.5-4.8 1-1.5 1.5-2.5 3.1-1.5 5.3.5 1.1 1 2.3 1.7 3.2a5.7 5.7 0 0 0 5 2.2c6.2-.2 12.5 0 18.7-.4 9.9-.7 19.7.1 29.6.1h12c1 0 2-.3 3-.4 0-2-.1-3.7-1.5-5.1a5 5 0 0 1-1.2-2 45.6 45.6 0 0 0-7.6-15c-5-6.7-11-12.5-17.3-17.8l-2.6-2a5.6 5.6 0 0 0-4-1.5c-1.5 0-3 .3-4.4.7a8.6 8.6 0 0 0-6 11c.6 2 1.6 3.7 2.4 5.5l1.2 2.7c.3.8.5 1.7-.3 2.4-.8.6-1.6.3-2.4 0l-1.2-.7-1.5-.5c-1.4-.2-2 .3-2.1 1.7v1.8l.2 1.1c.1 1 .2 2.1-.8 2.7-1.1.6-2.2 0-3-.8-.8-.8-1.4-1.8-2-2.8-1-1.2-1.7-2.5-2.7-3.5a5 5 0 0 0-5.6-1.4c-2.7 1-4 3.3-3 6 1 2.3 2.3 4.3 4 6.1l1.1 1.3-.3.5zm39.3-12.8c.7-.4 1-.7 1.3-.7.6 0 1 .4 1 1-.1.3-.7.7-1 .7-.4-.1-.7-.5-1.3-1zm-35.4 20c-.4-.3-.7-.5-.7-.7 0-.3.4-.8.5-.7.4 0 .6.4.9.6l-.7.8zm33-23.5-.4-.7.3-.3c.2 0 .4.2.5.4l-.4.6z" fill="#FFBF23" data-color="3"></path><path d="M64 125.6c-4.2-7-9-13.4-14.4-19.4-9.5 3-19 3.8-29.1 1.6l2 2.9c4 5 8.7 9.4 13.6 13.4l1.5 1.2c1.7 1.8 4 2.5 6.2 2.9a36.2 36.2 0 0 0 19.6-2.1l.6-.5z" fill="#0E8F6B" data-color="4"></path><path d="M64.6 126.4c-7.2 3-14.4 3.9-22 2.8l1.4 1.2a154.8 154.8 0 0 1 22.6 20.8c4.6 5.3 8 11.3 10.2 18 .2.6.6 1.1 1.2 1.7.6-2.2.6-4.3.3-6.4-.7-5.3-2-10.3-3.8-15.3-2-5.7-4-11.5-6.8-17l-3.1-5.8zM47 103.3l-6.5-6.6c-5.3-5-10.9-9.7-16.9-13.9-2.2-1.5-2.3-1.5-3.8.6a33.9 33.9 0 0 0-3 5.3c-2.2 4.8-1.3 9.5.8 14.2.4.9 1.2 1 2 1.2a77.7 77.7 0 0 0 25.5-.3l2-.5zm-20-8.8-.5.3a1.1 1.1 0 0 1-.3-.5l.3-.3c.2 0 .3.3.5.5z" fill="#0E8F6B" data-color="4"></path><path d="M58.5 115.7c10.3 13.3 16 28.5 20.3 44.5v-7.6c-.2-4.6-.6-9.1-1.5-13.7-.6-3-.6-6.2-1-9.4A82.7 82.7 0 0 0 65.4 99c-1.1 6-3.4 11.5-7 16.7zm3.3 1.8.9-1c.5 0 1.4.8 1.2 1.3 0 .4-.6.9-.7.8-.5-.2-.9-.7-1.4-1zM40.3 77.2c.5 5.7-.8 10.6-2.6 15.1l17 17.9 1.2-2.5A56 56 0 0 0 59 95.5v-.9c.3-2.8-.4-5-2.6-7A55.7 55.7 0 0 0 45 79.2l-4.7-2z" fill="#0E8F6B" data-color="4"></path><path d="M39.7 77.2c-5-1.4-9.4-1.1-13.6 1.1l.4 5.2 10.6 8.6c1.8-4.9 3.2-9.7 2.6-15zM55 111l3 4 1-1.2c2.5-4.3 4.5-8.8 5.3-13.7.3-2 .2-3.6-1.2-5-1-1-1.9-2.3-3-3.8-.2 7.2-2 13.6-5 19.8zM49 105.6l-1.5-1.6c-9.4 2.1-18.9 2.6-28.4.9.4 1.6.5 1.8 1.8 2 6.1 1.5 12.2 1.7 18.4.8l7.6-1.5 2.2-.6zM22.2 80.7l3.3 2.2c.1-1.4.1-2.6-.5-4l-2.8 1.8z" fill="#0E8F6B" data-color="4"></path><path d="m57.6 155 1.3.9c.3 0 .9-.4 1-.6 0-.7-.4-1.1-1-1.1-.3 0-.6.3-1.3.7zM22.2 175l.7-.9c-.3-.2-.5-.5-.9-.6 0 0-.5.4-.5.7 0 .2.3.4.7.7zM55.2 151.4l.4-.6c0-.2-.3-.3-.5-.4l-.3.3.4.7zM84 101.2c.3.2.5.4.7.3l.3-.5-.6-.2-.4.4zM75 61.3c0 .8.7 1.4 1.5 1.4.7 0 1.2-.4 1.2-1.1 0-.7-.7-1.3-1.5-1.3-.7 0-1.1.3-1.1 1zM27 94.5l-.5-.5s-.4.2-.3.3c0 .2.2.4.3.5l.5-.3zM61.8 117.5c.5.4.9.9 1.4 1 0 .2.7-.3.7-.7.2-.5-.7-1.4-1.2-1.2-.3 0-.5.5-.9.9zM51.8 69.4c.5.5.8.9 1 .9.4 0 .7-.4.8-.7.1-.2-.3-.7-.5-.7-.3 0-.7.2-1.3.5z" data-color="2"></path><path d="M49.5 70.8s22 32 40.8 17.1c0 0-.6 26.6-10.7 54.1 0 0-.3 28-1.4 29.6 0 0-7-22.4-40.2-45.4a55.4 55.4 0 0 1-22.8-28.8s34 29.2 53 5.4c0 0-6.9-13.3-16-19.8 0 0-3-9.4-2.7-12.2z" opacity=".3" data-color="2"></path><path d="M59.8 144.4s-11.4 10.5-25.5 1.3l3.6 9.1s3.3 4.5 1 5c-2.4.4-6.3.2-8.7-2 0 0 3 8.3-.3 8.3s-14-2.4-17-8.2c0 0 0 5.3 8.1 12.1 8 6.9-7.5 6.8-13 1.7 0 0-1.8 7.7 13.5 6.7s55.5.7 57.4-1.1a58 58 0 0 0-19-32.9z" opacity=".3" data-color="2"></path><path d="m140.8 167 .4-.5c1.4-2.2 2.7-4.4 3.6-6.8a27.3 27.3 0 0 0 2.1-11.1c0-1.2-.3-2.3-.9-3.3-.4-1-1.2-1.5-2.2-1.5a2 2 0 0 0-1.7.7 7.2 7.2 0 0 0-1.4 2.1l-1.3 3.4-.3.7-.4-2c-.3-1-.5-2.1-.9-3.1a4.9 4.9 0 0 0-2.5-2.9 4.2 4.2 0 0 0-3.8 0c-.6.3-1 .8-1.3 1.3-.7 1-1.1 2.1-1.5 3.3a24 24 0 0 0-.7 6.3c0 2.8.1 5.6.4 8.3l.3 5.4a13.5 13.5 0 0 1-.5 4.2 11 11 0 0 1-1.9 3.7l-.5.9c-.3.6-.2 1 .5 1.2l1.2.2 2.8-.1h2.9l6.2.1a34.6 34.6 0 0 0 8.8-1.3c1.3-.3 2.4-1 3.3-2 .6-.8.7-1.6.2-2.5l-.7-1 1-1.3c.5-.7.5-1.4.2-2.1-.4-1-1-1.5-2-2a6.3 6.3 0 0 0-2.7-.4c-1.9 0-3.7.5-5.3 1.5l-1.3.7zm-11.6 8.7.2.2.5-.4 1.7-1.7a30.9 30.9 0 0 0 7.7-22.2l2-4.8c.3-.7.7-1.3 1.2-1.8.3-.5.8-.6 1.3-.6.8 0 1.4.4 1.7 1.1.5 1 .8 2 .8 3a22.8 22.8 0 0 1-.8 7.4 39.9 39.9 0 0 1-14 20.2c-.6.4-1.2.6-1.8.6H127c-.3 0-.5 0-.8-.3l.5-.6a12 12 0 0 0 2.5-7c.1-2 0-4.1-.2-6.1l-.6-8.4c0-1.9 0-3.7.4-5.5.3-1.5.7-2.9 1.5-4.1.6-.9 1.3-1.5 2.3-1.6 1-.2 2 0 2.8.5a4.7 4.7 0 0 1 1.7 2.1 23.8 23.8 0 0 1 1.2 10.2 31.7 31.7 0 0 1-8.5 19l-.7.8zm2.4.9.4-.4 1.3-1a59.4 59.4 0 0 1 6.7-3.6 17 17 0 0 1 5.5-1.3c1.5-.1 3 0 4.4.6.8.3 1.3 1 1.5 1.8.1.5 0 1-.4 1.4-.3.4-.8.8-1.3 1-.6.3-1.3.6-1.9.7-1.5.4-3 .7-4.6.8l-5.2.3-6.1-.2-.3-.1zm5-4.2v-.2l3-3.4.5-.5 2.6-1.6c1.7-.8 3.6-1.3 5.5-1.2 1 .1 2 .4 2.8 1.1 1 .9 1.2 2.2 0 3.2l-.1.2c-.3.3-.6.3-1 .2-1.8-.6-3.6-.8-5.5-.5-2.3.3-4.5 1.2-6.6 2.2l-1.1.5z" data-color="2"></path><path d="m129.2 175.7.7-.8a31.7 31.7 0 0 0 8.3-25c-.2-1.4-.5-2.8-1-4.2a4.7 4.7 0 0 0-1.7-2c-.9-.7-1.8-.8-2.8-.6-1 .1-1.7.7-2.3 1.6-.8 1.2-1.2 2.6-1.5 4-.4 1.9-.5 3.7-.4 5.6 0 2.8.3 5.6.6 8.4.2 2 .3 4 .2 6-.1 2.7-.9 5-2.5 7.1l-.5.6c.3.3.5.3.8.3h2.6c.6 0 1.2-.2 1.7-.6a39.9 39.9 0 0 0 14.1-20.2c.7-2.4 1-4.8.8-7.3a7.6 7.6 0 0 0-.8-3c-.3-.8-.9-1.2-1.7-1.2-.5 0-1 .1-1.3.6-.5.5-1 1.1-1.2 1.8l-2 4.8-.1 1a30.9 30.9 0 0 1-7.6 21.3l-1.7 1.6-.5.4a7.2 7.2 0 0 1-.2-.2zm7-16c0-.2 0-.4.2-.6l.3-.2.2.3a2.2 2.2 0 0 1-.1.7c0 .2-.3.2-.4.2l-.2-.4zm9-7.4c-.4-.3-.5-.5-.4-.7l.2-.2c.1 0 .3 0 .3.2.2.2 0 .4 0 .7zm-9.3.7.3-.2c.1 0 .3.2.3.4a.6.6 0 0 1-.3.3c-.1 0-.3-.2-.3-.5zm9-3.7c-.3-.2-.4-.4-.3-.6h.3c.2.2.2.4 0 .6zm-9 1.4.2-.1.1.1-.2.2-.2-.2zm1.4 5.2.1.3-.1.2-.2-.2s0-.2.2-.3z" fill="#FFD7EF" data-color="5"></path><path d="M131.6 176.6h.3c2 .2 4 .3 6.1.3l5.2-.3c1.6 0 3-.4 4.6-.8.6-.1 1.3-.4 1.9-.7.5-.2 1-.6 1.3-1 .4-.4.5-1 .4-1.4-.2-.9-.7-1.5-1.5-1.8-1.5-.5-3-.7-4.4-.6-2 0-3.8.6-5.5 1.3l-3.8 1.7c-1 .6-2 1.2-3 2l-1.2 1-.4.3zm10.4-5 .3.2c0 .2-.2.4-.3.3l-.3-.2.3-.4zm7.3.8-.3-.4.3-.2c.1 0 .3 0 .3.2l-.3.4zm-3.8-1c0-.2-.2-.2-.2-.3l.2-.2.2.2-.2.2zm-5.5 2 .3-.3.2.3h-.5z" fill="#FFBF23" data-color="3"></path><path d="m136.7 172.4 1.1-.5c2.1-1 4.3-1.9 6.6-2.2 1.9-.3 3.7-.1 5.5.5.4.1.7.1 1-.2l.1-.2c1.2-1 1-2.3 0-3.2-.8-.7-1.8-1-2.8-1-2-.2-3.8.3-5.5 1.1l-2.6 1.6a2.6 2.6 0 0 0-.6.5l-2.8 3.4-.1.2zm12.7-5-.4-.1-.2-.4.2-.2c.3-.1.6 0 .8.2a.2.2 0 0 1-.1.4h-.3zm-5.3.1-.5.3c-.1 0-.3 0-.3-.2v-.3c.3-.1.5-.2.8.2zm1.8-1.1.3-.2h.2c0 .2-.1.3-.2.3l-.3-.1zm1.2 1.4-.2-.3.1-.2.2.2-.1.3z" fill="#FFBF23" data-color="3"></path><path d="M136.2 159.7c0 .1 0 .3.2.4.1 0 .3 0 .4-.2l.1-.7-.2-.3c-.1 0-.3 0-.3.2l-.2.6zM145.2 152.3c.2-.3.3-.5.1-.7a.4.4 0 0 0-.3-.2l-.2.2c-.1.2 0 .4.4.7zM136 153c0 .3 0 .6.2.5a.6.6 0 0 0 .3-.3c0-.2-.2-.5-.3-.4l-.3.2zM144.8 149.3c.3-.2.3-.4 0-.6h-.2c-.1.2 0 .4.2.6zM135.8 150.7l.2.2.2-.2v-.1h-.4zM137.3 156l-.2.2.2.2.1-.2-.1-.3zM142 171.5l-.3.4.3.2c.1 0 .3-.1.3-.3l-.3-.3zM149.3 172.4l.3-.4c0-.2-.2-.3-.3-.2l-.3.2.3.4zM145.5 171.3l.2-.2-.2-.2-.2.2.2.2zM140 173.3l.3.2.2-.1-.2-.3-.3.2zM149.4 167.3h.3a.2.2 0 0 0 .1-.4.8.8 0 0 0-.8-.2l-.2.2.2.4h.4zM144 167.5c-.2-.4-.4-.3-.6-.2l-.1.3.3.2.5-.3zM146 166.4l.2.1.2-.2-.2-.1c-.1 0-.2 0-.3.2zM147 167.8l.2-.3-.2-.2-.1.2c0 .1 0 .2.2.3zM163.5 167.5l-.2-.8c-.6-1.4-.7-2.8-.7-4.3 0-1.6.5-3 1.4-4.2 1-1.2 2.3-1.5 3.7-1.3.9.1 1.4.8 1.9 1.4l.5.9.4-1a8 8 0 0 1 2.1-3c.4-.3.9-.7 1.4-.8 1.6-.7 3.4.5 3.5 2.2v1.4l-.4 1.3.5-.1c1-.3 2-.3 3-.1 2.1.3 3.1 2.5 2.4 4.3l-.3 1h.6c1 0 2-.2 3-.1 2.5.1 4.3 1.5 5.6 3.5 1 1.4.5 3.9-.6 5a9.1 9.1 0 0 1-4.7 2.5c-1.6.3-3.2.4-4.8.4h-7.2c-2.9 0-5.7 0-8.5-.5-1.2-.2-2.4-.7-3.5-1.2a7.1 7.1 0 0 1-2.2-2c-.4-.4-.6-.9-.7-1.4v-.7c-.4-1.9.9-3.1 2.7-2.8l1.1.4zm2.6 4-.1.1c-.6-.4-.9-1-1.1-1.5-.4-1-1.2-1.4-2-1.9a3 3 0 0 0-1-.3c-.7-.2-1.2.1-1.5.8-.4.7-.3 1.5 0 2.2.7 1.1 1.7 2 2.8 2.5a11.4 11.4 0 0 0 4.5 1.2l7.7.3 7.3-.1a21.5 21.5 0 0 0 4-.4c1.5-.3 2.9-1 4-2.1 1-1.1 1.3-3 .5-4.1-1.2-1.9-3-3-5.3-3.1a22.4 22.4 0 0 0-3.1.1c-.6 0-1.2.3-1.7.5l-1.1.4-.7-.1c.6-.5 1-.8 1.5-1 .5-.3 1-.8 1.3-1.3.8-1.3.2-3.2-1.1-3.6a6.2 6.2 0 0 0-2-.3c-1.1 0-2.1.5-2.8 1.5-.3.3-.5.7-1 .8 0-.2-.2-.4-.1-.5l.6-1a6 6 0 0 0 1-4 1.7 1.7 0 0 0-2.3-1.5c-.4.1-.8.4-1.2.7-1 .8-1.7 1.9-2 3-.6 1.5-1 3-1.2 4.4l-.1 1-.5.3c0-.3-.1-.6 0-.8 0-.7 0-1.5.2-2.2.2-1.4-.2-2.6-1.3-3.5a2 2 0 0 0-1-.4c-1.2-.1-2.3.2-3 1.2a6.3 6.3 0 0 0-1.2 3.8c0 1.3.2 2.7.7 4l1.8 3.8.5 1z" data-color="2"></path><path d="m166.1 171.5-.5-1.1-1.8-3.9c-.5-1.2-.7-2.6-.7-4 0-1.3.4-2.5 1.2-3.7.7-1 1.8-1.3 3-1.2.3 0 .7.2 1 .4 1 1 1.5 2 1.3 3.5-.2.7-.2 1.5-.3 2.2l.1.8.5-.4.1-.9c.2-1.5.6-3 1.1-4.3a7.2 7.2 0 0 1 2.1-3.1c.4-.3.8-.6 1.2-.7 1.1-.3 2.2.4 2.3 1.5a6 6 0 0 1-1 4l-.6 1v.5c.6-.1.8-.5 1-.8.8-1 1.8-1.5 3-1.5a6.2 6.2 0 0 1 1.9.3c1.3.4 1.9 2.3 1 3.6-.2.5-.7 1-1.2 1.3-.5.2-.9.5-1.5 1 .4 0 .5.2.7.1.4 0 .7-.3 1-.4l1.8-.5a22.4 22.4 0 0 1 3.1-.1c2.3 0 4 1.2 5.3 3.1.8 1.2.5 3-.6 4a7.1 7.1 0 0 1-3.9 2.2c-1.3.2-2.6.4-4 .4l-7.2.1-7.8-.3a11.4 11.4 0 0 1-4.4-1.2 6.4 6.4 0 0 1-2.8-2.5c-.4-.7-.5-1.5-.1-2.2.3-.7.8-1 1.5-.8a3 3 0 0 1 1 .3c.8.5 1.6 1 2 1.9.3.6.5 1.1 1 1.5l.2-.1zm23-3.3c.2 0 .3-.2.3-.3v-.3a1 1 0 0 0-.4-.3c-.2-.1-.4-.3-.7 0-.1.1 0 .5.3.7l.5.2zm.4 1.9-.4.4c0 .3.2.4.4.4l.3-.3-.3-.5zm-15.7-12.9-.3-.2c-.2 0-.5.2-.5.5l.2.2c.3 0 .6-.1.6-.5zm-9.4 5.6.2-.5-.3-.3c-.2 0-.3.2-.2.4 0 .2.1.3.3.4zm13.7-.5-.4-.2-.3.3.3.2.4-.3zm8.4 4-.3-.3c-.2 0-.4 0-.4.3l.2.2.5-.2zm-21.6-6.7-.2.4.2.2.2-.3s0-.2-.2-.3zm14.7 1c-.2 0-.3-.1-.4 0l-.2.1s.1.3.2.2l.4-.2zm-12.8-1.6.3-.3-.3-.2-.1.2.1.3zm20 9.2c.2 0 .3-.2.2-.2a.5.5 0 0 0-.2-.2s-.2.1-.1.2l.2.2zm-6.4-5.4.1-.3-.1-.1a.5.5 0 0 0-.2.2l.2.2zM166 161c-.2 0-.3-.2-.4-.1v.3h.1l.3-.2zm9.2-4.3.1-.2-.2-.2-.1.3.2.1z" fill="#FE393C" data-color="6"></path><path d="M189.1 168.2c-.2 0-.3 0-.5-.2-.3-.2-.4-.6-.3-.7.3-.3.5-.1.7 0 .2 0 .3.2.4.3v.3l-.3.3zM189.5 170l.3.6-.3.3c-.2 0-.4-.1-.4-.4l.4-.4zM173.8 157.2c0 .4-.3.6-.6.5l-.2-.2c0-.3.3-.5.5-.5l.3.2zM164.4 162.8c-.2-.1-.3-.2-.3-.4s0-.3.2-.4l.3.3-.2.5zM178 162.3c0 .2-.2.3-.3.3l-.3-.2.3-.3.4.2zM186.5 166.3l-.5.2-.2-.2c0-.2.2-.4.4-.3l.3.3zM164.9 159.6c.1.1.3.2.2.3l-.2.3-.2-.2.2-.4zM179.6 160.7l-.4.2-.2-.2.2-.2.4.2zM166.8 159l-.1-.3.1-.2.3.2-.3.3zM186.9 168.2l-.2-.2.1-.2.2.2-.1.2zM180.4 162.8l-.2-.2a.5.5 0 0 1 .2-.2l.1.1-.1.3zM166 161l-.2.3-.2-.1.1-.3h.4zM175.3 156.7l-.2-.1.1-.3.2.2-.1.2z" data-color="2"></path><path d="M74.7 55.6h50.7a4.6 4.6 0 0 1 4.6 4.6v112a4.6 4.6 0 0 1-4.6 4.7H74.7a4.6 4.6 0 0 1-4.7-4.6V60.2a4.6 4.6 0 0 1 4.7-4.6z" fill="#91C1ED" data-color="7"></path><path d="M125.4 177.1H74.7a4.8 4.8 0 0 1-4.9-4.8V60.2c0-2.7 2.2-4.8 4.9-4.8h50.7c2.6 0 4.8 2.1 4.8 4.8v112c0 2.7-2.2 5-4.8 5zM74.7 55.8c-2.5 0-4.5 2-4.5 4.4v112c0 2.5 2 4.5 4.5 4.5h50.7c2.4 0 4.4-2 4.4-4.4V60.2c0-2.4-2-4.4-4.4-4.4H74.7z" data-color="2"></path><path d="M124.5 119.9H76a2.8 2.8 0 0 0-2.8 2.8v20.7a2.8 2.8 0 0 0 2.8 2.8h48.4a2.8 2.8 0 0 0 2.8-2.8v-20.7a2.8 2.8 0 0 0-2.8-2.8z" fill="#0ACB8B" data-color="1"></path><path d="M124.5 146.4H76a3 3 0 0 1-3-3v-20.7a3 3 0 0 1 3-3h48.4a3 3 0 0 1 3 3v20.7a3 3 0 0 1-3 3zM76 120a2.6 2.6 0 0 0-2.6 2.6v20.7A2.6 2.6 0 0 0 76 146h48.4a2.6 2.6 0 0 0 2.6-2.6v-20.7a2.6 2.6 0 0 0-2.6-2.6H76z" data-color="2"></path><path d="M124.5 91.9h-20.6a2.8 2.8 0 0 0-2.8 2.8v20.7a2.8 2.8 0 0 0 2.8 2.8h20.6a2.8 2.8 0 0 0 2.8-2.8V94.7a2.8 2.8 0 0 0-2.8-2.8z" fill="#FFD7EF" data-color="5"></path><path d="M124.5 118.4h-20.6a3 3 0 0 1-3-3V94.7a3 3 0 0 1 3-3h20.6a3 3 0 0 1 3 3v20.7a3 3 0 0 1-3 3zM103.9 92a2.6 2.6 0 0 0-2.6 2.6v20.7a2.6 2.6 0 0 0 2.6 2.6h20.6a2.6 2.6 0 0 0 2.6-2.6V94.7a2.6 2.6 0 0 0-2.6-2.6h-20.6z" data-color="2"></path><path d="M96.7 91.9H76a2.8 2.8 0 0 0-2.8 2.8v20.7a2.8 2.8 0 0 0 2.8 2.8h20.6a2.8 2.8 0 0 0 2.8-2.8V94.7a2.8 2.8 0 0 0-2.8-2.8z" fill="#FFD7EF" data-color="5"></path><path d="M96.7 118.4H76a3 3 0 0 1-3-3V94.7a3 3 0 0 1 3-3h20.6a3 3 0 0 1 3 3v20.7a3 3 0 0 1-3 3zM76 92a2.6 2.6 0 0 0-2.6 2.6v20.7A2.6 2.6 0 0 0 76 118h20.6a2.6 2.6 0 0 0 2.6-2.6V94.7a2.6 2.6 0 0 0-2.6-2.6H76z" data-color="2"></path><path d="M79.5 67.2a2.8 2.8 0 0 0-2.8 2.8v22.5a2.8 2.8 0 0 0 2.8 2.8H130V67.2H79.5z" opacity=".3" data-color="2"></path><path d="M136.7 70.3c-1-.5-2-.5-3-.4-.4 0-.8 0-1.1-.4l1-.2c1-.1 1.2-.5 1-1.4-.1-.6-.4-1.2-.7-1.7l-.7-1.7c.7.3.9 1.1 1.7 1.6-.2-1.2-.6-2.1-.5-3.2.3.4.4.9.5 1.3.2.4.2 1 .7 1.3.3-1 0-2 .4-3.2.4 1 .2 2 .3 3 .7-.3.4-1 1-1.5a6 6 0 0 0 .1 2.8v-3.7a2.8 2.8 0 0 0-2.8-2.8H82.4a2.8 2.8 0 0 0-2.8 2.8v22.5a2.8 2.8 0 0 0 2.8 2.8h52.2a2.8 2.8 0 0 0 2.8-2.8V68c-.4.7-.6 1.5-.7 2.4z" fill="#FFBF23" data-color="3"></path><path d="M82.4 60a2.8 2.8 0 0 0-2.8 2.9v22.5a2.8 2.8 0 0 0 2.8 2.8h33L90.7 60.1h-8.2zM70 93.3v79a4.6 4.6 0 0 0 4.7 4.6h50.7a4.6 4.6 0 0 0 4.6-4.6v-3.7L70 93.3z" opacity=".3" data-color="2"></path><path d="M158 166.9s2 5.2.8 6.6c-1.2 1.4-2.7 1.7-2.7 1.7l-.7.6.5.6 4.3.3 3.7-1 .4.4 3.3.5 4.7-.3v-1.1L170 174l-1.9-1.5-.3-1.4.3-3.1-3.3.5s-1.3.1-1.7-1.1c-.5-1.3-.5-1.7-.5-1.7s-2.6 1.2-4.4 1z" fill="#FFF" data-color="8"></path><path d="M140.1 63.7s-.6-10.6-.5-13.7c0 0-.1-1.7-2-3.4-1.8-1.7-8-6.1-8-6.1l3.4-7.9 6.3 2.8s-.9 3.8 3.6 5.7c2.1.9 2.3 1.5 2.3 1.5s-1 1.4-.3 2.2 2.7 2 4.6-1.3c1.8-3.2 1.2-3.7 1.2-3.7s5.8.4 8.7-4.3l2.2-3.2s5.4-2.5 10 .6c0 0-.2 5.4-1.7 6.5 0 0-4-.8-7 1.4-3.2 2.1-5.3 4.1-5.5 5-.1 1 .8 7 1.7 8.5 0 0-2.7 1.6-2.4 5.6 0 0-7 4.7-16.6 3.8z" fill="#91C1ED" data-color="7"></path><path d="M163.4 32a.6.6 0 0 0 .8-.6l-1.1.2a.6.6 0 0 0 .3.4zM166.6 31.9a.6.6 0 0 0-.7.3.6.6 0 1 0 1 .5.6.6 0 0 0-.3-.8zM169.4 33a.6.6 0 0 0-.7.3.6.6 0 1 0 1 .4.6.6 0 0 0-.3-.8zM163 33.2a.6.6 0 0 0-.8.3.6.6 0 1 0 1.1.4.6.6 0 0 0-.3-.7zM165.8 34.2a.6.6 0 0 0-.8.4.6.6 0 1 0 1.1.4.6.6 0 0 0-.3-.8zM168.1 36.4c.3 0 .7 0 .8-.4a.6.6 0 1 0-1.1-.4.6.6 0 0 0 .3.8zM170.6 36.7a.6.6 0 0 0 .1.6l.3-1a.6.6 0 0 0-.4.4zM159.7 35.2a.6.6 0 0 0 0-.4l-.5.6v.2a.6.6 0 0 0 .5-.4zM162.1 35.5a.6.6 0 0 0-.4 1.1.6.6 0 0 0 .4-1.1zM164.5 37.6c.3.2.6 0 .7-.3a.6.6 0 1 0-1-.4.6.6 0 0 0 .3.7zM167 38a.6.6 0 1 0 1 .4.6.6 0 1 0-1-.5zM169.7 39a.6.6 0 0 0 0 .3l.5-.7a.6.6 0 0 0-.5.4zM157.7 37.3a.6.6 0 0 0 1.1.2.6.6 0 0 0-.6-.8 8.4 8.4 0 0 1-.5.6zM160.5 38.2a.6.6 0 1 0 1 .4.6.6 0 1 0-1-.4zM164 38.9a.6.6 0 0 0-.7.3.6.6 0 0 0 .4.8l.6-.2a.6.6 0 0 0-.3-1zM154.4 39.2a.6.6 0 0 0 .7-.4l-.8.3zM157.6 39a.6.6 0 0 0-.8.4.6.6 0 1 0 1.1.5.6.6 0 0 0-.3-.8zM159.6 40.5a.6.6 0 1 0 1.1.4.6.6 0 0 0-.3-.8.6.6 0 0 0-.8.4zM133.7 33.4a.6.6 0 1 0 1.1 0l-.7-.4a.6.6 0 0 0-.4.4zM136.5 34.4a.6.6 0 1 0 1.1.2l-1-.4a.6.6 0 0 0-.1.2zM150.5 39.7s.2.1 0 .6a.6.6 0 0 0 .2.1.6.6 0 0 0 .8-.7h-1zM153.2 40.7a.6.6 0 1 0 1 .4.6.6 0 0 0-.3-.7.6.6 0 0 0-.7.3zM157 42.2a.6.6 0 1 0-1-.4.6.6 0 0 0 .3.7.6.6 0 0 0 .8-.3zM159.5 42.5a.6.6 0 0 0-.5 1l.8-.7a.6.6 0 0 0-.3-.3zM133.6 35.4a.6.6 0 0 0-.8.3.6.6 0 1 0 1.1.4.6.6 0 0 0-.3-.7zM136.4 36.4a.6.6 0 0 0-.8.3.6.6 0 1 0 1.1.5.6.6 0 0 0-.3-.8zM139.5 38.2a4.7 4.7 0 0 1-.2-.7.6.6 0 0 0-.1 0 .6.6 0 0 0-.8.3.6.6 0 0 0 .3.8.6.6 0 0 0 .8-.4zM150.6 42.4a.6.6 0 0 0-.3-.8.6.6 0 0 0-.1 0l-.5 1a.6.6 0 0 0 1-.2zM152.6 43.8c.4.1.7 0 .8-.3a.6.6 0 1 0-1.1-.5.6.6 0 0 0 .3.8zM156.2 44.5a.6.6 0 1 0-1.1-.4.6.6 0 1 0 1.1.4zM132 38a.6.6 0 1 0 1 .4.6.6 0 1 0-1-.4zM135 39.8c.4.2.7 0 .9-.3a.6.6 0 1 0-1.2-.4.6.6 0 0 0 .4.7zM138.3 39.8a.6.6 0 0 0-.8.3.6.6 0 1 0 1.1.4.6.6 0 0 0-.3-.7zM141.4 41.6a.6.6 0 1 0-1-.4.6.6 0 1 0 1 .4zM144.2 42.6a.6.6 0 1 0-1.1-.4.6.6 0 1 0 1.1.4zM149 45c.3.2.6 0 .8-.3a.6.6 0 0 0-.4-.7.6.6 0 0 0-.5 0 5.2 5.2 0 0 1-.3.4.6.6 0 0 0 .4.7zM152.5 45.8a.6.6 0 1 0-1-.4.6.6 0 1 0 1 .4zM155.3 46.8a.6.6 0 1 0-1-.4.6.6 0 1 0 1 .4zM157.3 48.2a.6.6 0 0 0 .2 0 30 30 0 0 1-.2-1 .6.6 0 0 0 0 1zM131 40.3a.6.6 0 1 0 1.2.5.6.6 0 1 0-1.1-.5zM133.9 41.4a.6.6 0 1 0 1 .4.6.6 0 0 0-.3-.8.6.6 0 0 0-.7.4zM137 43.2c.3.1.7 0 .8-.3a.6.6 0 1 0-1.1-.5.6.6 0 0 0 .3.8zM139.8 44.3c.3 0 .6 0 .7-.4a.6.6 0 1 0-1-.4.6.6 0 0 0 .3.8zM142.6 45.3c.3.1.6 0 .7-.3a.6.6 0 1 0-1-.5.6.6 0 0 0 .3.8zM145 45.6a.6.6 0 1 0 1-.1 2.4 2.4 0 0 1-.6-.3.6.6 0 0 0-.4.4zM148.9 47a.6.6 0 1 0-1.1-.4.6.6 0 1 0 1 .5zM151.7 48.1a.6.6 0 1 0-1.1-.4.6.6 0 0 0 .3.8.6.6 0 0 0 .8-.4zM153.7 49.5c.3.1.6 0 .8-.3a.6.6 0 1 0-1.2-.5.6.6 0 0 0 .4.8zM157.2 50.2a.6.6 0 1 0-1-.4.6.6 0 1 0 1 .4zM133.8 43.4a.6.6 0 0 0-.2 0l.5.4a.6.6 0 0 0-.3-.4zM136.9 45.2a.6.6 0 1 0-1.1-.2l.6.6c.2 0 .4-.2.5-.4zM139.7 46.2a.6.6 0 1 0-1.1-.4.6.6 0 1 0 1 .4zM142.5 47.3a.6.6 0 1 0-1.2-.4.6.6 0 1 0 1.2.4zM145.2 48.3a.6.6 0 1 0-1-.4.6.6 0 0 0 .3.8.6.6 0 0 0 .7-.4zM148 49.4a.6.6 0 1 0-1-.4.6.6 0 1 0 1 .4zM150.8 50.4a.6.6 0 1 0-1.1-.4.6.6 0 1 0 1.1.4zM152.8 51.8c.3.1.7 0 .8-.3a.6.6 0 1 0-1.1-.4.6.6 0 0 0 .3.7zM156.4 52.5a.6.6 0 1 0-1.1-.4.6.6 0 1 0 1 .4zM158 53.2a.6.6 0 0 0 .8.7 8.2 8.2 0 0 1-.4-1.1.6.6 0 0 0-.4.4zM141.6 49.6a.6.6 0 1 0-1.1-.4.6.6 0 1 0 1 .4zM144.4 50.7a.6.6 0 1 0-1.1-.5.6.6 0 1 0 1 .5zM147.2 51.7a.6.6 0 1 0-1.2-.4.6.6 0 1 0 1.2.4zM149.2 53.1c.3.1.6 0 .7-.3a.6.6 0 1 0-1-.5.6.6 0 0 0 .3.8zM152.7 53.8a.6.6 0 1 0-1.1-.4.6.6 0 1 0 1.1.4zM155.5 54.9a.6.6 0 1 0-1.1-.5.6.6 0 1 0 1 .5zM157.2 55.5a.6.6 0 0 0 0 .5l.7-.9a.6.6 0 0 0-.7.4zM140 52.3c.3.1.6 0 .7-.4a.6.6 0 1 0-1-.4.6.6 0 0 0 .3.8zM142.7 53.3c.3.1.7 0 .8-.3a.6.6 0 1 0-1.1-.4.6.6 0 0 0 .3.7zM145.5 54.4c.3 0 .7 0 .8-.4a.6.6 0 1 0-1.1-.4.6.6 0 0 0 .3.8zM149 55a.6.6 0 1 0-1-.3.6.6 0 0 0 .3.7.6.6 0 0 0 .8-.3zM151.8 56.1a.6.6 0 1 0-1-.4.6.6 0 1 0 1 .4zM153.9 57.5c.3.1.6 0 .7-.3a.6.6 0 1 0-1-.4.6.6 0 0 0 .3.7zM156.3 57.8a.6.6 0 0 0 .2.7c0-.4 0-.7.2-1a.6.6 0 0 0-.4.3zM139.8 54.3a.6.6 0 0 0-.3-.8v1a.6.6 0 0 0 .3-.2zM142.6 55.3a.6.6 0 1 0-1-.4c-.2.3 0 .6.3.8s.6 0 .7-.4zM145.4 56.4a.6.6 0 1 0-1.1-.5.6.6 0 1 0 1.1.5zM148.2 57.4a.6.6 0 1 0-1.1-.4.6.6 0 1 0 1 .4zM151 58.5a.6.6 0 1 0-1.1-.5.6.6 0 1 0 1 .5zM153 59.8c.3.2.6 0 .8-.3a.6.6 0 1 0-1.2-.4.6.6 0 0 0 .4.7zM156.2 59.8a.6.6 0 0 0-.8.6l.9-.6a.8.8 0 0 0-.1 0zM141.8 57.6a.6.6 0 1 0-1.2-.4.6.6 0 1 0 1.2.4zM144.5 58.7a.6.6 0 1 0-1-.4.6.6 0 1 0 1 .4zM147.3 59.7a.6.6 0 1 0-1-.4.6.6 0 0 0 .3.8c.3 0 .6 0 .7-.4zM149.3 61.1c.3.1.7 0 .8-.3a.6.6 0 1 0-1.1-.4.6.6 0 0 0 .3.7zM152.5 61a.6.6 0 0 0-.7 1l1.1-.5a.6.6 0 0 0-.4-.4zM140.1 60.3c.3.1.7 0 .8-.3a.6.6 0 1 0-1.2-.3v.2c0 .2.2.3.4.4zM142.9 61.4c.3 0 .7 0 .8-.4a.6.6 0 1 0-1.1-.4.6.6 0 0 0 .3.8zM145.7 62.4c.3.1.6 0 .7-.3a.6.6 0 1 0-1-.5.6.6 0 0 0 .3.8zM148.9 62.3a.6.6 0 0 0-.8.7l1.2-.2a.6.6 0 0 0-.4-.5zM139.8 61.6v.9a.6.6 0 0 0 0-.9zM142.8 63.3a.6.6 0 1 0-.8.4h.5a.6.6 0 0 0 .3-.4z" fill="#FFD7EF" data-color="5"></path><path d="M178.3 98.7c.5-.1.7.2.7.5l.2 2.3-.2 1.7-.4 2c-.1.2-.2.5-.5.7v-.5l.2-2.5c.2-1.2.3-2.5 0-3.8v-.4zM143.8 97c-.5 1.3-1.2 2.2-1.7 3.2l-.4.2c-.3-.7 0-1.2.4-1.7.3-.7.7-1.4 1.7-1.6zM169.7 26.8a4 4 0 0 1 2.4 1.2v.4a.6.6 0 0 1-.4.1l-.6-.2-1.5-.7c-.2-.1-.4-.2-.3-.5l.4-.3zM181.4 102.7l-.3 1.3a1.1 1.1 0 0 1-.4.4h-.3l-.2-.2.4-2c0-.2.2-.5.5-.4.3 0 .3.3.3.6v.3zM142.3 95.9v.3l-1 1.4c-.2.2-.5 0-.5-.2l.5-1c.2-.3.4-.6 1-.5z" data-color="2"></path><path d="m157.2 110.3-.8-.5c-.5-.3-1-.4-1.4 0-.3.3-.7.4-1 .5-1.2-1-2.4-2.1-3-3.6-.4-1-.4-1.9 0-2.8.4-1.2 1-2.3 1.9-3.3a14 14 0 0 1 4-3.3c.7-.4 1.4-.7 2.2-.6 2 .2 2.4 1.5 1.7 3-.3.7-.8 1.4-1.3 2l-1.8 1.7c-.4.3-.6.7-.5 1.2.2.8 0 1.5-.6 2.1-.5.7-.5 1.3 0 2 .3.4.5 1 .6 1.6z" fill="#91C1ED" data-color="7"></path><path d="m148.3 83-.3-.5a40.1 40.1 0 0 1-4.8-7.1 8.2 8.2 0 0 1-.4-7.4l1-2 .6-1c1.6.7 3.3.8 5 .8a20.8 20.8 0 0 0 5.2-.8l-.8 1.3-.7 1.2c-.6.8-.9 1.8-1 2.8-.2 1 0 2 .8 2.7l.5.6c-.2 1.5-.2 3 .9 4.2-1.7 2-3.2 4.2-6 5.1zM171.7 79c-2-1.5-4.1-2.2-5.9-3.7l1-1.9 1-.9 2-1.3c1.9-1.2 2.3-3.1 1.2-5l-.9-1c-.4-.5-.5-.8-.2-1.3l.4-.6.6.4 1.9 1.8c.4.4.7 1 .8 1.6l.6 1.8v1c-.3 0-.4-.4-.5-.6-.2-.3-.3-.6-.7-.6-.3 0-.5.4-.4 1 0 .9.2 1.7.8 2.3.6.6.7 1.2.4 2-.7 1.4-1.2 2.9-1.8 4.3l-.3.6z" fill="#FE393C" data-color="6"></path><path d="M167.3 77.4a9133.5 9133.5 0 0 0 3 1.7l-.3.9a3 3 0 0 0-.1 2.9l.7 2a4 4 0 0 1 0 2l-.5-.3c-2-1.3-3.2-3.2-4.2-5.3-.3-.5-.2-1 0-1.5.5-.8 1-1.5 1.4-2.4zM146 91.1l.4-.7 1-1.5c.8-1 1.4-2.3 1.9-3.5.3-.6.3-1.2-.2-1.8l3.3-2c1 1 1.2 1.1.6 2.9 0 .2-.2.4-.3.5a19.3 19.3 0 0 1-6 5.9l-.6.2zM156 110.7l-.4.6-.2.5c-.4-.5-.3-.9.6-1z" data-color="2"></path><path d="M164 168.5c.2-.3.5-.3.8-.4l3.5-.5c.7-.1 1-.5 1.2-1.2l.6-2.4c.6-3 .6-5.8.8-8.7a115.2 115.2 0 0 0-1-20.4 18 18 0 0 0-3.6-.1l-5.8.5-6.2.5-3.2.2v.8l.1 6.5.6 6.3a47.4 47.4 0 0 0 5 15.8c.4.7.9 1 1.5 1 1.4 0 2.6-.4 3.8-1-1.2-5.7-1.6-11.4-2-17.1-1.6-1.5-2.5-3.3-2.3-4.5.3 0 .4.3.6.6l1.3 2 .5.7V146l.2-3.3c0-.3 0-.6.3-.7.3.3.2.6.2 1v6.7c.1 2.2.4 4.3.7 6.4.2 2.5.4 5 .8 7.3.2 1.3.7 2.6 1 3.8v.9l.6.4z" fill="#0ACB8B" data-color="1"></path><path d="M163.9 117.8a11.3 11.3 0 0 1 3.7 1.4c.4-.4.6-.7.3-1.2a7 7 0 0 1 .1-6.2c.2-.5.5-.8 1-.8l.3-.2c.4-.3.7-.3 1 .2l.2.7.8 2.1h.2v-1.2c.1-.4.1-.8.6-1 .1 0 .3-.1.3-.3l1.1-3.3a12.6 12.6 0 0 0-1.7-11.1l-1.5-1.6-1-.7a146.6 146.6 0 0 1-5.7.5l-4.7.5-5.6.8-.5.1-2 1.5a17.3 17.3 0 0 0-3.5 4.4 9 9 0 0 0-1.2 6l.7 4c0 .4.2.7.6.9l.4-.6c.5-.6 1.1-.7 1.8-.2l.3.3c.3 0 .4.2.5.5l.3 1c0 .9 0 1.9-.3 2.8-.1.4 0 .7.3 1 .4.5.8 1 1.3 1.3.4.5.8.5 1.3 0l.7-.7 1.8-2.3a9.6 9.6 0 0 0 1.2-1.9c-.5-.6-1-1-1.8-1.1-.9-.1-1.7-.6-2-1.5-.2-.6-.6-1-1-1.4-1-1-1.7-2-1.8-3.5v-2.2l.3-1.5a13.9 13.9 0 0 1 6.8-7 4 4 0 0 1 2.7-.1c1.1.3 1.7 1.1 1.8 2.3v.5l1.7 1.2a22.3 22.3 0 0 1 4.1 5.1c1 2.4.8 4-1 5.7l-1.6 1.4-1.6 1.4c0 1 0 1.9-.2 2.7a3.3 3.3 0 0 1-.4 1.1l1 .4a1 1 0 0 1-.1-.2z" fill="#0E8F6B" data-color="4"></path><path d="m166.7 84.1.5.9a8.1 8.1 0 0 0 2.8 2.6c.7.4 1.2.2 1.4-.6.2-.8.1-1.6 0-2.4a32.1 32.1 0 0 0-.9-2.3c-.2-.6-.2-1.2.1-1.7l.5-1 .4.1c.5 0 .5 0 .8-.5l1.3-2.7.3-.6a4 4 0 0 1 1.6-2c1.4-1 2.7 0 3.2.8l.4 1.2c.4 2 .5 4 0 5.8a18 18 0 0 1-2.8 6c-1.2 1.7-3 2.3-5.2 2.6L170 90c-1-.1-1.6-.5-1.9-1.6l-1.2-3.4-.3-.9h.2zM141.7 68.8l-.2 1.4c-.4 2 .1 4 1.1 5.8l1.4 2.4h-.5a9 9 0 0 1-6-7.6 3 3 0 0 1 .7-2.4c.4-.5.8-.7 1.5-.5l2 1zM159.9 83.5l3.1-.3a3.2 3.2 0 0 1-.2 1.9c-.4 1-1.1 1.1-1.9.5-.7-.6-1-1.1-1-2.1zM163 82.3c-1 .4-2 .3-3.2.5l.2-.5a99.5 99.5 0 0 1 3-.2v.2z" fill="#FFD7EF" data-color="5"></path><path d="m154.7 78.6-1.4 1.8-.4.5.5.3c.8.7 1.1 1.5.8 2.6-.2 1-.6 1.9-1.3 2.7l-2.6 3v1.2l-.2 1.6c-.2 1.3-.2 2.5-.1 3.9h.6l1.8-.5 4.2-.6c3.6-.5 7.2-1.3 10.7-2.5l1-.4v-.5l-1-3c-.6-1.7-1.3-3.2-1.5-5 0-.5-.1-1-.4-1.5-.6-1.2-.5-2.3.2-3.3l1-1.7-1.1-1.3-2.2 1c-.8.3-1.6 0-2.5-.1-.6 1-1.4 1.8-2.4 2.3a3.5 3.5 0 0 1-2.2.3c-.3 0-.7-.2-.8-.6a4 4 0 0 1-.7-.3zm5.2 3 1.6-.4 2-.2.1.8v2.6c0 .4 0 .8-.3 1.2-.5 1-1.5 1.2-2.4.5a3.4 3.4 0 0 1-1.4-2.2l-.1-1.8c0-.3.2-.5.5-.6z" fill="#FFD7EF" data-color="5"></path><path d="M137.2 68.3v17.1a2.6 2.6 0 0 1-2.6 2.6H82.4a2.6 2.6 0 0 1-2.6-2.6V63a2.6 2.6 0 0 1 2.6-2.6h52.2a2.6 2.6 0 0 1 2.6 2.6v1l.1-.1a8.2 8.2 0 0 0-.1.9v.4c0 .7.1 1.4.4 2v-4.2a3 3 0 0 0-3-3H82.4a3 3 0 0 0-3 3v22.5a3 3 0 0 0 3 3h52.2a3 3 0 0 0 3-3V67.6a3.8 3.8 0 0 0-.4.7z" data-color="2"></path><path d="M170.7 67.7c-.2-.9-.7-1.5-1.4-2.1-.5-.6-.6-1.3-.2-2l.6-1.3a2.8 2.8 0 0 0 .2-1.8c-.2-1.1-.7-2-1.6-2.8-.9-.7-1.8-.7-2.8-.3l-.6.4-.6.1-1.2-2.3c-.4-.7-1-1-1.8-1a3.7 3.7 0 0 0-4 3l-.1 2c0 .3 0 .7-.3 1-1-.1-1.6.2-2 1-.5.9-.3 1.8.4 2.7.3-.5.4-1 .7-1.3.3-.4.6-.7.3-1.3l1 .2c.6.2 1 .1 1.6 0 .2 0 .4-.2.5-.6l.3-.9.4.6-.1.6c-.2.6 0 1.1.2 1.6.4.7 1 1.3 1.7 1.7.8.6 1.6 1.3 2.2 2.2.3.4.4.7.3 1.1L164 70c.7.3 1 .8 1 1.5-.2 1-.7 1.9-1.6 2.5-.6.4-1.4 0-1.7-.7-.2 0-.4.3-.5.5.2.7-.3 1.4 0 2.1 2.3.5 4-.3 4.8-2.2l.3-.6 1-1 2.4-1.7c1-.7 1.3-1.4 1-2.7zM148 121l1.3-1c.4.7.5 1.4.6 2.1 0 1.2-.2 2.3-.5 3.4-.1.3-.3.7-.1 1h.6l.3 2.1c0 .4 0 .6-.3.9l-1 1c-1.2 1.4-3 1.4-4.2 0a5 5 0 0 1-1.3-2.5c-.6-3.4 0-6.6 1.6-9.6l.1-.2h.2l-.1.5c-.3.5-.4 1.1-.4 1.7 0 1.3 0 2.6.3 3.8l.5 1c.4.7 1.1.7 1.6.2.3-.3.5-.6.6-1l.4-2.3c0-.4-.1-.7-.3-1.1zM178.2 124.5a8 8 0 0 0-.5-1.7c-1-2.3-2.3-4.5-4.1-6.3l-.5-.4c0 .8 0 1.4.4 2l.1.6a10 10 0 0 1-.5 3.4c-.1.4-.4.8-.7 1.2 0 .2-.3.3-.6.1-.2 0-.5-.2-.9-.7h-.3l-.2 3c-.5 0-.6-.3-.6-.6-.3-1.3-.2-2.7.4-4-.4-.8-.7-1.5-1.6-2-.2.3-.4.7-.7.8-.6.2-.7.7-.7 1.1l-.2 2.2c0 1.2.5 2.2.9 3.3.1.3.3.6.3 1 .2.6-.3 1-.9.8a21.6 21.6 0 0 1-5-4.1l-.7-1c-.5-1-.5-2 0-3l.6-.7c.1-.1.3 0 .4 0l1-1.7-.6-.2c-.6 1-1.7 1.6-3 1.6h-.6c.4 1.2.3 2.3-.2 3.4a191.6 191.6 0 0 1-2 4.5l-.7 1.1a2.4 2.4 0 0 1-.5.5c-.7.5-1.4.2-1.5-.6l-.2-3a10.5 10.5 0 0 0-.9-3.7c-.1-.4-.3-1-.9-1-.7 0-1.2-.5-1.6-1l-.6-.7-.4.6c.7.9 1 1.9 1 3l-.2 1.4v1c.6 2.3.7 4.6.6 7v3.2c6-.4 12.2-1 18.4-.9l-.4-3-.8-6v-1.1a.8.8 0 0 1 .4.5l.4 1.3c0 .3.2.6.4.7 2 1.2 4 1.8 6.2 1.3 1.6-.3 2.5-1.6 2.3-3.2z" fill="#FFBF23" data-color="3"></path><path d="M140 39.2s-1 3 1.7 4.9c1 .7 1.9 2.3 1.9 2.3s1 1.7 3.8-.7c0 0-1 .8-1.5-1.2 0-.8-.9-2.4-.9-2.4l-2.8-1.3-1.8-1.1-.4-.5zM139.6 56.2s8.7 3.7 17.1 2.1V60l-5.6 2.3-5 1.3-6 .1-.2-1.4-.3-6zM152.4 69.7s-6 6.3-1.7 12.2l3.8-3.4 1.6.5s.3-3-.9-4.2-3.4-2.2-2.8-5zM141.3 77.4s-3.6-6-1.2-9.5l2 .9s-1.6 3.8 2.4 10c0 0-2.4-.6-3.2-1.4zM156.7 63l2.2.2s.1 2.4 3 4.1c1.2.7 1.8 1.5 1.6 2.3 0 0 1.4-2-.8-3.7s-3.3-2.8-3.1-3.9c0 0-1.6 1-2.8.1l-.1.8zM170.6 87.6l-2.8.8.8 4.1-3 1.4-15.4 2.6-.6-.7.2-3.8s12.8-.2 15.3-4.2c0 0-4.5-5-2.9-7.5 1.6-2.4 1-4 1-4l2.2-1.1 1.8 1.7s-2 2.4-1.8 3.2l2.2 5.1s2.4 2.2 3 2.4zM165.8 111s-5 1.7-6 3.2c-1 1.4-3.1 1.2-3.1 1.2l-.8 1.6 3 1.6s-.4 6 1.9 7.3c2.2 1.3 4 4 4.9 3 .3-.3 0-1.8 0-1.8l-3.2-3.2-.7-3.2.4-1 2-1.7-1.5-.6.5-4 2.6-2.4zM155 128.7l-.7.4c-.4 0-1-.6-1.2-2s-1-4.2-2.5-4.8c0 0-.2-2-1-2.8l.6-1.5 1.7 2 1.4.2s1.9 3.1 1.6 8.5zM149.6 126s-1.1 2-2.3 2.1-3.2-1-3.3-8c0 0-2.8 6 0 10.3 3 4.2 6.7-1 6.7-1s.1-3.5-1-3.4zM176 127.9s-.5-3.2-2.9-5.7c-2.4-2.6 0 0 0 0s-1.6 3-2.5-.3l-.6 3.4s-.9 0-1.2-.6c0 0-.1 1.6 1 2.2 1 .7 4.3 2.4 6.2 1zM157.9 144.4s-.8 10.4 2 22l2.6-.6s-1.9-13.6-2-18l-2.6-3.4z" opacity=".3" data-color="2"></path><path d="M144 35.2c-.2 0-.4-.2-.3-.4 0-.7.3-1.2.9-1.6.3-.2.6 0 .6.3 0 .4-.6 1.4-1 1.6h-.2zM142.7 39l-.7-.3-.1-.3.2-.2a.6.6 0 0 1 .3 0c.4 0 .7-.1 1-.3l.4-.2.4.1v.5c-.4.4-.9.6-1.5.6zM142 35.9l-.3.2c-.2 0-.4-.2-.4-.4l.2-.2c.2 0 .4.1.5.4zM163.3 81c.3.2.3.6.4 1v2.3l-.3 1.2c-.6 1-1.6 1.3-2.6.6a3.4 3.4 0 0 1-1.3-2.3l-.1-1.8c.2-.4.6-.5 1-.6l1.5-.2 1.4-.2zm-3.4 2.5c0 1 .5 1.7 1.2 2.2.6.4 1.2.3 1.5-.3a3 3 0 0 0 .4-2.2l-3.1.3zm0-.8c.9.1 2.5-.1 3.1-.5l-.2-.2h-.7l-1.9.3c-.2 0-.4 0-.3.4zM154.6 71.5l.6.7c1-.1 1.5-.7 1.8-2-.8-.4-1.7-.6-2.6-.7 0-.3.1-.5.3-.5h1.1l1.7 1c.3.2.3.5.3.9-.2.8-1.2 1.8-2 2-.8 0-1.4-.4-1.2-1.4zM160 67l-.3.4a31.8 31.8 0 0 1-1.1 1.5c-.2.2-.4.2-.6 0l-.2-.4c.3-1 .9-1.6 1.7-2.1.2-.2.5 0 .4.5zM157.1 64.7v.2a4 4 0 0 1-1.4 2.3c-.3.1-.5 0-.6-.2v-.2c.3-1 .8-1.7 1.8-2.2h.2zM162.6 73.3c0-.5 0-.8-.3-1l.3-.4c.2-.1.3-.2.2-.5V71h.4c.1.1.3.3.3.5a2 2 0 0 1-.9 1.7zM156.6 68.6c-.3 0-.5-.2-.5-.4s.1-.2.3-.2c.2 0 .4 0 .4.3l-.2.3zM159.2 105.2c0-.4.3-.6.6-.6.8 0 2 .9 2 1.7 0 .2.1.5-.1.6h-.6a14 14 0 0 1-1.5-1l-.4-.7zM164.1 102.6c0 .4-.3.7-.6.5-.7-.2-1.2-.7-1.6-1.3a.5.5 0 0 1 0-.6.7.7 0 0 1 .4-.2c.6 0 1.6.8 1.8 1.5v.1zM164.1 109l.3-.5 1.2-1.3.2-.2c.1 0 .3-.1.4 0 .1 0 .2.2.1.4-.3.7-.8 1.3-1.5 1.7h-.7zM164.9 105.2c0 .3-.2.6-.5.6l-.3-.2c0-.3.3-.6.5-.6l.3.2zM155.3 111.9c-.2-.9-.1-1 .7-1.2l-.7 1.2z" data-color="2"></path><path d="m76.1 39.6 52 6.2a2.7 2.7 0 0 1 2.3 3l-.6 5.8a2.7 2.7 0 0 1-3 2.3l-52-6.1a2.7 2.7 0 0 1-2.3-3l.7-5.9a2.7 2.7 0 0 1 3-2.3z" fill="#FE393C" data-color="6"></path><path d="M172.7 90.9a20.6 20.6 0 0 0 1.6-.5 6 6 0 0 0 3-2.5c1.2-2 2.4-4 2.8-6.4.2-1 .4-2 .4-3.1 0-1.5-.3-3-1-4.3l-1.2-1.3-.1-2.6c-.2-1-.6-2-1-2.9-.6-1-1.4-1.8-2.4-2.4-.4-.3-.8-.5-1.3-.4a.8.8 0 0 1-.7-.3l-2-1.9V61c-.1-1.6-.8-2.9-2-4-1.3-1-2.8-.8-3.8-.1l-.6.3-.7-1.8c-.4-1.2-1.4-1.7-2.6-1.8l-1.3.2h-.5c-.4-.9-.8-2.4-.8-3.1l.4-.1 3-.6a4.4 4.4 0 0 0 2.4-1.3c2.3-2.5 4-5.4 4-9h1.5c.4 0 .6-.1.8-.4l.3-.9.2-.7a.9.9 0 0 1 .3.6v1c0 .6 0 1.2.4 1.8.1.2.3.3.6.3s.4-.3.5-.5a2.6 2.6 0 0 0 0-.5l.1-.9c0-.3.1-.6.5-.8l.7.4c.5.4.9.8 1.2 1.4.3.6.8 1.1 1.5 1.5.4.2.8.2 1-.2 0-.4-.2-.7-.3-1.1l.7.3.8.2.4-.2-.1-.5c0-.2-.3-.3-.4-.5l-.5-.5 1 .1c.2 0 .5 0 .6-.3 0-.3-.1-.5-.3-.6-.5-.3-1-.6-1.3-1l.7-.3c-.1-.5-.5-.7-.8-.9l-3.2-1.7-3.2-1.7-.3-.5c-.1-.2-.4-.1-.5 0v1.6a24.4 24.4 0 0 1-1.2 4.5l-.2.5h-.2a38.2 38.2 0 0 1-.6 0h-1a9.3 9.3 0 0 0-4.4.9 18 18 0 0 0-5.6 4.2c-.8.8-1 1.8-1 3l.6 3v.4l1 3.6c-1.9 1.2-2.4 3-2.1 5.3-3 1-5.7 2.4-8.8 3.2l-.2-.8a48.9 48.9 0 0 1-1.1-6.6 32 32 0 0 1 0-7.6c0-.6.2-1.2.3-1.7a4.3 4.3 0 0 0 3-2.2c.6-.9.9-1.8 1.1-2.7l.3-.8h.8l.9-.1c3.8-1 6.7-3 8.4-6.6l.4-.8c.1-.3.4-.4.7-.5a12 12 0 0 1 5.5-.6l1.2.3c.4.1.8.1 1.2-.1-.4-.5-.4-.5-3.2-1.1 0-.7-.1-1.3-.6-1.9l-1.2-1.5c-1.3-1.4-3-2-5-1.5a6.5 6.5 0 0 0-2 1l-.3-1.3a5 5 0 0 0-2.2-2.8 7.2 7.2 0 0 0-9.1 1.2l-.6.6-.7-2a3 3 0 0 0-1.3-1.4c-.4-.3-.8-.4-1.2-.3-1.1.4-2.1.8-2.7 1.8-1.2 1.9-1 3.7 0 5.5a5 5 0 0 0 1.8 1.9l-2.6 4.8c-.2 0-.5 0-.7-.2a220 220 0 0 1-3.8-1.7l-1.8-.9c-.7-.3-1.3-.8-1.5-1.5-.2-1-1-1.3-1.7-1.6-.3-.2-.5 0-.7.1l-.6.3-2.9.6-5 1-8.7 1.9-12.5 2.6c-3.8.8-7.6 1.6-11.4 2.2l-10 1.8-1.8-.2A2.9 2.9 0 0 0 73 42l-.7 5.9c-.1.7.1 1.5.6 2.1s1.1 1 1.9 1l52 6.2a2.9 2.9 0 0 0 3.1-2.5l.7-5.8a2.8 2.8 0 0 0-.5-2v-.2l.2-4.2v-.8h.2l4.7 3.1c1.6 1.1 3 2.5 4 4.2l.2.2c.2-.5 0-.8-.2-1.2a11.5 11.5 0 0 0-2.8-3.3A33 33 0 0 0 131 41c-.3 0-.6-.3-.8-.4a3.8 3.8 0 0 1 .3-2l2.4-5.2.2-.3c1.9 1.2 3.9 2 6 2.7v1c0 .5 0 1 .2 1.4.3 1.2 1.1 2 2.2 2.7l2 1c.7.2 1.2.5 1.5 1.2l.5.9.5.4c-.1-.5 0-.8-.2-1-.5-1.2-1-2.4-2.5-2.6l-.6-.1a4.5 4.5 0 0 1-2.2-1.3c-.9-1-1.2-2-1-3.4.2-1 .6-1.8 1.1-2.7.6.2.8-.2 1-.5l.4-1c-.2-.6 0-.9.4-1.2 1 .3 2 .2 3 0-.1.8 0 1.6.2 2.4.3 1.4.9 2.8 1.4 4.2a4 4 0 0 0 1 1.5c.7.6 1.2 1.2 2 1.4a9.9 9.9 0 0 1-1 3.4 5.3 5.3 0 0 1-.7 1c-.5.6-1.2 1-2 .9-1 0-1.4-.5-1.6-1.4l-.1-.6-.4-.4-.2.6c0 1 .4 1.7 1.2 2.2.3 0 .5.2.7.3-.9 5.7 0 11.3 1.2 16.9-2.3.6-4.6.4-6.9.4v-.3c-.2-3.5-.5-7-.4-10.6v-2.2c0-.3 0-.6-.2-.9l-.3.7a9.8 9.8 0 0 0 0 1 76.2 76.2 0 0 0 .2 11.8l.2 1c1.4.3 2.8.1 4.2.3l-.8 1.4-.7 1.3c-.2.4-.2 1-.6 1.3l-1.6-.9c-.6-.4-1.2-.6-2-.3-.4-.6-.4-.8-.5-1.6l-.2-1.7c0-.3-.1-.4-.6-.4h-.3l-.2-1.1c0-.2-.2-.4-.4-.4a.7.7 0 0 0-.4.3l-.3.6c0 .2 0 .5-.2.9l-.1-.4-.4-.8c-.2-.3-.5-.2-.6 0a1.8 1.8 0 0 0-.1.7v1.5c-.4-.3-.6-1.1-1.4-.7-.1.6 0 1.2.3 1.8l1 1.8c.2.3.4.6.2 1l-.8.3-.6.2c-.2 0-.5.2-.5.4 0 .3.2.5.4.6a4 4 0 0 0 1.7.5c.7 0 1.3.2 1.9.3.4.1.7.4.8.9.3 1.3 1 2.6 1.7 3.7 1.4 2 3.3 3.3 5.7 3.8l2.7 3.3c.4.5 1 1 1.6 1.2.1 1-.3 1.7-.8 2.4l-1.7 3a14.3 14.3 0 0 0-.9 1.8c-.2.6.2 1 .8 1l1-.3 2.1-1.3.5-.2-.1.6a16 16 0 0 0-.3 4.8c.1 1 .2 1.1 1.1 1.4l-.4.5a21 21 0 0 0-3.4 4.5c-.7 1.3-1.1 2.7-1.3 4.1-.2 1.5 0 2.9.3 4.3l.8 2.9c-.6 1-1.2 2.4-1.2 3.3 0 .4-.1.7-.4 1-.9 1-1.2 2.2-1.6 3.4l-.3 1.3c-.6 2.2-.4 4.4 0 6.6.2 1.3.8 2.3 2 2.9a9.8 9.8 0 0 0 1.7.5c.9.2 1.7 0 2.4-.5l1-.9.3-.4.1 3.1c0 4 0 8.2.3 12.2a47.4 47.4 0 0 0 6 20.2c0 .6.6.9 1 1l.7 2.2c.3 1 .6 1.8.6 2.7 0 1-.3 1.7-1.2 2l-1.4.7a2.1 2.1 0 0 0-1 1c-.3.5-.2 1 .5 1.3l1 .2 5-.2h.2c.5-.1 1-.3 1.3-.8l.9.3c1 .1 2 .3 3.1.3l4.4-.1h.6c.6-.2.8-.7.5-1.2-.3-.5-.8-.9-1.4-1-.9-.1-1.6-.5-2.4-1-.6-.3-1-.9-1-1.7 0-1.1.1-2.2.4-3.3 1.1-.2 1.6-1 1.8-2l.4-2.4c.6-2.9.6-5.8.8-8.6.3-4.2.2-8.3 0-12.4v-2.1a54.7 54.7 0 0 0-.8-6.3l-.8-5.6c0-.4-.3-.8-.1-1.3l1 .5c1.7 1 3.5 1 5.4.6a3.2 3.2 0 0 0 2.6-3.4 5.8 5.8 0 0 0-.3-1.5c-1-2.8-2.2-5.4-4.3-7.6l-1-1-.4-2.1v-.6c.8-1.3 1.2-2.8 1.5-4.3.4-1.3.7-2.7.7-4 .1-2.4-.4-4.6-1.3-6.7a6.4 6.4 0 0 0-3-3.3l-1.9-1c.5-1 0-1.8 0-2.7l.6.2c1 .5 2.2.5 3.3.2zm-1.3-54.3.6-2.7.1-.2 6.5 3.4c-.1.2-.3 0-.5 0-.4 0-.8-.2-1.4-.1l.3.4 1.3 1c.2 0 .5.3.7.5-1-.2-1.8-.8-2.9-1.3l.3.5 1.4 1.4c.4.3.8.6 1.2 1.2-.3 0-.5 0-.7-.2-.7-.3-1.4-.8-2-1.5 0-.2-.2-.5-.6-.6 0 .5.3.7.5 1l.5 1 .6 1c-.3.2-.4 0-.6-.1-.5-.7-1-1.4-1.7-2l-.7-.8a3 3 0 0 0-.8-.5c-.4-.1-.6 0-.8.3l-.3 1.2-.2 1c-.3 0-.4-.2-.4-.4l-.1-1.4c0-.6.2-1.3-.3-1.8v-.3zM84 39l7.3-1.3 14-2.8 14.2-3c2.5-.6 5-1 7.6-1.5h.1l-.4 1.2-.2 1.7a2 2 0 0 0 .9 2c.7.5 1.5.7 2.4 0-.2 1.7 0 3.2-.3 4.6v6.3a2.8 2.8 0 0 0-1.5-.6l-48.6-5.8L84 39zm46.3 9.7-.7 5.9a2.5 2.5 0 0 1-2.8 2.1l-52-6.1a2.4 2.4 0 0 1-1.6-1 2.5 2.5 0 0 1-.5-1.8l.7-5.8a2.5 2.5 0 0 1 2.4-2.2l52.3 6.2c.6 0 1.1.3 1.5.7a.6.6 0 0 0 .2.5 2.5 2.5 0 0 1 .5 1.5zm-.8-13.8c-.2.2-.4.3-.7.3a2.3 2.3 0 0 1-1.5-.7c-.3-.4-.4-.7-.3-1.2l.3-2c0-.4.2-.6.9-.7l-.4 1c0 .4.2.7.5.6l1.2-.5.2.3c.7 1.2.7 1.6-.2 2.9zm1 1.9v-1.5l.6.2c0 .5-.4.9-.6 1.3zm1-2-1-.4a3 3 0 0 0 0-2v-.7a8.1 8.1 0 0 0-.4-1l-.3-.4-.7.7c-.2.2-.4.4-.8.5.3-.8.5-1.5 1.2-2l1 .4c.4.3.7.6.8 1.2 0 .7.5 1.1 1 1.5-.2.8-.5 1.5-.9 2.2zm14-4.2zm28.4 34.7c.2-.2.4 0 .6.1.3.4.8.6 1 1 1.4 1.6 2 3.4 2 5.5v.6c-1 0-2 .3-2.7 1l-.3-.6c0-.5-.4-.8-.6-1.2a3 3 0 0 1-.8-2.3l.5.6c.2.2.4.4.7.3.3 0 .4-.4.4-.7 0-.4 0-.8-.2-1.2-.1-.8-.2-1.5-.6-2.2a1 1 0 0 1-.2-.3c0-.2 0-.5.2-.6zm-3-1.6 1.8 1.8c.4.4.8 1 .9 1.6l.5 1.8.2 1-.5-.3-.4-.7c-.3-.3-.7-.2-.8.2a2.2 2.2 0 0 0 0 .9c0 .8.3 1.5.9 2.2l.3.4c.2.3.2.6 0 1l-1.1 3.2-1 2-3-1.6-2.9-1.8 1-2c.2-.3.5-.6 1-.9a81.9 81.9 0 0 0 2-1.3c1.9-1.2 2.3-3.1 1.1-5l-.8-1.1c-.5-.5-.5-.6-.2-1.2l.4-.6.5.4zm-34.1 6.5h-.4a5 5 0 0 0-2.3-.3c-.8 0-.8 0-1.5-.3l.6-.2h.5c.9-.2 1.2-.6 1-1.4l-.6-1.5-.7-1.4-.2-.6c.7.4 1 1.2 1.8 1.6l-.4-1.7-.2-1.4c.6.7.4 1.7 1 2.4h.3v-2.3l.3-.8c.5 1 .2 2 .3 3.1.7-.3.5-1 .9-1.4.2.2 0 .5 0 .8v1l.2.7.3 1c-.6.7-1 1.6-1 2.7zm6.3 8a9 9 0 0 1-5.5-7.5 3 3 0 0 1 .7-2.4c.4-.4.8-.6 1.3-.4l2.1 1-.2 1.4c-.4 2 .1 3.8 1 5.6l1.2 2 .3.6-.9-.3zm5.2 4.7-.4-.5a37.6 37.6 0 0 1-4.5-6.8 8.8 8.8 0 0 1-1.2-4.5l.1-1.4c.4-1.7 1.1-3.1 2-4.5l2.6.5h2.5a22.5 22.5 0 0 0 2.6-.1l2.5-.5-1.5 2.5a6.7 6.7 0 0 0-1 2.8c0 .5 0 1 .2 1.5 0 .4.2.7.5 1l.8.7a5 5 0 0 0-.1 2.2c0 .8.3 1.4.9 2l-.5.7-2.2 2.4a8 8 0 0 1-3.3 2zm1.8 13.3-.1-.6c0-1.6 0-3.2.3-4.8v-1.3l2.5-2.9c.7-.8 1.2-1.7 1.4-2.8.3-1 0-2-.8-2.6-.2 0-.3-.2-.5-.3l.8-1 1.1-1.6c.3-.4.3-.8 0-1.1-.5-.5-.6-1-.7-1.6 0-.4 0-.8.3-1.2.4.1.7.4.8.8l.5 1.2c0 .3 0 .6.5.8l.1-.5c0-1.4-.5-2.5-1.7-3.2a4.5 4.5 0 0 0-.5-.3c-1-.5-1.5-1.3-1.4-2.5 0-1 .3-2 .9-2.7l1.8-2.7 1-1.2.8-1.3h2.1c.5 1.3 1.5 2.1 2.6 2.8l1.1.8c.7.5.9 1.2.6 2l-.4 1.3c-.2.6-.2.7.3 1 .6.5.7.7.4 1.3a4.8 4.8 0 0 1-.7 1c-.4.4-.6.5-1 .2h-.1c-.2-.2-.4-.3-.6 0-.2.1 0 .3.2.5.5.4 1.2.7 2 0 .4-.4.8-.9 1-1.5.4-1 .2-1.6-.8-2.2l.2-.7c.2-.4.3-.9.3-1.3v-.6c-.7-.8-1.3-1.7-2.2-2.3-.6-.3-1-.7-1.4-1.1-.7-.7-1-1.5-.8-2.5.2-.5 0-.8-.2-.8-.4 0-.4.4-.4.7l-.1.3c-.7.4-1.3.5-2 .2-.3-.1-.6-.3-1 0l.2.4-1.3 2-.5-1.2c-.3-1.5.7-2.6 2.3-2.5.3-.4.2-.8.2-1.2l.1-1.8a3.7 3.7 0 0 1 4-3 2 2 0 0 1 1.8 1.1l1.2 2.3c.3 0 .5-.2.8-.3l.6-.3c.9-.3 1.7-.3 2.5.3 1 .8 1.5 1.7 1.7 2.9a2.7 2.7 0 0 1-.2 1.7l-.7 1.4c-.3.7-.3 1.3.3 1.9a4.6 4.6 0 0 1 1.3 2.2c.3 1.2 0 1.9-1 2.6l-1.5 1c-.2.2-.3.4-.5.4a3 3 0 0 0-1.6 1.6l-.4 1a3 3 0 0 1-2.2 1.6c-.8.1-1.5.2-2.2 0-.5-.7.2-1.5 0-2.3a2 2 0 0 0-.8 1.7c0 .6-.3 1-.6 1.6-1 1.3-2.4 2-4.1 1.7h-.3c0 .2 0 .4.2.4.2.2.5.3.7.3.9.2 1.6 0 2.4-.4.9-.5 1.6-1.3 2.2-2.2 1.6.5 3.1.2 4.5-1l1.3 1.2-1.2 2c-.6 1-.7 2 0 3.1l.1.8c0 .7.2 1.5.4 2.2l1.5 4 .9 3a38.9 38.9 0 0 1-5.2 1.7 84.1 84.1 0 0 1-10.8 2l-1.8.3h-.5zm-4.7 23.8.1-.6c.4-.7.5-1.5.3-2.2-.2-1.3.3-2.3 1-3.5v.6l-.4 1c-.1.2-.2.4 0 .6.4-.1.5-.5.6-.8.4-1 1.2-1.6 1.8-2.3h.2l.3.2c0 .2 0 .4.2.5.6.4.5 1 .5 1.5 0 1.2-.2 2.4-.7 3.6-.3.6-.6 1.1-1.1 1.5-.8.5-1.2 1.4-1.5 2.3v.4l.7-.9.1.5-.2 1.7-.3.7c0 .2-.3.5-.6.5s-.5-.3-.7-.6a3.9 3.9 0 0 1-.2-.7 14.7 14.7 0 0 1-.1-4zm4.4 9.5-.8 1c-1.4 1.4-3.2 1.3-4.5-.2a6 6 0 0 1-1.2-3c-.3-2.3 0-4.6.8-6.8l.8-2a.7.7 0 0 1 .4-.3l-.1.5c-.3.5-.4 1.1-.4 1.7 0 1.3 0 2.6.3 3.8l.5 1c.4.7 1.1.7 1.6.1.3-.2.5-.6.6-1 .3-.7.4-1.5.4-2.2l-.2-1.1 1.3-1c.3.5.5 1 .5 1.6.1 1 0 2-.2 3l-.3 1.3v.7l.6-.2.3 2.2c0 .4-.1.7-.4.9zm1.4 13.6a67.3 67.3 0 0 1 0-3 4.6 4.6 0 0 1 1.7.6c1.9 1 2.2 2.5 2.6 4 .5 1.7 1 3.5 3.1 4.7a6 6 0 0 0 1.7.7c0 1 0 2.6.2 4.3-1.4.4-2.8.8-4.5-.2-1.9-1-2.3-2.5-2.7-4a7.1 7.1 0 0 0-1.9-3.9 83.7 83.7 0 0 1-.2-3.2zm6.6 1.5a8 8 0 0 0 2 3.4l.4.2v.9a5.5 5.5 0 0 1-1.1-.5c-1.9-1-2.3-2.5-2.7-4-.4-1.8-.8-3.5-3-4.7-.8-.5-1.5-.7-2.2-.7v-3h.4l5.3-.5c1 1 1.4 2.2 1.7 3.5.4 1.2.7 2.5 1.7 3.6v3.2l-.1 1-1.3-1.8c-.3-.5-.5-1.1-1.1-1.5-.2.3-.1.6 0 .9zm-6 4.9-.2-1.5c.4.7.6 1.5.9 2.3.4 1.7.8 3.5 3 4.7 2 1.1 3.6.8 5.1.3l.5 4c-1.2-.1-2.3.2-3.4.6-1 .3-2 .6-3.1.5a42.5 42.5 0 0 1-.5-1.6c-1-3-2-6.1-2.3-9.3zm6.3 16.8a1.2 1.2 0 0 1-.9-.4 4.8 4.8 0 0 1 2.1.3 6.4 6.4 0 0 1-1.2 0zm2.7-.4a7 7 0 0 0-.4-.3c-1.4-.8-2.6-.9-3.8-.7a38.7 38.7 0 0 1-1.6-3.6c1 0 2-.3 3-.6a7 7 0 0 1 3.2-.5s.5 3.3 1 5.2l-1.4.5zm4 2.2c-.2 0-.4 0-.6.2l-.2.2a1.4 1.4 0 0 1-.6-.4.8.8 0 0 0 0-.2 4.4 4.4 0 0 0-.1-.8c-.6-2.2-1-4.4-1.2-6.7l.7.3c1.9 1.1 2.3 2.6 2.7 4.3.2 1 .5 2 1 2.8l-1.7.3zm6-12.8c-.1 2.9-.2 5.7-.7 8.6l-.6 2.5c-.2.6-.5 1-1.2 1.1l-.7.1a8 8 0 0 1-1.2-2.9c-.4-1.7-1-3.5-3.2-4.8a6.3 6.3 0 0 0-1.3-.5 143.2 143.2 0 0 1-.4-4.4c1.4-.4 2.7-.7 4.4.2 1.8 1 2.2 2.5 2.6 4 .4 1.4.7 2.6 1.7 3.7l.2-1.2c-.5-.8-.8-1.7-1-2.6-.4-1.7-.9-3.5-3-4.7-2-1-3.5-.8-5-.3a128.4 128.4 0 0 1-.4-4c1.1 0 2.2-.2 3.2-.5 1.5-.5 3-1 4.8 0 1 .6 1.5 1.2 2 2a78 78 0 0 1-.2 3.7zm-.4-17 .3 5.8.2 5.9a5.7 5.7 0 0 0-1.5-1.2c-2.1-1.2-3.9-.6-5.5-.1-1 .3-2 .6-3 .5v-5.9l.8.5c2.2 1.2 3.9.7 5.6.2 1-.4 2.2-.7 3.4-.5v-1c-1.4-.1-2.6.2-3.7.6-1.6.5-3 1-4.9 0-1.8-1.1-2.2-2.6-2.6-4.2a8 8 0 0 0-1.4-3.3 452 452 0 0 0 4-.4h.1a5.4 5.4 0 0 0 2.6 3c2.2 1.2 3.9.7 5.5.2zm-.7-3.4c.4.8.4 1.6.5 2.4v.1l-.1.1c-1.6.5-3 1-4.9 0a4.5 4.5 0 0 1-2-2.4c.8 0 1.7-.1 2.5-.3 1.4-.1 2.7 0 4 .1zm-.4-40.3 1.1.8c1.8 1.7 2.9 3.7 3.3 6.1l.3 1.8v2a42.1 42.1 0 0 1-.8 3.9c-.2.8-.6 1.5-.9 2.3-.7.4-.8.5-.8 1.3v.9l-.1.2-.2-.4-.9-2.3c-.3-.7-.5-.7-1-.3a.6.6 0 0 1-.4 0c-.5.1-.7.4-.9.8a7.1 7.1 0 0 0 0 6.4l.1.4-.4.7-1.8-.9-2-.6v.2h-.4a6 6 0 0 1-.9 1.5.4.4 0 0 0-.5.1l-.6.9c-.4 1-.3 2 .2 3l.5.8a22.2 22.2 0 0 0 4.9 4c.3.2.6.2.9 0 .3-.3.3-.6.2-1l-.4-.9c-.4-1-.7-2.1-.8-3.3 0-.8 0-1.6.2-2.4.1-.3.2-.5.6-.6l.8-.8c.9.4 1.2 1.1 1.5 2-.5 1-.5 2-.5 3.1 0 .3 0 .6.2 1 0 .2.2.4.6.3l.1-3h.6l-.2-.7-.2-.8a4 4 0 0 0-1.4-2.3c-.8-.6-1.1-1.4-1.4-2.3-.3-1.3-.3-2.5.2-3.7.2-.6.2-.7.7-1.2.5.3.6 1 1.3 1.4l-.4-1.5h.2l.1.2.8 2.2c.2.7.2.8.7 1.2.7-.7.5-1.6.6-2.5.4.8.7 2 .5 3-.1.9-.2 1.8.2 2.7v.5l-.1 2.8c-.1.6-.4 1.3-1 1.8.3.2.5.2.6 0 .4-.3.6-.8.8-1.2.4-1.2.5-2.3.5-3.5a1.4 1.4 0 0 0-.2-.6c-.4-.8-.4-1-.3-2l.4.4a18.7 18.7 0 0 1 4.6 8c.3 1.5-.6 2.9-2 3.2a7 7 0 0 1-4.9-.5l-1.4-.7a1 1 0 0 1-.6-.8c0-.5-.2-1-.4-1.6 0 0 0-.2-.3-.3v1.2c0 2 .5 4 .8 6.1l.4 3c-6.2-.2-12.3.4-18.4.8V131.2c0-2.2 0-4.3-.6-6.5v-1l.1-1.4c0-1-.2-2.1-1-3l.4-.5 1.1 1c.3.3.5.5.9.5.7 0 1 .5 1.2 1 .5 1.2.8 2.4.9 3.6l.2 2.8v.4c.1.8.8 1 1.4.6.4-.2.6-.6.9-.9l.6-1a344.4 344.4 0 0 0 1.6-3.7 5 5 0 0 0 .4-4h.6c1.6.1 3-1 3.4-2.6l.2-2.7 1.7-1.5c.7-.6 1.4-1.2 2-2a3.7 3.7 0 0 0 1-2.5c0-.8-.1-1.7-.5-2.5l-.7-1.3a90.4 90.4 0 0 0-3-3.5c-.6-.6-1.3-1-2.1-1.4v-.5c0-1.3-.7-2-1.8-2.4-.8-.3-1.5-.3-2.3 0-.4 0-.8.2-1.1.4-2.9 1.7-5 4-6.2 7-.5 1.3-.3 4.2.4 5.4a7 7 0 0 0 1.4 1.7c.3.3.6.6.7 1 .3 1 1.2 1.6 2.1 1.7.9.1 1.3.5 1.8 1.1-.3.7-.7 1.3-1.2 1.9l-1 1.2-1.4 1.7c-.5.6-1.1.6-1.5 0l-1.3-1.2a.9.9 0 0 1-.2-1 6.6 6.6 0 0 0 0-3.8c0-.3-.2-.5-.5-.6l-.3-.2c-.6-.5-1.2-.4-1.7 0l-.6.8a1.7 1.7 0 0 1-.5-.9l-.8-4.5c-.1-2 .3-3.7 1.3-5.4a17.5 17.5 0 0 1 3.5-4.5c.6-.6 1.3-1 2-1.5l.5-.1 5.7-.8 4.4-.4c1.7-.2 3.4-.3 5-.7l.9.1zM157.5 113l-.2-.2c0-.3.2-.6.3-.8a.8.8 0 0 0 0-.5l-.3-.2-.3.1v.3c-.3.8-1 1.1-1.7.7-.4-.2-.8-.5-1-1-.3-.3-.1-.6.3-.8a6.2 6.2 0 0 1 1.2-.2l.6.2.9.3c.4.1.6-.2.5-.6 0-.3-.2-.7-.4-1l-.4-1-.4-.8c.9-1 1.3-2 1-3.4 1.6-1.2 3.3-2.3 4-4.2.9.2 1.5.6 2 1 1 1 2 2 2.7 3a9.4 9.4 0 0 1 1.4 4.2c0 .6-.2 1-.5 1.4l-1.3 1.3-3 2.6c-.6.6-1 1.5-1.3 2.4v.7c.6-.5.6-1.2 1.3-1.5l-.4 1.7a2.6 2.6 0 0 1-3.5 1.5.8.8 0 0 1-.3-.2c-.5-.7-1.2-1-2-1.3 0-.3.2-.7.4-1l.5-1c.3-.6.3-1.1-.1-1.7zm-.3-8.6c.2.9 0 1.7-.6 2.3-.5.7-.5 1.2 0 1.9l.7 1.5-.1.2-1-.6c-.4-.2-.8-.2-1.2 0-.3.3-.7.4-1 .6-1.1-1-2.2-2-2.9-3.3-.5-1-.5-2-.1-3.1a10 10 0 0 1 1.9-3.3l3-2.8c.8-.5 1.6-.9 2.4-1 .6-.2 1.2 0 1.8.1.6.3 1 .7 1 1.4a3.1 3.1 0 0 1-.4 1.7 9 9 0 0 1-1.9 2.3l-1.3 1.2c-.2.2-.4.5-.3.9zm11.3-14.8a27 27 0 0 1-1.9-5.4l.4.4c.6 1.2 1.6 2 2.7 2.8 1 .7 1.5.4 1.7-.8.2-.7 0-1.3-.1-2l-.7-2c-.3-.8-.3-1.5 0-2.2l.4-.7h.3c.7 0 .7 0 1-.6l1.3-2.6.2-.6a4 4 0 0 1 1.7-2c1.3-1 2.7 0 3.2 1l.4 1c.4 2 .4 4 0 6a5.4 5.4 0 0 1-.4 1c-.5 1.3-1 2.4-1.7 3.6-1 2.3-3 3.3-5.4 3.7-1.1.3-2.1-.1-3.1-.6z" data-color="2"></path><path d="M79.4 47.8a2.4 2.4 0 0 1-2-1A2.4 2.4 0 0 1 77 45a2.4 2.4 0 0 1 2.8-2 2.4 2.4 0 0 1 2 2.6 2.4 2.4 0 0 1-2.3 2.2zm0-4.2a1.8 1.8 0 0 0-1.4 2.8c.3.4.7.6 1.1.7a1.8 1.8 0 1 0 .3-3.5z" data-color="2"></path><path d="M81.8 49a.3.3 0 0 1-.3-.1l-1.2-1.6a.3.3 0 0 1 0-.4.3.3 0 0 1 .5 0l1.2 1.6a.3.3 0 0 1-.2.5zM124 54.6h-.1a.3.3 0 0 1-.3-.4l.2-1.5a.3.3 0 1 1 .7 0l-.2 1.6a.3.3 0 0 1-.4.3z" data-color="2"></path><path d="M124.4 52.8a2.2 2.2 0 0 1-1.7-.9 2.2 2.2 0 0 1-.5-1.6v-.2a.3.3 0 1 1 .7 0v.3a1.5 1.5 0 0 0 1.3 1.7 1.5 1.5 0 0 0 1.7-1.3v-.2a.3.3 0 1 1 .7 0v.3a2.2 2.2 0 0 1-2.2 1.9z" data-color="2"></path><path d="M124.8 48h-.2a1 1 0 0 0-1 .9l-.3 1.6a1 1 0 0 0 .9 1l.2.1a1 1 0 0 0 1-.9l.3-1.5a1 1 0 0 0-1-1.2z" data-color="2"></path><path d="M76.1 39.6a2.7 2.7 0 0 0-3 2.3l-.6 6a2.7 2.7 0 0 0 2.3 2.9l23 2.7-12.6-12.8-9-1z" opacity=".3" data-color="2"></path><path d="M75.2 177.5c-.9.7-1.8.8-2.8.4-.6-.2-1.2-.6-1.4-1.3a2 2 0 0 0-.4-.6c-1.9-2.3-4-4.4-6.8-5.8a15.6 15.6 0 0 0-5.7-1.6c-2-.2-4.2-.2-6.2-.3l-4.3-.1c-1.8-.1-3.5-.8-5.1-1.9-.6-.3-1-.8-1.3-1.3-.4-.8-.3-1.5.4-2 .5-.5 1.2-.7 2-.7l-.4-.5c-1.9-2-3-4.2-3.2-6.8 0-.9.2-1.7.7-2.4.7-1.1 1.8-1.5 3.1-1 1 .5 1.7 1 2.4 1.8l1.5 1.7.1-1.6.5-1.4-.5-.9a9.3 9.3 0 0 1-1.4-4.2v-1.3c.2-1.2 1.1-1.8 2.3-1.5l.5.2c.1-.4 0-.7-.1-1-.7-2.5-1-5-1.1-7.4 0-1.3.3-2.6.8-3.8a3.8 3.8 0 0 1 .7-1c.7-.8 1.6-.8 2.4-.2a3.9 3.9 0 0 1 1.3 1.8l1.2 3.5.1.6.3-.5c.6-1 1-2 1.7-2.9a5.7 5.7 0 0 1 1.8-1.8c1-.6 2-.6 3 .2.8.7 1.2 1.6 1.4 2.6.3 1.6.4 3.2.1 4.8a3.5 3.5 0 0 0 0 .4v.3l.8-.7c1.5-1.2 2.9-1 4 .5l1 1.5v-1c-.2-2 0-3.8.8-5.6.2-.6.5-1.2 1-1.7.5-.7 1.4-1 2.3-.5l1.3 1c.7.7 1.3 1.7 1.6 2.7 1.1 2.7 1.4 5.6 1.2 8.5l-.3 3.3v.5l1-.7c.6-.5 1.3-1 2.2-1 1.2-.2 2.2.3 2.8 1.4.4.6.6 1.3.6 2 0 1.8-.4 3.5-1.2 5l-1.7 2.6-.5.8.9.1c1 .2 1.5.9 1.5 1.8 0 .7 0 1.5-.3 2.1a9 9 0 0 1-1 2.1 15.7 15.7 0 0 0-2.4 9c0 .7.2 1.3.4 1.9l.3.6c.2.7 0 1.1-.7 1.3a6 6 0 0 1-2.8.1h-.4zm-14.6-31.2v-.7c0-.6.2-1.1.3-1.7l1.1-5c.3-1.5.2-3-.2-4.4-.2-.8-.6-1.6-1.4-2a5.6 5.6 0 0 0-1.2 2l-1.3 4-.3.5a.9.9 0 0 1 0-.6l1.7-5.3c.1-.3.3-.5.1-.9-1 .3-1.5 1-2 1.7a10 10 0 0 0-2.2 4.5l-.4 3.3-.1.8-.4.7-.3-1a11 11 0 0 1 0-1.4c0-2.7-.5-5.2-1.6-7.7-.2-.5-.6-1-.9-1.3-.1-.2-.3-.2-.6-.3v4.4c0 2.9.8 5.6 1.4 8.3-.6-1.2-.9-2.6-1.2-3.9a55.5 55.5 0 0 1-.7-4.2l-.4-4.2c-.3.2-.4.5-.5.8a9 9 0 0 0-.6 4.8c.2 2.1.6 4.3 1.1 6.3l.8 3.2c0 .2.2.5-.2.6l-.4-.4-.4-1a2.2 2.2 0 0 0-1.1-1c-.7-.4-1.3-.1-1.4.6v1.3c0 1.5.6 2.8 1.4 4 2 3 4.6 5.4 7.9 7l7.5 4c3 1.6 5.3 3.8 7.3 6.5 1.6 2.3 3 4.8 3.7 7.6.1.3.3.6.6.7.9 0 1.7.1 2.5-.2l-.4-1.7a16 16 0 0 1 2.2-10.7 8 8 0 0 0 1.2-2.8v-.7l-1.3 1.7c0-1 .8-1.7 1-2.7-.7-.3-1.3-.3-1.9 0l-1.2 1.1-1.8 1.8-.6.2c.4-.9 1-1.5 1.5-2.2a43.8 43.8 0 0 0 4-5.7 9.2 9.2 0 0 0 1.3-4.2c0-.8 0-1.6-.6-2.3L80 152l-1.8 3.1H78c1.1-2.4 2.7-4.5 2.7-7.2-.8-.3-1.5 0-2.1.4-.6.3-1 .7-1.5 1.1-.8.6-1.3 1.4-1.6 2.4l-1.4 3.9c-.2.6-.5 1.1-1 1.6 0-.5.2-1 .3-1.4l1.2-3.8c1-3.3 1.4-6.6 1.3-10 0-2-.5-4-1.2-5.8a6.5 6.5 0 0 0-1.5-2.2c-.3-.3-.6-.6-1-.6.9 5.1 1 8 .5 9.6l-.3-4.8c-.2-1.6-.5-3.2-1.2-4.7-.5.3-.7.7-.9 1.2-.5 1.4-1 2.8-.9 4.2l.4 7.3c.2 1.7 0 3.4-.6 5-.2.5-.3 1-.8 1.2v-.5l.2-1.3c.6-2.6.5-5.2-.4-7.8a8.9 8.9 0 0 0-1.5-2.6c-.2-.3-.4-.6-.9-.5v1l.3 3c0 1 .2 1.9 0 2.8a31.9 31.9 0 0 1-.4-3.4 13 13 0 0 0-.6-3.7c-.4.3-.8.5-1 .8a4.6 4.6 0 0 0-1.4 1.7l-1.4 3.4c-.1.4-.1.7-.7 1zM49 153c-.3.5-.4 1-.4 1.4l.1 1.5c0 .4.3.8-.2 1-.4.2-.6-.3-.8-.5l-2.2-2.5c-.6-.6-1.3-1-2-1.4-.5-.3-1.1-.4-1.7.2.2.7.3 1.5.6 2.2.2.7.6 1.4.9 2-1-.8-1.2-2.3-2.2-3.3-.4.7-.4 1.5-.2 2.3a9.3 9.3 0 0 0 3.8 6l1 .7.2.4c-.3.3-.7.2-1 .2h-1.4c-.5 0-1 0-1.5.6 1.1.9 2 1.4 3.5 1.8l3.5.8.5.2c-2.5.2-4.7-.9-7-1.4 1 .9 2.2 1.5 3.5 1.8 1.4.4 2.9.4 4.3.4 2.4 0 4.8 0 7.2.2 5 .3 9 2.5 12.3 6.3l1.8 2.4c.6.8 1.6 1.1 2.4.9.6-.2.7-.4.5-1-1.1-2.9-2.6-5.6-4.6-8a19 19 0 0 0-5.7-5 512.6 512.6 0 0 0-7.6-4 22 22 0 0 1-7.2-5.7l-.4-.5z" data-color="2"></path><path d="M60.6 146.3c.6-.3.6-.6.7-1l1.4-3.4a4.6 4.6 0 0 1 1.3-1.8l1.1-.7c.4 1.3.5 2.5.6 3.6 0 1.2.2 2.4.4 3.5.2-1 0-1.8 0-2.7l-.3-3v-1c.5-.2.7.1 1 .4a9 9 0 0 1 1.4 2.6c.9 2.6 1 5.2.4 7.8l-.2 1.3v.5c.5-.3.6-.7.8-1.1.6-1.7.8-3.4.6-5.1l-.4-7.3c0-1.4.4-2.9 1-4.2.1-.5.3-.9.8-1.2.7 1.5 1 3 1.2 4.7l.3 4.8c.5-1.5.4-4.5-.5-9.6.4 0 .7.3 1 .6a6.5 6.5 0 0 1 1.5 2.2c.7 1.9 1.2 3.8 1.2 5.8.1 3.4-.2 6.7-1.3 10a330.1 330.1 0 0 0-1.5 5.2c.5-.5.8-1 1-1.6l1.4-4c.3-1 .8-1.7 1.6-2.3l1.5-1.1c.6-.4 1.3-.7 2.1-.4 0 2.7-1.6 4.8-2.7 7.1l.2.1c.6-1 1.3-2 1.8-3.1l1.6-3.4c.6.7.6 1.5.6 2.3-.1 1.5-.5 3-1.3 4.2a43.8 43.8 0 0 1-4 5.7c-.5.7-1.1 1.3-1.5 2.2l.6-.2 1.8-1.8 1.2-1c.6-.4 1.2-.5 2-.1-.3 1-1 1.7-1 2.7l1.2-1.7v.7a8 8 0 0 1-1.2 2.8 15.5 15.5 0 0 0-2.2 10.7l.4 1.7c-.8.3-1.6.3-2.5.2-.3-.1-.5-.4-.6-.7-.7-2.8-2-5.3-3.7-7.6-2-2.7-4.3-5-7.3-6.5l-7.5-4c-3.3-1.6-5.9-4-7.9-7a8.8 8.8 0 0 1-1.5-4 4.9 4.9 0 0 1 0-1.3c.2-.7.8-1 1.5-.7.5.2.8.6 1 1.2l.5 1 .4.3c.4-.1.3-.4.2-.6l-.8-3.2a36.6 36.6 0 0 1-1.1-6.3 9 9 0 0 1 .6-4.8c.1-.3.2-.6.5-.8l.4 4.2a55 55 0 0 0 .7 4.2c.3 1.3.6 2.7 1.2 4-.6-2.8-1.4-5.5-1.4-8.4v-4.4l.6.2 1 1.4c1 2.5 1.6 5 1.5 7.7v1.5l.3.8.4-.6v-.8l.5-3.3a10 10 0 0 1 2.1-4.5c.6-.7 1.2-1.4 2.1-1.7.2.4 0 .6 0 .9l-1.8 5.3a.9.9 0 0 0 0 .6l.3-.6 1.3-4a5.6 5.6 0 0 1 1.2-2c.8.5 1.2 1.3 1.4 2.1.4 1.5.5 3 .2 4.4l-1 5-.5 1.7.1.7zm-3.5 1v-5.4H57c-.4 1.1-.4 3.6 0 5.3zm8.2 6c.7-1.8.6-3.7 1-5.8l-.3.3-.8 5.3v.3z" fill="#FE393C" data-color="6"></path><path d="m49 153 .4.5a22 22 0 0 0 7.2 5.7 512.6 512.6 0 0 1 7.6 4c2.3 1.3 4.1 3 5.7 5 2 2.4 3.5 5.1 4.6 8 .2.6.1.8-.5 1-.8.2-1.8-.1-2.4-1l-1.8-2.3c-3.2-3.8-7.3-6-12.3-6.3-2.4-.2-4.8-.1-7.2-.2-1.4 0-2.9 0-4.3-.4-1.3-.3-2.5-.9-3.5-1.8 2.3.5 4.5 1.6 7 1.4l-.5-.2-3.5-.8c-1.4-.4-2.4-1-3.5-1.8.4-.5 1-.6 1.5-.6h1.4c.3 0 .7 0 1-.2 0-.2 0-.3-.2-.4l-1-.7a9.3 9.3 0 0 1-3.8-6c-.2-.8-.2-1.6.2-2.3 1 1 1.1 2.5 2.2 3.4l-1-2.1-.5-2.2c.6-.6 1.2-.5 1.8-.2l2 1.4 2 2.5c.3.2.5.7.9.5.5-.2.2-.6.2-1v-1.5c-.1-.4 0-.9.3-1.4zm-4.5 5.4c1.3 2.5 5.5 4.8 8.2 5.2-3-1.2-5.7-2.8-8.2-5.2z" fill="#91C1ED" data-color="7"></path><path d="M57 147.2a13 13 0 0 1 0-5.3v5.3zM65.3 153.4v-.3l.7-5.3.2-.3c-.3 2-.2 4-1 5.9zM44.5 158.4c2.5 2.4 5.2 4 8.2 5.2-2.7-.4-7-2.7-8.2-5.2zM84.9 168.8l.7-.3 1-.3c1.3-.2 2.1.5 2.3 1.9a3.7 3.7 0 0 1-.5 2.1l-.4.7.6-.1c1-.2 1.9 0 2.6.7 1 .7 1.2 2 .5 3-.7.9-1.7 1.3-2.7 1.5a8.3 8.3 0 0 1-1.6.2L76 178a9.5 9.5 0 0 1-1.5-.2c-.7 0-1.1-.4-1.2-1 0-.5.4-1 1-1.3l1.2-.3-.4-.9a4 4 0 0 1 0-3.3c.7-1.3 1.6-1.8 3-1.5h.3l.2-2 .4-1.2c.4-1.5 1.5-2.2 3-2.4 1.4-.3 2.8.7 3 2.3l-.1 2.5zm-.7 1.3v-3.9c-.1-1-1-1.7-2.1-1.6-1.1.1-2 .7-2.4 1.8a7 7 0 0 0-.5 3.9c0 .2.2.5-.1.8l-.6-.5c-.8-.7-2-.6-2.5.4-.5.7-.7 1.5-.5 2.4.3 1 .7 2 1.5 2.8l.1.3c-.3.3-.6 0-.8 0a2 2 0 0 0-1.7-.4c-.4.1-.6.4-.6.7 0 .4.3.4.6.5h.5l1.2.1h10.6a18 18 0 0 0 2-.1 3 3 0 0 0 2.2-1.3c.5-.8.4-1.5-.4-2a2.8 2.8 0 0 0-2.1-.5l-1 .2c-.1.1-.4.1-.6-.1l.5-1 .6-1.4c.2-.5.2-1 0-1.5s-.5-.8-1-.8c-1 0-1.8.2-2.4.9-.1.1-.2.4-.5.3z" data-color="2"></path><path d="M84.2 170.1c.3 0 .4-.2.5-.3.6-.7 1.5-1 2.4-1 .5 0 .8.4 1 .9.2.5.2 1 0 1.5l-.6 1.4-.5 1c.2.2.5.2.7.1l.9-.2a2.8 2.8 0 0 1 2 .4c1 .6 1 1.3.5 2.1a3 3 0 0 1-2.1 1.3l-2.1.1H75l-.5-.1c-.3 0-.6-.1-.6-.5 0-.3.2-.6.6-.7a2 2 0 0 1 1.7.3c.2.2.5.4.8.1l-.1-.3a5.3 5.3 0 0 1-1.5-2.8c-.2-.8 0-1.7.5-2.4.6-1 1.7-1.1 2.5-.4l.6.5c.3-.3.2-.6.1-.8a7 7 0 0 1 .5-4c.4-1 1.3-1.6 2.4-1.7 1-.1 2 .5 2.1 1.6V170.1zm-8 2.5a1 1 0 0 0 0 1l.2.2.3-.2c0-.4 0-.7-.5-1zm4.6-6-.2-.2h-.2a1.5 1.5 0 0 0-.3.5l.1.3h.4l.2-.6zm6 3.1-.4-.2-.4.2.3.3.5-.3zm-4.5-4.3-.3-.2c-.2 0-.4 0-.4.2l.3.3.4-.3zm8.2 10.5-.2-.2a1.3 1.3 0 0 0-.4.3l.2.2c.2.1.4 0 .4-.3zM76.8 171l-.2.5h.2a.5.5 0 0 0 .2-.2l-.2-.3zm13.9 3.7-.2.3.1.2.2-.2-.1-.3zm-8.9-8.2-.1.3v.1l.3-.1c0-.1 0-.2-.2-.3z" fill="#0ACB8B" data-color="1"></path><path d="M76.2 172.6c.5.3.5.6.5 1l-.3.2-.3-.2a1 1 0 0 1 .1-1zM80.8 166.6l-.2.5c0 .1-.3.2-.4.1l-.1-.3.3-.4c0-.1.2-.1.2 0l.2.1zM86.8 169.7l-.5.3-.3-.3.4-.2.4.2zM82.3 165.4l-.4.3-.3-.3c0-.2.2-.2.4-.2l.3.2zM90.5 176c0 .2-.2.3-.4.2l-.2-.2.4-.3.2.2zM76.8 171l.2.3a.5.5 0 0 1-.2.3l-.2-.1.2-.5zM90.7 174.7l.1.3-.2.2-.1-.2c0-.1 0-.2.2-.3zM81.8 166.5l.2.3-.2.1-.1-.1.1-.3z" data-color="2"></path></svg>