<svg xmlns="http://www.w3.org/2000/svg" xmlns:xlink="http://www.w3.org/1999/xlink" data-name="Layer 2" preserveAspectRatio="xMidYMid meet" version="1.0" viewBox="-0.5 0.0 413.5 244.9" zoomAndPan="magnify" style="fill: rgb(0, 0, 0);" original_string_length="25290" role="img" aria-label="Lined Corporate Statistics Scene"><g id="__id2359_smezu8dmt"><path d="M227.25,121.84H69.85V13.41a13,13,0,0,1,13-13H214.22a13,13,0,0,1,13,13Z" style="fill: rgb(255, 255, 255);"></path></g><g id="__id2360_smezu8dmt"><path d="M96.48,8.77a2,2,0,1,1-2-2A1.95,1.95,0,0,1,96.48,8.77Zm-8-2a2,2,0,1,0,2,2A2,2,0,0,0,88.52,6.81Zm-6,0a2,2,0,1,0,2,2A2,2,0,0,0,82.52,6.81Z" style="fill: rgb(94, 23, 235);"></path></g><g id="__id2361_smezu8dmt"><path d="M227.25,122.21H69.85a.38.38,0,0,1-.37-.37V13.41A13.42,13.42,0,0,1,82.89,0H214.22a13.42,13.42,0,0,1,13.4,13.41V121.84A.37.37,0,0,1,227.25,122.21Zm-157-.75H226.87v-108A12.67,12.67,0,0,0,214.22.75H82.89A12.68,12.68,0,0,0,70.23,13.41ZM74,14.3H222.41m.38,0a.38.38,0,0,0-.38-.37H74a.38.38,0,1,0,0,.75H222.41A.38.38,0,0,0,222.79,14.3Z" style="fill: inherit;"></path></g><g id="__id2362_smezu8dmt"><path d="M81.34,10.12a2.33,2.33,0,1,1,2.33-2.33A2.34,2.34,0,0,1,81.34,10.12Zm0-3.91a1.58,1.58,0,1,0,1.58,1.58A1.58,1.58,0,0,0,81.34,6.21Zm6,3.91a2.33,2.33,0,1,1,2.32-2.33A2.33,2.33,0,0,1,87.35,10.12Zm0-3.91a1.58,1.58,0,1,0,1.57,1.58A1.58,1.58,0,0,0,87.35,6.21Zm6,3.91a2.33,2.33,0,1,1,2.33-2.33A2.34,2.34,0,0,1,93.35,10.12Zm0-3.91a1.58,1.58,0,1,0,1.58,1.58A1.58,1.58,0,0,0,93.35,6.21Z" style="fill: inherit;"></path></g><g id="__id2363_smezu8dmt"><path d="M262.05,234.37l-1.63,4.07s6.56,5.28,6.55,5.87-16.35-2.43-17-2.77,1.87-8.71,1.87-8.71A28.54,28.54,0,0,0,262.05,234.37ZM279.79,233s2.66,8.31,3.39,8.23,15.9-6.86,15.57-7.35-8.71-1.13-8.71-1.13l-1-4.27A28.67,28.67,0,0,1,279.79,233Z" style="fill: inherit;"></path></g><g id="__id2364_smezu8dmt"><path d="M80.83,190.49c-3.35,13.58-13,38.51-13,38.51s-9.31.93-14.89-3.35l3.91-34.05-.15-.45-7.48,33c-9.49,3-14.51-.74-14.51-.74L39,190.86l17.49-.36L55,186l-4.74-20.83s21.86,2.23,26.51,4.09S84.18,176.91,80.83,190.49Z" style="fill: rgb(255, 255, 255);"></path></g><g id="__id2365_smezu8dmt"><path d="M401.91,153h-77.2l11.12-100.2H413Z" style="fill: rgb(94, 23, 235);"></path></g><g id="__id2366_smezu8dmt"><path d="M392.71,115.15H339.22l7.71-51.58h53.48Z" style="fill: rgb(255, 255, 255);"></path></g><g id="__id2367_smezu8dmt"><path d="M364.59,126H334.37a.38.38,0,0,0,0,.75h30.22a.38.38,0,1,0,0-.75Z" style="fill: inherit;"></path></g><g id="__id2368_smezu8dmt"><path d="M365.7,119.34H335.48a.38.38,0,0,0-.37.38.37.37,0,0,0,.37.37H365.7a.37.37,0,0,0,.38-.37A.38.38,0,0,0,365.7,119.34Z" style="fill: inherit;"></path></g><g id="__id2369_smezu8dmt"><path d="M365.15,122.68H334.93a.38.38,0,1,0,0,.75h30.22a.38.38,0,0,0,0-.75Z" style="fill: inherit;"></path></g><g id="__id2370_smezu8dmt"><path d="M364,129.35H333.82a.38.38,0,0,0-.38.38.37.37,0,0,0,.38.37H364a.37.37,0,0,0,.37-.37A.38.38,0,0,0,364,129.35Z" style="fill: inherit;"></path></g><g id="__id2371_smezu8dmt"><path d="M363.48,132.69H333.26a.38.38,0,1,0,0,.75h30.22a.38.38,0,1,0,0-.75Z" style="fill: inherit;"></path></g><g id="__id2372_smezu8dmt"><path d="M387.86,126H368.78a.38.38,0,0,0,0,.75h19.08a.38.38,0,1,0,0-.75Z" style="fill: inherit;"></path></g><g id="__id2373_smezu8dmt"><path d="M398.28,61.1A.34.34,0,0,0,398,61H344.51a.36.36,0,0,0-.37.31l-7.71,51.58a.36.36,0,0,0,.09.3.34.34,0,0,0,.28.13h53.49a.37.37,0,0,0,.37-.31l7.71-51.58A.4.4,0,0,0,398.28,61.1ZM390,112.54H337.24l7.59-50.82h52.73Z" style="fill: inherit;"></path></g><g id="__id2374_smezu8dmt"><path d="M389,119.34H369.89a.38.38,0,0,0-.37.38.37.37,0,0,0,.37.37H389a.37.37,0,0,0,.38-.37A.38.38,0,0,0,389,119.34Z" style="fill: inherit;"></path></g><g id="__id2375_smezu8dmt"><path d="M387.3,129.35H368.22a.38.38,0,0,0-.37.38.37.37,0,0,0,.37.37H387.3a.37.37,0,0,0,.38-.37A.38.38,0,0,0,387.3,129.35Z" style="fill: inherit;"></path></g><g id="__id2376_smezu8dmt"><path d="M386.75,132.69H367.67a.38.38,0,1,0,0,.75h19.08a.38.38,0,0,0,0-.75Z" style="fill: inherit;"></path></g><g id="__id2377_smezu8dmt"><path d="M388.42,122.68H369.34a.38.38,0,1,0,0,.75h19.08a.38.38,0,0,0,0-.75Z" style="fill: inherit;"></path></g><g id="__id2378_smezu8dmt"><path d="M391.92,150.36H327.7v-4h64.22Z" style="fill: inherit;"></path></g><g id="__id2379_smezu8dmt"><path d="M409.59,47.73a.37.37,0,0,0-.28-.13H388.12V46.09H349V47.6H332.11a.38.38,0,0,0-.37.34l-11.13,100.2a.38.38,0,0,0,.09.29.41.41,0,0,0,.28.13h77.21a.37.37,0,0,0,.37-.33L409.69,48A.38.38,0,0,0,409.59,47.73ZM397.85,147.81H321.4l11-99.46H349v1.36h39.08V48.35h20.77Z" style="fill: inherit;"></path></g><g id="__id2380_smezu8dmt"><path d="M391.1,100.07a.36.36,0,0,1-.24.09.37.37,0,0,1-.29-.13l-6.38-7.63a2,2,0,0,1-.24,0,1.12,1.12,0,0,1-1.07-.81h-4a1.12,1.12,0,0,1-1.07.81,1.14,1.14,0,0,1-1.14-1.13,1,1,0,0,1,.17-.55l-4.59-5a1.15,1.15,0,0,1-.46.1,1.12,1.12,0,0,1-.75-.3l-5.9,3.54a1.45,1.45,0,0,1,0,.3,1.14,1.14,0,0,1-2.27,0,1.11,1.11,0,0,1,.29-.75l-7.17-13.39a1,1,0,0,1-.36.07,1.12,1.12,0,0,1-.93-.52l-5.51,2.2a1.12,1.12,0,0,1-1.11,1A1.14,1.14,0,0,1,347,76.93a1.06,1.06,0,0,1,.24-.65l-2.49-5.5a.37.37,0,1,1,.68-.31l2.44,5.38a1.18,1.18,0,0,1,.27-.06,1.14,1.14,0,0,1,.94.53l5.5-2.2a1.12,1.12,0,0,1,1.11-1,1.14,1.14,0,0,1,1.14,1.13,1.12,1.12,0,0,1-.19.59l7.24,13.52a.58.58,0,0,1,.19,0,1.09,1.09,0,0,1,.65.23l6-3.6a.86.86,0,0,1,0-.17,1.14,1.14,0,0,1,2.27,0,1.19,1.19,0,0,1-.14.53l4.6,5a1.16,1.16,0,0,1,.42-.08,1.12,1.12,0,0,1,1.05.71h4a1.12,1.12,0,0,1,1.05-.71,1.14,1.14,0,0,1,1.14,1.14,1.1,1.1,0,0,1-.26.68l6.32,7.56A.37.37,0,0,1,391.1,100.07Z" style="fill: inherit;"></path></g><g id="__id2381_smezu8dmt"><path d="M335.83,148.86l-14.58,93.07a.38.38,0,0,1-.37.32h-.06a.37.37,0,0,1-.31-.43l14.58-93.07a.36.36,0,0,1,.42-.32A.39.39,0,0,1,335.83,148.86Zm38.62-.43a.37.37,0,0,0-.43.32l-8.87,56.6-8.87-56.6a.36.36,0,0,0-.42-.32.39.39,0,0,0-.32.43l9.23,58.91-5.33,34a.38.38,0,0,0,.31.43h.06a.38.38,0,0,0,.37-.32l5-31.74,5,31.74a.36.36,0,0,0,.37.32h.05a.38.38,0,0,0,.32-.43l-5.34-34,9.23-58.91A.39.39,0,0,0,374.45,148.43Zm9.64.32a.36.36,0,0,0-.42-.32.39.39,0,0,0-.32.43l14.59,93.07a.36.36,0,0,0,.37.32h.05a.38.38,0,0,0,.32-.43Z" style="fill: inherit;"></path></g><g id="__id2382_smezu8dmt"><path d="M311.88,61.78H249.55V12.47h62.33Z" style="fill: rgb(94, 23, 235);"></path></g><g id="__id2383_smezu8dmt"><path d="M128.55,107.53c3.62-4.07,7.64-9.3,11.65-13,1.41-1.31,3-2.67,4.81-2.93,2.57-.38,4.52,1.52,6.13,3.24,1.92,2,4.06,4.13,7,4.69,3.58.68,7.49-1.1,11-2.88,3.08-1.55,6.23-3.21,8.63-5.73s3.87-5.61,6.66-7.45a3.79,3.79,0,0,1,1.59-.68,2.77,2.77,0,0,1,2.37,1.14c1.49,1.78,1.75,4.32,2.33,6.64s1.75,4.72,4.12,5.26c3.08.72,6.37-2.06,8.39-4.86s3.77-6.1,6.83-7.71A3.05,3.05,0,0,1,213,83c.87.58.88,1.83.83,2.93q-.36,6.84-.7,13.66c-.1,1.9-.62,6.43-2,8Z" style="fill: rgb(94, 23, 235);"></path></g><g id="__id2384_smezu8dmt"><path d="M285,127.88s5.49-33.57,15.5-47.29l35.18.33s-15,29.86-15.65,47Z" style="fill: rgb(166, 103, 53);"></path></g><g id="__id2385_smezu8dmt"><path d="M255.25,89.35s-4.23-5.09-3.51-8.47,2.79-2.43,2.79-2.43,1.45-5.08,7.75-5.08c0,0,2.42-4.6,5.08-4s1.82,4,1.82,4,1.33-1.45,3,.36-1.93,6.18-1.93,6.18l-3.15,6.9Z" style="fill: inherit;"></path></g><g id="__id2386_smezu8dmt"><path d="M178,191.79l-10.24,47.44m.37.08,10.23-47.44a.38.38,0,0,0-.28-.45.38.38,0,0,0-.45.29l-10.23,47.44a.37.37,0,0,0,.28.45h.08A.37.37,0,0,0,168.08,239.31Zm39.66-47.52L218,239.23m.08.37a.39.39,0,0,0,.29-.45L208.1,191.71a.38.38,0,0,0-.44-.29.39.39,0,0,0-.29.45l10.23,47.44a.38.38,0,0,0,.37.3Z" style="fill: inherit;"></path></g><g id="__id2387_smezu8dmt"><path d="M211.25,129.09c36.36-1.61,9.13,46.88,1.35,59.65a6.34,6.34,0,0,1-5.43,3H170.5Z" style="fill: rgb(255, 255, 255);"></path></g><g id="__id2388_smezu8dmt"><path d="M207.17,192.17H170.5a.37.37,0,0,1-.32-.2.35.35,0,0,1,0-.38l40.74-62.7a.38.38,0,0,1,.3-.17c8.31-.37,13.94,1.85,16.75,6.61,8.05,13.6-9.49,44.47-15.06,53.61A6.69,6.69,0,0,1,207.17,192.17Zm-36-.75h36a5.94,5.94,0,0,0,5.11-2.87c5.51-9.05,22.89-39.59,15.06-52.84-2.64-4.46-8-6.57-15.88-6.25Z" style="fill: inherit;"></path></g><g id="__id2389_smezu8dmt"><path d="M112.6,157.65H72.14l13.42-28.08a1.89,1.89,0,0,1,1.72-1.08h36.23a1.9,1.9,0,0,1,1.72,2.72Z" style="fill: rgb(255, 255, 255);"></path></g><g id="__id2390_smezu8dmt"><path d="M112.6,158H72.14a.37.37,0,0,1-.31-.18.36.36,0,0,1,0-.36l13.41-28.08a2.28,2.28,0,0,1,2.06-1.3h36.23a2.29,2.29,0,0,1,2,3.27l-12.63,26.43A.37.37,0,0,1,112.6,158Zm-39.86-.75h39.62l12.53-26.23a1.54,1.54,0,0,0-1.38-2.19H87.28a1.55,1.55,0,0,0-1.39.87Z" style="fill: inherit;"></path></g><g id="__id2391_smezu8dmt"><path d="M109.78,154.68H77.56l10.69-22.36a1.5,1.5,0,0,1,1.37-.86h28.85a1.51,1.51,0,0,1,1.37,2.17Z" style="fill: rgb(255, 255, 255);"></path></g><g id="__id2392_smezu8dmt"><path d="M109.78,155.06H77.56a.37.37,0,0,1-.31-.18.36.36,0,0,1,0-.36l10.68-22.36a1.89,1.89,0,0,1,1.71-1.08h28.85a1.87,1.87,0,0,1,1.6.88,1.89,1.89,0,0,1,.11,1.83l-10.06,21.06A.37.37,0,0,1,109.78,155.06Zm-31.62-.75h31.39l10-20.85a1.16,1.16,0,0,0-.07-1.1,1.14,1.14,0,0,0-1-.53H89.62a1.17,1.17,0,0,0-1,.65Z" style="fill: inherit;"></path></g><g id="__id2393_smezu8dmt"><path d="M116.23,161.84H55.06v-1.48a3.13,3.13,0,0,1,3.13-3.13H113.1a3.13,3.13,0,0,1,3.13,3.13Z" style="fill: rgb(255, 255, 255);"></path></g><g id="__id2394_smezu8dmt"><path d="M116.23,162.21H55.06a.37.37,0,0,1-.37-.37v-1.48a3.5,3.5,0,0,1,3.5-3.5H113.1a3.5,3.5,0,0,1,3.5,3.5v1.48A.38.38,0,0,1,116.23,162.21Zm-60.79-.75h60.41v-1.1a2.75,2.75,0,0,0-2.75-2.75H58.19a2.75,2.75,0,0,0-2.75,2.75Z" style="fill: inherit;"></path></g><g id="__id2395_smezu8dmt"><path d="M172.16,190.69c3.77,7.34,14.34,28.22,14.34,28.22l-5.81,5.9-6.46,4c-2.8-2.42-5.39-4.7-7.82-6.88l.19,5.2A23.37,23.37,0,0,1,151,229.7a157.24,157.24,0,0,1-7.66-31.21c-9.19-11.6-8.9-17.7-6.85-24.42,3.35-11,35.3-9.67,35.3-9.67,16.33,13,30,11.3,30,11.3C198.49,189,181.79,190.8,172.16,190.69Z" style="fill: rgb(94, 23, 235);"></path></g><g id="__id2396_smezu8dmt"><path d="M181.53,143.05l-1.82,5.58a24.84,24.84,0,0,1-6.28,5.44c-3.2,1.68-7.39,1-10.18-4.32s-7-15.77-9.49-16.05-8.65,2.37-8.93,1.67,1-2.09,1-2.09-1.54.56-2-.28,1.4-2.23,1.4-2.23-1.95.56-2.09-.56,2-2.09,2-2.09-2.09-.7-2.09-1.68,9.48-2,9.48-2c-2.93-2.51-.13-2.79-.13-2.79,11,.56,19.67,22.74,19.67,22.74l2.51-5Z" style="fill: rgb(166, 103, 53);"></path></g><g id="__id2397_smezu8dmt"><path d="M188.92,99.65s3.49-8.23,13.4-5.86,5.16,19.4,5.16,19.4l-13.53,1Z" style="fill: inherit;"></path></g><g id="__id2398_smezu8dmt"><path d="M202.18,120.86c23.72,2.79,11.72,31.82,11.72,31.82l-3.91-.42-8.23,23.44c-17.72.14-30-11.3-30-11.3,5.16-3.07,9.77-21.35,9.77-21.35l-10.19-5.58s4.61-7.4,8.65-13.26,13.68-5,13.68-5Z" style="fill: rgb(255, 255, 255);"></path></g><g id="__id2399_smezu8dmt"><path d="M201.44,176.07c-17.49,0-29.81-11.29-29.94-11.4a.37.37,0,0,1-.11-.31.38.38,0,0,1,.18-.29c4.63-2.75,8.92-18.53,9.52-20.83l-9.93-5.44a.36.36,0,0,1-.18-.24.37.37,0,0,1,0-.29c0-.08,4.66-7.47,8.66-13.27,4.2-6.08,13.63-5.23,14-5.19h0l8.51,1.67c6,.71,10.29,3.17,12.72,7.31,5.58,9.5-.46,24.39-.72,25a.4.4,0,0,1-.39.23l-3.61-.39-8.14,23.16C202,176.07,201.71,176.07,201.44,176.07Zm-29.07-11.63c2.13,1.81,13.53,10.88,29.07,10.88h.05l8.15-23.19a.38.38,0,0,1,.39-.25l3.63.39c.78-2,5.66-15.58.66-24.1-2.3-3.92-6.4-6.26-12.18-6.94l-8.53-1.67c-.44,0-9.44-.74-13.31,4.86-3.51,5.08-7.48,11.4-8.43,12.91l9.84,5.39a.37.37,0,0,1,.18.42C181.71,143.87,177.43,160.66,172.37,164.44Z" style="fill: inherit;"></path></g><g id="__id2400_smezu8dmt"><path d="M199.11,99.93c-1,3.91,3.21,6.84,3.21,6.84l-.42,3.91s6.28-1.4,5.58,2.51-5.16,3.07-5.16,3.07l-.84,7.67c-3.21,1.95-8.09-.84-8.09-.84l.42-5.58C180.55,116.26,189.2,99,189.2,99Z" style="fill: rgb(166, 103, 53);"></path></g><g id="__id2401_smezu8dmt"><path d="M210.23,150.26a28.25,28.25,0,0,1-2,6.51c-1.49,3.16-3.26,3.72-7.16,4.09s-18.24,0-21.49-.18-3.16.18-4.93.37-1.68-1-1.68-1a2.25,2.25,0,0,1-2.32,1.12c-1.58-.28-.1-3.35-.19-4.56s-1.58-1.67-1.58-1.67a4.8,4.8,0,0,1,.72-2,4.12,4.12,0,0,1,4.16-2,7.57,7.57,0,0,1,5.17,3.93s17.3-2.42,19.72-2.61,1.67-3.35,1.67-3.35Z" style="fill: rgb(166, 103, 53);"></path></g><g id="__id2402_smezu8dmt"><path d="M179.12,146.7a1.68,1.68,0,0,1,2.33.26h0a1.69,1.69,0,0,1-.27,2.4l-12.86,9.92-3.1.57a.22.22,0,0,1-.24-.31l1.66-3.24Z" style="fill: inherit;"></path></g><g id="__id2403_smezu8dmt"><path d="M172.92,160.4a.34.34,0,0,1-.16,0,.39.39,0,0,1-.18-.5,10.1,10.1,0,0,1,3.59-3.92.37.37,0,1,1,.39.64,9.47,9.47,0,0,0-3.3,3.6A.37.37,0,0,1,172.92,160.4Z" style="fill: inherit;"></path></g><g id="__id2404_smezu8dmt"><path d="M159.46,168.08a.34.34,0,0,1-.4.34,13,13,0,0,0-7.67,2.09c-6,3.68-8.89,9.08-9,17a46.37,46.37,0,0,0,1.28,11.56.37.37,0,0,1-.28.45l-.08,0a.38.38,0,0,1-.37-.29,47.48,47.48,0,0,1-1.3-11.75c.12-8.18,3.1-13.78,9.37-17.62a13.89,13.89,0,0,1,8.12-2.18A.36.36,0,0,1,159.46,168.08Zm9.68,21.76a4.13,4.13,0,0,0-3.54,1l0-1.73a.38.38,0,0,0-.38-.37h0a.37.37,0,0,0-.37.38l.42,29.72a.37.37,0,0,0,.37.37h0a.38.38,0,0,0,.37-.38l-.38-26.57a.37.37,0,0,0,.09-.16c0-.07.3-1.73,3.37-1.5a.34.34,0,0,0,.4-.34A.36.36,0,0,0,169.14,189.84Z" style="fill: inherit;"></path></g><g id="__id2405_smezu8dmt"><path d="M166.6,227.09s.42,2.47.56,4.7.41,2.51-5.17,5.3-14.37,6.42-14.23,4.89,3.91-8.1,3.91-8.1l-.7-4.18C160.46,230.26,166.6,227.09,166.6,227.09Zm7.63,1.68.88,1.91s-4.74,8.23-3.21,9.2,18.28-14.09,18.28-14.09l-3.68-6.88S179.76,226.72,174.23,228.77Z" style="fill: rgb(255, 255, 255);"></path></g><g id="__id2406_smezu8dmt"><path d="M148.34,242.7a1.21,1.21,0,0,1-.67-.15.64.64,0,0,1-.28-.61c.13-1.5,3.27-7.06,3.89-8.13l-.68-4.05a.35.35,0,0,1,.09-.31.34.34,0,0,1,.3-.13,32.74,32.74,0,0,0,15.44-2.56.37.37,0,0,1,.34,0,.37.37,0,0,1,.2.27s.42,2.51.56,4.74l0,.27c.15,2.24,0,2.68-5.39,5.39C162,237.49,151.47,242.7,148.34,242.7Zm-.2-.75c1,.35,7.64-2.17,13.68-5.19,5.12-2.56,5.1-2.84,5-4.67l0-.28c-.1-1.6-.35-3.34-.47-4.16a33.76,33.76,0,0,1-14.89,2.45l.62,3.72a.36.36,0,0,1,0,.25C151,235.85,148.32,240.67,148.14,242ZM172,240.27a.49.49,0,0,1-.28-.07c-1.66-1.06,1.74-7.36,3-9.54l-.8-1.73a.37.37,0,0,1,.21-.51c5.38-2,12.05-9.68,12.12-9.76a.43.43,0,0,1,.33-.13.4.4,0,0,1,.29.2l3.67,6.88a.38.38,0,0,1-.08.46C185.56,230.45,174.38,240.27,172,240.27Zm2.75-11.3.72,1.55a.37.37,0,0,1,0,.34c-2.47,4.3-4,8.28-3.33,8.71,1.11.22,9.8-6.84,17.61-13.86l-3.28-6.15C185,221.17,179.54,227,174.73,229Z" style="fill: inherit;"></path></g><g id="__id2407_smezu8dmt"><path d="M225.9,164.63H49.39v-4.19H225.9a2.09,2.09,0,0,1,2.09,2.09h0A2.09,2.09,0,0,1,225.9,164.63Z" style="fill: rgb(255, 255, 255);"></path></g><g id="__id2408_smezu8dmt"><path d="M225.9,165H49.39a.38.38,0,0,1-.38-.37v-4.19a.37.37,0,0,1,.38-.37H225.9a2.47,2.47,0,1,1,0,4.93Zm-176.14-.75H225.9a1.72,1.72,0,1,0,0-3.43H49.76Z" style="fill: inherit;"></path></g><g id="__id2409_smezu8dmt"><path d="M67.81,229l-.65,3s7.34,3.25,6.51,5-15.35-1.67-19.07-2.33.18-7.62.18-7.62Zm-30.89-4.28a26.64,26.64,0,0,0-.37,5.4c.19,2.23,15.07,3.53,15.82,1.11s-3.73-4.09-3.73-4.09l.56-3S42,226.58,36.92,224.72Z" style="fill: inherit;"></path></g><g id="__id2410_smezu8dmt"><path d="M76.88,168.93c-4.65-1.86-25.72-4-26.62-4.12a.39.39,0,0,0-.41.34.38.38,0,0,0,.34.41c.22,0,21.86,2.25,26.41,4.07,5.43,2.17,6.73,9.16,3.87,20.77-3.14,12.73-12,35.75-12.93,38.25-1.43.1-9.28.47-14.22-3.17l3.88-33.83a.42.42,0,0,0,0-.16l-.12-.36.13-.56a.41.41,0,0,0-.08-.32.39.39,0,0,0-.3-.14h-.09l-1.4-4.21a.38.38,0,0,0-.72.24l1.33,4-17,.35a.38.38,0,0,0-.36.33l-4.28,32.56a.37.37,0,0,0,.15.35c.15.11,2.75,2,7.67,2a24,24,0,0,0,7.18-1.18.38.38,0,0,0,.25-.27l6.36-28.09-3.38,29.45a.38.38,0,0,0,.15.34c4,3,9.68,3.52,12.84,3.52,1.32,0,2.19-.09,2.3-.1a.36.36,0,0,0,.32-.23c.09-.25,9.72-25.11,13-38.56C84.16,178.55,82.71,171.26,76.88,168.93Zm-28,54.94c-8.08,2.46-12.84-.05-13.8-.64l4.21-32,16.89-.35.1.29Z" style="fill: inherit;"></path></g><g id="__id2411_smezu8dmt"><path d="M50.92,96s1.82,6.69,1.68,9.62a4,4,0,0,1-5.3,3.91c-2.8-.84-3.07-11.72-3.07-11.72ZM35.57,111.74v4.19l8,.28.14-5.16S36.27,108.81,35.57,111.74ZM59.3,132.81S75,119.07,74.57,118.09a1.1,1.1,0,0,0-1.39-.63s1.12-1.32.21-2a2.75,2.75,0,0,0-2.3-.21s1-1.25-.28-1.88-6,4-6,4,.93-3.53.19-3.53-10.79,10-10.79,10Zm18.9,12.42c5-6.83,15.07-12.21,14.86-13.53a1.41,1.41,0,0,0-1.32-1.33s1.18-1,.49-2-2.45-.21-2.45-.21,1.26-.91-.07-1.61-6.41,2.73-6.41,2.73.76-1.33-.56-1.68S72,139.51,72,139.51,77.85,145.09,78.2,145.23Z" style="fill: rgb(220, 176, 123);"></path></g><g id="__id2412_smezu8dmt"><path d="M23.57,128.35s2.24-12,12-12.42,17.31,1.95,19.26,4.47,11.16,22,11.16,22l4.19-5s7.67,2,9.49,8.37c0,0-7.4,12.41-13,12.14-5.86-.28-13-10.19-13-10.19s-1,4.61-3.48,17.45c-.42-.28-12.28,7.81-26.66,1.11Z" style="fill: rgb(94, 23, 235);"></path></g><g id="__id2413_smezu8dmt"><path d="M47.57,103.65c-.13,2.93,1.4,7.54-.27,8.79s-5.45-.56-8.93-.84-5.45,1.26-9.77.28-2.93-4.32-1.4-8.37.14-11.44,6-15.21S45.34,88,45.34,88s6.84-1.53,7.54,3.21S48,97.79,48,97.79,47.71,100.72,47.57,103.65Z" style="fill: inherit;"></path></g><g id="__id2414_smezu8dmt"><path d="M50.23 165.19L46.23 167.05" style="fill: rgb(255, 255, 255);"></path></g><g id="__id2415_smezu8dmt"><path d="M46.23,167.42a.37.37,0,0,1-.16-.71l4-1.86a.38.38,0,0,1,.5.18.39.39,0,0,1-.19.5l-4,1.86A.4.4,0,0,1,46.23,167.42Z" style="fill: inherit;"></path></g><g id="__id2416_smezu8dmt"><path d="M12.93,190a5.14,5.14,0,0,1-4.77-4C5.93,176,.69,149.64.46,146c-.33-5-.37-17.11,15.81-17.86s25.49.19,28.47,3.72c4.66,5.54,1.35,37.26,0,48.82a4.09,4.09,0,0,0,3.73,4.56l15.83,1.32s2.42,0,1.49,3.16C65,192.4,25.63,190.6,12.93,190Z" style="fill: rgb(255, 255, 255);"></path></g><g id="__id2417_smezu8dmt"><path d="M65.93,187a2.19,2.19,0,0,0-1.63-.81l-15.83-1.32a3.72,3.72,0,0,1-3.39-4.15c1.55-12.91,4.63-43.53-.06-49.1-2.94-3.49-11.55-4.64-28.77-3.85-5.66.26-9.91,1.94-12.64,5C-.49,137.35-.06,143.9.08,146.05c.24,3.68,5.57,30.35,7.71,40a5.57,5.57,0,0,0,5.12,4.32h0l.56,0L7,237.13a.38.38,0,0,0,.32.43h0a.36.36,0,0,0,.37-.32l6.51-46.85c6.92.35,18.88.89,29.59,1.07,2.59,0,4.87.06,6.89.06h.59l7.22,47.58a.36.36,0,0,0,.37.32h0a.38.38,0,0,0,.32-.43L52,191.52c13.61-.06,13.92-1.12,14.08-1.67A3.18,3.18,0,0,0,65.93,187Zm-.53,2.61c-.88,1.55-21.48,1.53-52.45,0a4.81,4.81,0,0,1-4.43-3.74C6.38,176.25,1.07,149.65.83,146c-.13-2.07-.55-8.38,3.34-12.72,2.59-2.9,6.66-4.49,12.12-4.74q5.07-.24,9.18-.24c10.82,0,16.8,1.23,19,3.82,4.62,5.5,1.08,38.54-.11,48.53a4.4,4.4,0,0,0,1,3.35,4.46,4.46,0,0,0,3.1,1.64L64.27,187a1.43,1.43,0,0,1,1,.51A2.46,2.46,0,0,1,65.4,189.63Z" style="fill: inherit;"></path></g><g id="__id2418_smezu8dmt"><path d="M266.15,99.52s8.11-2.79,10.17-1.46,6.17,9.45,6.17,9.45l4.24-2.91,5.69,5.21c-.24,3.14-12,14.16-12,14.16l1,16.83c-9.2,6.29-24.21,2.78-24.21,2.78-3.15-8.59-1.69-26.75-1.69-26.75a22.52,22.52,0,0,1-2.42-8.48c-.61-5.44,6.53-8,6.53-8Z" style="fill: rgb(94, 23, 235);"></path></g><g id="__id2419_smezu8dmt"><path d="M280.71,123.71a.38.38,0,0,1,0,.53c-.29.27-7.17,6.59-11.76,7.08l-.25,0c-4.75,0-13.14-13.72-13.5-14.32a.36.36,0,0,1,.12-.51.38.38,0,0,1,.52.12c2.43,4,9.54,14.32,13,14,4.35-.47,11.26-6.82,11.33-6.89A.38.38,0,0,1,280.71,123.71Zm2.06-16.46a.38.38,0,0,0-.53,0l-10.88,9.94-5.08-6.46a.36.36,0,0,0-.52-.07.38.38,0,0,0-.07.53l5.11,6.5-1.68,1.54a.38.38,0,0,0,0,.53.41.41,0,0,0,.28.13.39.39,0,0,0,.25-.1l1.94-1.78h0l11.17-10.21A.37.37,0,0,0,282.77,107.25Z" style="fill: inherit;"></path></g><g id="__id2420_smezu8dmt"><path d="M261.19,82.81a11.06,11.06,0,0,0,9.08-2.9s3,8.35,2.05,11.13-6.41,3.39-6.41,3.39l.24,5.09-1.82,3.27-4.72-2.43-.36-5.68s-2.91,1.57-4.36-.49.36-4.84.36-4.84C261.43,87.17,261.19,82.81,261.19,82.81Z" style="fill: rgb(255, 255, 255);"></path></g><g id="__id2421_smezu8dmt"><path d="M264.33,103.16a.38.38,0,0,1-.17,0l-4.72-2.42a.37.37,0,0,1-.2-.31l-.33-5.14c-1.23.48-3.2.75-4.33-.84-1.58-2.24.28-5.14.36-5.27a.38.38,0,0,1,.19-.14c5.81-2.06,5.69-6,5.68-6.17a.39.39,0,0,1,.13-.3.36.36,0,0,1,.3-.09A10.75,10.75,0,0,0,270,79.65a.35.35,0,0,1,.34-.11.4.4,0,0,1,.28.24c.12.34,3.06,8.51,2.06,11.39-.9,2.57-5.12,3.4-6.38,3.59l.22,4.74a.34.34,0,0,1,0,.2L264.66,103A.37.37,0,0,1,264.33,103.16Zm-4.36-3,4.21,2.16,1.59-2.86-.24-5a.37.37,0,0,1,.33-.39c.06,0,5.23-.61,6.11-3.14.78-2.23-1.23-8.48-1.87-10.35a11.35,11.35,0,0,1-8.55,2.67c-.11,1.21-.89,4.55-6,6.42-.29.5-1.45,2.7-.31,4.31,1.24,1.76,3.76.43,3.87.38a.38.38,0,0,1,.36,0,.35.35,0,0,1,.19.3Z" style="fill: inherit;"></path></g><g id="__id2422_smezu8dmt"><path d="M281.24,140.8c-1.53,4.19-1.69,15.33-1.37,20.17s3.71,29.05,4.84,35.67,5,31.31,5,31.31c-1.29,1.78-10.49,6.14-11.62,4.84s-8.71-28.89-8.71-28.89c-2.75,5.17-6.62,31.07-6.62,31.07A17.29,17.29,0,0,1,249.2,233s2.67-21.55,4.36-27.12,1.94-16.22,1-31.23,2.66-31.11,2.66-31.11C273.17,147,281.24,140.8,281.24,140.8Z" style="fill: rgb(255, 255, 255);"></path></g><g id="__id2423_smezu8dmt"><path d="M285.08,196.58c-1.17-6.87-4.52-30.88-4.84-35.63s-.14-15.94,1.35-20a.37.37,0,0,0-.13-.43.37.37,0,0,0-.45,0c-.08.06-8.11,6.07-23.74,2.71a.39.39,0,0,0-.45.29c0,.16-3.63,16.32-2.67,31.21,1,15.31.67,25.78-1,31.1-1.68,5.54-4.26,26.3-4.37,27.18a.37.37,0,0,0,.16.36,17.78,17.78,0,0,0,9.25,2.64,16.15,16.15,0,0,0,4.62-.66.38.38,0,0,0,.27-.3c0-.25,3.51-23.36,6.16-30,1.51,5.46,7.45,26.82,8.52,28a1.45,1.45,0,0,0,1.22.36c2.84-.13,9.82-3.63,11-5.23a.37.37,0,0,0,.06-.27C290.05,227.65,286.2,203.12,285.08,196.58ZM279,232.65c-.49,0-.6-.09-.61-.1-.8-.93-5.6-17.7-8.64-28.75h0v0c-.05-.16-2.66-7.91-5.48-16.71l-5.92-19.42a43.17,43.17,0,0,1-1.17-5.11.38.38,0,0,0-.75.09c.63,5.67,11.67,38.59,12.56,41.25-2.62,5.24-6.13,28-6.55,30.8a17.14,17.14,0,0,1-12.82-1.83c.3-2.37,2.75-21.66,4.32-26.82,1.67-5.49,2-15.75,1-31.36C254,161.12,257,146.49,257.48,144c12.93,2.68,20.6-.86,23.09-2.34-1.25,4.78-1.39,14.66-1.08,19.32s3.68,28.83,4.85,35.7c1.07,6.26,4.64,29,5,31.15C288,229.33,281.49,232.54,279,232.65Z" style="fill: inherit;"></path></g><g id="__id2424_smezu8dmt"><path d="M287.7,105.21s5.32-6.42,8.35-7.75,1.69,1.33,1.69,1.33,1.82-.6,2.06.24-1.33,2.3-1.33,2.3,1.69-.72,2.06.25S299,104,299,104s.73,0,.61,1.33-7.14,4.48-7.14,4.48Zm40.37-4.48c-.43-.79-2-3.45-3.15-3.09s-.42,3.27-.42,3.27-.91-1-1.7-.42.43,3.39.43,3.39-1-1.09-1.94-.19c-.7.7,1.29,3,2.25,4.1a1.71,1.71,0,0,0,1.46.59C328.09,108,328.45,101.44,328.07,100.73Z" style="fill: rgb(255, 255, 255);"></path></g><g id="__id2425_smezu8dmt"><path d="M125.67,92.26a19.91,19.91,0,1,1-19.91-19.91A19.91,19.91,0,0,1,125.67,92.26Z" style="fill: rgb(94, 23, 235);"></path></g><g id="__id2426_smezu8dmt"><path d="M105.76,92.26,107,69.15A23.13,23.13,0,0,1,128.9,91.86Z" style="fill: rgb(255, 255, 255);"></path></g><g id="__id2427_smezu8dmt"><path d="M105.76,92.63a.39.39,0,0,1-.27-.11.37.37,0,0,1-.1-.28l1.24-23.11a.4.4,0,0,1,.12-.26.37.37,0,0,1,.28-.1,23.53,23.53,0,0,1,22.25,23.08.39.39,0,0,1-.11.27.36.36,0,0,1-.26.11l-23.14.4Zm1.6-23.09-1.2,22.33,22.36-.38a22.78,22.78,0,0,0-21.16-21.95Z" style="fill: inherit;"></path></g><g id="__id2428_smezu8dmt"><path d="M130.89,62.49H59.8a2.23,2.23,0,0,1-2.23-2.23V27.5a2.22,2.22,0,0,1,2.23-2.22h71.09a2.22,2.22,0,0,1,2.22,2.22V60.26A2.23,2.23,0,0,1,130.89,62.49Z" style="fill: inherit;"></path></g><g id="__id2429_smezu8dmt"><path d="M130.66,59.85a.37.37,0,0,1-.34.22.45.45,0,0,1-.16,0L95.71,44.3,61.27,60l-.16,0a.37.37,0,0,1-.16-.71L94.81,43.88,61,28.41a.38.38,0,0,1-.18-.5.39.39,0,0,1,.5-.18L95.71,43.47l34.45-15.74a.37.37,0,0,1,.5.18.38.38,0,0,1-.18.5L96.62,43.88l33.86,15.48A.37.37,0,0,1,130.66,59.85Z" style="fill: rgb(255, 255, 255);"></path></g><g id="__id2430_smezu8dmt"><path d="M123.09,79.72a18.77,18.77,0,0,1,3.6,10.68L108,90.72v0C111.92,87.81,118.11,83.31,123.09,79.72Z" style="fill: rgb(94, 23, 235);"></path></g><g id="__id2431_smezu8dmt"><path d="M143.43,30.12h67.82m.37,0a.37.37,0,0,0-.37-.38H143.44a.38.38,0,1,0,0,.75h67.81A.37.37,0,0,0,211.62,30.12Zm-7.07,25h6.7m.37,0a.36.36,0,0,0-.37-.37h-6.7a.36.36,0,0,0-.37.37.37.37,0,0,0,.37.38h6.7A.37.37,0,0,0,211.62,55.13Zm-68.19,0h56.38m.37,0a.37.37,0,0,0-.37-.37H143.44a.37.37,0,0,0-.38.37.38.38,0,0,0,.38.38h56.37A.38.38,0,0,0,200.18,55.13Zm-4.84-6h15.91m.37,0a.37.37,0,0,0-.37-.38H195.34a.38.38,0,0,0,0,.75h15.91A.37.37,0,0,0,211.62,49.13Zm-35,0h14m.37,0a.38.38,0,0,0-.37-.38h-14a.38.38,0,0,0,0,.75h14A.38.38,0,0,0,191,49.13Zm-47.54,0h28m.38,0a.38.38,0,0,0-.38-.38h-28a.38.38,0,1,0,0,.75h28A.38.38,0,0,0,171.86,49.13Zm-7.08-7h46.47m.37,0a.37.37,0,0,0-.37-.37H164.78a.38.38,0,0,0,0,.75h46.47A.37.37,0,0,0,211.62,42.12Zm-68.19,0h16.75m.37,0a.37.37,0,0,0-.37-.37H143.44a.38.38,0,1,0,0,.75h16.74A.37.37,0,0,0,160.55,42.12Zm31.44-7h19.26m.37,0a.37.37,0,0,0-.37-.38H192a.38.38,0,0,0-.37.38.37.37,0,0,0,.37.37h19.26A.36.36,0,0,0,211.62,35.12Zm-68.19,0h41.31m.37,0a.38.38,0,0,0-.37-.38h-41.3a.38.38,0,0,0-.38.38.37.37,0,0,0,.38.37h41.3A.37.37,0,0,0,185.11,35.12Z" style="fill: inherit;"></path></g><g id="__id2432_smezu8dmt"><path d="M259.69,19.08c.56,1,.14,4.33-.28,5.44s-5.58.84-5.58.28-.57-3.93-.28-5.3c.19-.89,1.68-1,1.68-1S259.13,18.1,259.69,19.08Zm-4.46,12.45s-1.49.09-1.68,1c-.29,1.37.28,4.74.28,5.3s5.16.84,5.58-.28.84-4.47.28-5.44S255.23,31.53,255.23,31.53Z" style="fill: rgb(255, 255, 255);"></path></g><g id="__id2433_smezu8dmt"><path d="M259.69,44.1c.56,1,.14,4.32-.28,5.44s-5.58.83-5.58.28-.57-3.93-.28-5.31c.19-.88,1.68-1,1.68-1S259.13,43.12,259.69,44.1Z" style="fill: inherit;"></path></g><g id="__id2434_smezu8dmt"><path d="M307.62,8.38H245.3a.38.38,0,0,0-.38.37V58.06a.38.38,0,0,0,.38.37h62.32a.38.38,0,0,0,.38-.37V8.75A.38.38,0,0,0,307.62,8.38Zm-.37,49.3H245.67V9.13h61.58ZM290.57,22.2a.38.38,0,0,1,.38-.38h9a.38.38,0,1,1,0,.75h-9A.38.38,0,0,1,290.57,22.2Zm-19.07,0a.38.38,0,0,1,.38-.38H287.6a.38.38,0,0,1,0,.75H271.88A.38.38,0,0,1,271.5,22.2Zm0,25a.37.37,0,0,1,.38-.37H287.6a.36.36,0,0,1,.37.37.37.37,0,0,1-.37.38H271.88A.38.38,0,0,1,271.5,47.21ZM298,34.2a.38.38,0,0,1-.38.38H280.9a.38.38,0,0,1,0-.75h16.7A.38.38,0,0,1,298,34.2Zm-26.48,0a.38.38,0,0,1,.38-.37h5.3a.38.38,0,0,1,0,.75h-5.3A.38.38,0,0,1,271.5,34.2Z" style="fill: inherit;"></path></g><g id="__id2435_smezu8dmt"><path d="M106.74,130.26h-4.89a.38.38,0,0,1,0-.75h4.89a.38.38,0,0,1,0,.75Z" style="fill: inherit;"></path></g><g id="__id2436_smezu8dmt"><path d="M258.25,23.27h0a.38.38,0,0,1-.26-.14l-1.82-2.28a.38.38,0,0,1,.59-.47l1.56,2,5.94-5.45a.38.38,0,0,1,.51.55l-6.24,5.72A.39.39,0,0,1,258.25,23.27Zm.25,12.91,6.24-5.72a.38.38,0,0,0,0-.53.37.37,0,0,0-.53,0l-5.94,5.45-1.56-2a.38.38,0,0,0-.59.47L258,36.14a.38.38,0,0,0,.26.14h0A.39.39,0,0,0,258.5,36.18Z" style="fill: inherit;"></path></g><g id="__id2437_smezu8dmt"><path d="M292.42,110.18a.35.35,0,0,1-.26-.1l-4.72-4.6a.37.37,0,0,1,0-.51c.22-.27,5.42-6.5,8.49-7.85.72-.32,1.73-.67,2.25-.12a1.34,1.34,0,0,1,.19,1.26,2.33,2.33,0,0,1,1.36.1.93.93,0,0,1,.46.57,2.24,2.24,0,0,1-.61,1.77,1.8,1.8,0,0,1,.73.11,1.09,1.09,0,0,1,.6.63c.34.91-.64,2-1.27,2.5a1.85,1.85,0,0,1,.32,1.42c-.13,1.44-5.66,4-7.36,4.79A.4.4,0,0,1,292.42,110.18Zm-4.21-5,4.29,4.18c3.22-1.47,6.63-3.42,6.69-4.07s-.14-.91-.25-.92a.35.35,0,0,1-.35-.26.37.37,0,0,1,.14-.41c.69-.52,1.63-1.51,1.45-2a.35.35,0,0,0-.2-.21,2.22,2.22,0,0,0-1.36.18.38.38,0,0,1-.46-.14.37.37,0,0,1,.06-.48c.56-.53,1.34-1.5,1.22-1.92a.14.14,0,0,0-.09-.11,2.55,2.55,0,0,0-1.49.12.4.4,0,0,1-.4-.11.38.38,0,0,1,0-.42c.2-.4.33-1,.2-1.1s-.24-.23-1.41.28C293.63,98.93,289.24,104,288.21,105.18Zm36.62,3.59a2.17,2.17,0,0,1-1.57-.73c-3.27-3.58-2.49-4.36-2.24-4.61a1.5,1.5,0,0,1,1.07-.47h0a1.6,1.6,0,0,1,.39.05c-.32-1-.59-2.36.09-2.83a1.36,1.36,0,0,1,1.37-.1c-.14-1-.15-2.48.85-2.8,1.4-.44,3,2.14,3.59,3.27.37.69.16,4.16-.93,6.25a3.2,3.2,0,0,1-2.42,2Zm-2.74-5.06a.75.75,0,0,0-.54.25c-.17.17.16,1.27,2.26,3.58A1.37,1.37,0,0,0,325,108h0a2.45,2.45,0,0,0,1.78-1.42,10.46,10.46,0,0,0,1-5.69c-.84-1.55-2.08-3.1-2.71-2.9s-.44,1.74-.17,2.82a.39.39,0,0,1-.18.42.39.39,0,0,1-.46-.07s-.69-.73-1.2-.38c-.28.19,0,1.62.55,2.94a.37.37,0,0,1-.62.4,1.41,1.41,0,0,0-.85-.42Z" style="fill: inherit;"></path></g></svg>