<svg xmlns="http://www.w3.org/2000/svg" xmlns:xlink="http://www.w3.org/1999/xlink" data-name="Layer 2" preserveAspectRatio="xMidYMid meet" version="1.0" viewBox="-3.1 0.0 447.0 338.0" zoomAndPan="magnify" style="fill: rgb(0, 0, 0);" original_string_length="22192" role="img" aria-label="Lined Corporate Brainstorming Scene"><g id="__id2517_sjespoftu"><path d="M414.94,316.38l-1.26,11.78H401.4l1.26-11.78Zm-47.26,0-1.27,11.78H378.7L380,316.38Z" style="fill: rgb(255, 255, 255);"></path></g><g id="__id2518_sjespoftu"><path d="M131.79,72.27H70V26.72h61.84Z" style="fill: rgb(140, 82, 255);"></path></g><g id="__id2519_sjespoftu"><path d="M126.76,68.74H64.93a.38.38,0,0,1-.38-.38V22.81a.38.38,0,0,1,.38-.37h61.83a.38.38,0,0,1,.38.37V68.36A.38.38,0,0,1,126.76,68.74ZM65.3,68h61.09V23.19H65.3Z" style="fill: inherit;"></path></g><g id="__id2520_sjespoftu"><path d="M86.63,55.06,75.3,46.52a1.13,1.13,0,0,1,0-1.79l11.25-8.61,1.37,1.78L77.83,45.62,88,53.27Zm29.76-8.54a1.13,1.13,0,0,0,0-1.79l-11.25-8.61-1.36,1.78,10.08,7.72-10.15,7.65,1.35,1.79Zm-17-10.73-2.18-.54-5,20.13,2.18.54Z" style="fill: rgb(255, 255, 255);"></path></g><g id="__id2521_sjespoftu"><path d="M366.05,62.42v146.9A13.09,13.09,0,0,1,353,222.39H137.47a13.09,13.09,0,0,1-13.08-13.07V62.42a13.1,13.1,0,0,1,13.08-13.08H353A13.1,13.1,0,0,1,366.05,62.42Z" style="fill: rgb(255, 255, 255);"></path></g><g id="__id2522_sjespoftu"><path d="M353,222.77H137.47A13.48,13.48,0,0,1,124,209.32V62.42A13.47,13.47,0,0,1,137.47,49H353a13.47,13.47,0,0,1,13.46,13.45v146.9A13.48,13.48,0,0,1,353,222.77Zm-215.5-173a12.72,12.72,0,0,0-12.71,12.7v146.9A12.72,12.72,0,0,0,137.47,222H353a12.72,12.72,0,0,0,12.71-12.7V62.42A12.72,12.72,0,0,0,353,49.72Z" style="fill: inherit;"></path></g><g id="__id2523_sjespoftu"><path d="M342.3,202.83H297.87a3.28,3.28,0,0,1-3.27-3.27V96.71a3.27,3.27,0,0,1,3.27-3.27H342.3a3.27,3.27,0,0,1,3.28,3.27V199.56A3.28,3.28,0,0,1,342.3,202.83Z" style="fill: inherit;"></path></g><g id="__id2524_sjespoftu"><path d="M60.14,130.58c.81-3.51-1.69-7.14-5-8.64a9,9,0,0,1-3-1.7c-1-1.07-1.08-2.64-1.33-4.06s-.86-3-2.24-3.46l-12,4.34s2.65,14.23,2.93,15.07S60.14,130.58,60.14,130.58Z" style="fill: inherit;"></path></g><g id="__id2525_sjespoftu"><path d="M40.65,112.45s-.93,65.12-6.32,75.35S12,195.43,11.07,189.48s-1.3-8.19-5.39-9.31-8.75-20.46-3-26.23S8.1,140.36,6.61,132s8.56-15.63,14.7-17.86,6.32-6.89,7.07-13,6.69-8,14.14-7.62a8,8,0,0,1,8,7Z" style="fill: inherit;"></path></g><g id="__id2526_sjespoftu"><path d="M360.91,66V76H131V66a11.92,11.92,0,0,1,11.92-11.92H349A11.92,11.92,0,0,1,360.91,66Z" style="fill: rgb(140, 82, 255);"></path></g><g id="__id2527_sjespoftu"><path d="M148.23,65.41a2.75,2.75,0,1,1-2.75-2.75A2.75,2.75,0,0,1,148.23,65.41Zm7.67-2.75a2.75,2.75,0,1,0,2.75,2.75A2.75,2.75,0,0,0,155.9,62.66Zm10.42,0a2.75,2.75,0,1,0,2.75,2.75A2.75,2.75,0,0,0,166.32,62.66Z" style="fill: rgb(255, 255, 255);"></path></g><g id="__id2528_sjespoftu"><path d="M307,297a4,4,0,1,1-3,4.79A4,4,0,0,1,307,297Zm1.25,12a61.54,61.54,0,0,1-5.63,18.41,12.3,12.3,0,0,0,0-6.62c-1.43-3.85-4.2-4.51-5.13-4s-2.55,1.39-.94,4.93a69.42,69.42,0,0,0,4.74,8.06,21.65,21.65,0,0,1-6.24,6.72l.84,1.28c11.26-7.42,13.79-27.71,13.89-28.57Z" style="fill: inherit;"></path></g><g id="__id2529_sjespoftu"><path d="M285.91,306.26a12.59,12.59,0,0,1,0-9c1.47-4,2.62-13.57-1.26-18.76-1.82-2.44-4.48-3.56-7.91-3.33a11.18,11.18,0,0,0-8.27,4.23c-4.34,5.37-4.77,14.84-3.82,21.32a30.63,30.63,0,0,1-2.54,17.95,19,19,0,0,1-2.53,3.82c-2.5,3.21-5.6,7.2-4.87,14.58l.05.55h41.45l.07-.54A43.43,43.43,0,0,0,285.91,306.26Z" style="fill: rgb(142, 170, 51);"></path></g><g id="__id2530_sjespoftu"><path d="M142.61,273.7v54.82h-9.49V273.7Z" style="fill: rgb(88, 89, 87);"></path></g><g id="__id2531_sjespoftu"><path d="M143,325V273.7a.38.38,0,0,0-.38-.38h-9.49a.38.38,0,0,0-.38.38V325H122.55v9.19h30.63V325Zm-9.5-50.93h8.75V325h-8.75Z" style="fill: inherit;"></path></g><g id="__id2532_sjespoftu"><path d="M176.61,253.79v9.85a6.38,6.38,0,0,1-6.38,6.38h-22.1v7.35H127.3V270H109.48a6.35,6.35,0,0,1-6.2-4.88l-18-74.55a6.37,6.37,0,0,1,6.18-7.86H134a6.39,6.39,0,0,1,6.1,4.57l19.49,66.49Z" style="fill: inherit;"></path></g><g id="__id2533_sjespoftu"><path d="M223.93,334.16H195.36a1.37,1.37,0,0,1-1.32-1.72l1.63-6.23L194.58,316h13.17l.92,8.61,15.61,8.13A.77.77,0,0,1,223.93,334.16Zm33.65-69-17.4,2.7-5.84-6.39-10.61,7.8,7,7.6,2.37,6a1.37,1.37,0,0,0,2.09.61l23-16.92A.77.77,0,0,0,257.58,265.16Z" style="fill: inherit;"></path></g><g id="__id2534_sjespoftu"><path d="M191.72,318l-10.85-59.29-42.26-1.86L198,237.48s14.9,79.79,15.21,80.41Z" style="fill: rgb(165, 122, 122);"></path></g><g id="__id2535_sjespoftu"><path d="M191.72,318.33a.38.38,0,0,1-.37-.31l-10.8-59-42-1.84a.38.38,0,0,1-.1-.74l59.35-19.33a.39.39,0,0,1,.48.29c5.09,27.29,14.83,79.19,15.19,80.34a.36.36,0,0,1,0,.35.38.38,0,0,1-.33.16l-21.44.07Zm-51-61.8,40.2,1.77a.36.36,0,0,1,.35.3l10.79,59,20.66-.07c-1.35-6.34-12.5-66-15-79.54Z" style="fill: inherit;"></path></g><g id="__id2536_sjespoftu"><path d="M163.44,215.2l-.92,6.74h41.66l32,41.5L221.79,280.9,197,243.84l-55,12.4c-6.43,1.22-14.09.92-18.38-9.19s12.56-34,12.56-34Z" style="fill:rgb(165, 122, 122);"></path></g><g id="__id2537_sjespoftu"><path d="M221.79,281.27h0a.37.37,0,0,1-.29-.17l-24.67-36.84-54.73,12.35c-5.89,1.12-14.23,1.36-18.8-9.41-4.32-10.19,11.9-33.38,12.59-34.36a.36.36,0,0,1,.34-.16l27.26,2.14a.38.38,0,0,1,.26.14.34.34,0,0,1,.08.29l-.86,6.31h41.23a.35.35,0,0,1,.29.15l32,41.5a.38.38,0,0,1,0,.47l-14.39,17.45A.37.37,0,0,1,221.79,281.27ZM197,243.46a.37.37,0,0,1,.31.17l24.53,36.64,13.88-16.84L204,222.31H162.52a.37.37,0,0,1-.28-.13.4.4,0,0,1-.09-.3l.87-6.34-26.65-2.1c-1.51,2.19-16.37,24.11-12.4,33.46,4.36,10.28,12.34,10,18,9l55-12.4Z" style="fill: inherit;"></path></g><g id="__id2538_sjespoftu"><path d="M171.4,143.83c8.27,2.76,11.64,14.7,13.48,19.91s-1.22,6.74-1.22,6.74c-4.29,3.06-16.85,1.53-16.85,1.53-8.58-.92-10.41-2.45-10.41-2.45-7.66-10.41,1.22-22.05,1.22-22.05S163.13,141.08,171.4,143.83Z" style="fill: inherit;"></path></g><g id="__id2539_sjespoftu"><path d="M184.94,208.66c-.41,5.06-.91,9.25-1.17,11.3-.62,4.88-.75,5-.91,5.17s-.28.28-8.74.3h-5.41l-12.58,0c-12.91,0-25.95-.11-26.08-.12h-1.14l12.75-19-10.38-3.66,16-25.78a5.23,5.23,0,0,1,3.63-2.34c3.47-.5,6.27.55,7.87,3,3.43,5.14,9.72,10.13,11.19,11.25,6.23-3.55,5.47-11.68,5.46-11.77l-.1-.95,4.86,1.69a7.13,7.13,0,0,1,4.67,5.4C186.1,189.83,185.59,200.71,184.94,208.66Z" style="fill:rgb(52, 102, 48);"></path></g><g id="__id2540_sjespoftu"><path d="M166.89,212.56c-.8,1.37-2.85,2.1-3.94,2.32a11.1,11.1,0,0,1-4-.39,5.4,5.4,0,0,1-3.19,4.63l-.12.06h-28.3a3.9,3.9,0,0,1-3.24-6.06l10.05-15.05,10.25,6.2-4.72,7.95,12.45,1.11,3.48-5.49a3.38,3.38,0,0,1,3.28-1.63l.12,0,3.12,1c.76.3,4.43,1.78,5,3.46A2.21,2.21,0,0,1,166.89,212.56Z" style="fill: rgb(237, 190, 164);"></path></g><g id="__id2541_sjespoftu"><path d="M155.61,219.55h-28.3a4.27,4.27,0,0,1-3.55-6.64l10-15a.36.36,0,0,1,.5-.11l10.25,6.2a.36.36,0,0,1,.13.51l-4.41,7.44,11.62,1,3.36-5.3a3.75,3.75,0,0,1,3.64-1.8l.16,0,3.16,1c1.09.42,4.62,1.9,5.22,3.69h0a2.55,2.55,0,0,1-.23,2.15c-.86,1.48-3,2.27-4.19,2.5a10,10,0,0,1-3.75-.3,5.87,5.87,0,0,1-3.38,4.52l-.12.05A.45.45,0,0,1,155.61,219.55Zm-21.38-21-9.85,14.76a3.52,3.52,0,0,0,2.93,5.47l28.26,0a5.05,5.05,0,0,0,3-4.3.38.38,0,0,1,.15-.29.41.41,0,0,1,.32-.07,10.74,10.74,0,0,0,3.86.39c1-.19,3-.88,3.69-2.14a1.82,1.82,0,0,0,.17-1.54c-.39-1.17-2.81-2.46-4.76-3.22l-3.19-1A3,3,0,0,0,155.9,208l-3.49,5.5a.34.34,0,0,1-.35.17l-12.44-1.1a.39.39,0,0,1-.3-.21.38.38,0,0,1,0-.36l4.53-7.63Z" style="fill: inherit;"></path></g><g id="__id2542_sjespoftu"><path d="M227.3,190.3l-10.56,28.88h-66.5v-3.13h22.27l10-27.38a2.36,2.36,0,0,1,2.23-1.56h40.31A2.37,2.37,0,0,1,227.3,190.3Z" style="fill: inherit;"></path></g><g id="__id2543_sjespoftu"><path d="M229.91,190.3l-10.56,28.88H174l11.17-30.51a2.36,2.36,0,0,1,2.23-1.56h40.31A2.37,2.37,0,0,1,229.91,190.3Z" style="fill: rgb(86, 85, 86);"></path></g><g id="__id2544_sjespoftu"><path d="M206.31,204.43c-.89,1.84-2.74,2.79-4.14,2.12s-1.81-2.71-.93-4.55,2.73-2.79,4.13-2.11S207.19,202.59,206.31,204.43Z" style="fill: inherit;"></path></g><g id="__id2545_sjespoftu"><path d="M193.3,227.14V325h1.54a9.19,9.19,0,0,1,9.18,9.19H173.39a9.2,9.2,0,0,1,9.19-9.19h1.25V227.14H105.55V218H271v9.19Z" style="fill: rgb(35, 37, 38);"></path></g><g id="__id2546_sjespoftu"><path d="M204,334.57H173.4a.38.38,0,0,1-.38-.38,9.57,9.57,0,0,1,9.56-9.56h.88V227.52H105.55a.38.38,0,0,1-.37-.38V218a.38.38,0,0,1,.37-.37H271a.38.38,0,0,1,.37.37v9.19a.38.38,0,0,1-.37.38H193.68v97.11h1.15a9.57,9.57,0,0,1,9.57,9.56A.38.38,0,0,1,204,334.57Zm-30.24-.75h29.86a8.83,8.83,0,0,0-8.81-8.44H193.3a.38.38,0,0,1-.37-.38V227.14a.38.38,0,0,1,.37-.37h77.27v-8.44H105.93v8.44h77.9a.38.38,0,0,1,.38.37V325a.38.38,0,0,1-.38.38h-1.25A8.82,8.82,0,0,0,173.78,333.82Z" style="fill: inherit;"></path></g><g id="__id2547_sjespoftu"><path d="M414.23,328.78H400.72l1.39-13h13.51Zm-12.15-1.23h11.05L414.26,317H403.21Zm-22.83,1.23H365.73l1.39-13h13.52Zm-12.15-1.23h11L379.28,317h-11Z" style="fill: inherit;"></path></g><g id="__id2548_sjespoftu"><path d="M416.2,332.69a1.42,1.42,0,0,1-1.37,1.78H385.44a.79.79,0,0,1-.36-1.49l16.63-8.67c5.61,5.06,12.29,0,12.29,0ZM379,324.31s-6.67,5.06-12.28,0L350.09,333a.79.79,0,0,0,.37,1.49h29.39a1.42,1.42,0,0,0,1.37-1.78Z" style="fill: inherit;"></path></g><g id="__id2549_sjespoftu"><path d="M400.89,184.66l-9.27,60.13-8.26,75.66H364.87l0-.64,3.78-81.34v0L377,184.66Z" style="fill: rgb(51, 54, 56);"></path></g><g id="__id2550_sjespoftu"><path d="M383.36,320.83H364.87a.34.34,0,0,1-.27-.12.39.39,0,0,1-.11-.27l0-.64,3.79-81.35,8.28-53.85a.38.38,0,0,1,.37-.32h23.93a.37.37,0,0,1,.28.13.35.35,0,0,1,.09.3L392,244.85l-8.27,75.65A.37.37,0,0,1,383.36,320.83Zm-18.1-.75H383l8.23-75.33,9.2-59.72H377.28l-8.22,53.46Z" style="fill: inherit;"></path></g><g id="__id2551_sjespoftu"><path d="M391,139.46l1.31-11.74a6.73,6.73,0,0,1-4.79-2c-3.25-3.24-4-9.78-2.36-19.45l.07-.39.39-.1c.52-.12,12.83-3,16.64.12,3.63,3,2.73,10,1.88,11.8l1.34,22.87Z" style="fill: rgb(163, 99, 87);"></path></g><g id="__id2552_sjespoftu"><path d="M401.36,113.92l-1.31.33-.66-3.29a6.8,6.8,0,0,1-1.64-3.62s-7.06,3.32-11.09.51l-2.06,3.52a8.38,8.38,0,0,1,.66-5s-4.19-1.71-2-5.59c1.32-2.3,2.19-.5,8.55-1a6.49,6.49,0,0,0,4.27-1.31c1.65-1.32,6.25-.66,5.92,2,0,0,6.9.33,4.93,11.51a39.64,39.64,0,0,1-2.75,7l-.54-3.08s2.29-4.39,0-5.26C400.75,109.52,401.36,113.92,401.36,113.92Z" style="fill: inherit;"></path></g><g id="__id2553_sjespoftu"><path d="M376.76,157.94l-.27.54c-.35.7-8.74,17.32-16.59,17.67h-.27a6,6,0,0,1-4.13-1.56,7.1,7.1,0,0,1-1.91-5.36c0-8.18.83-31.91.93-34.73a28.79,28.79,0,0,1-6.54-9.73c-.7-1-2.65-3.84-2.1-5.2a1.19,1.19,0,0,1,.49-.57,2.32,2.32,0,0,1,.83-1.62,1.36,1.36,0,0,1,.8-.24,1.79,1.79,0,0,1,.78-1.23,1.27,1.27,0,0,1,.75-.15,1.52,1.52,0,0,1,.48-.82,1.84,1.84,0,0,1,1.86-.18l.22.07,3.24,5.51,2.18,2.58c0-1.48.42-3.31,2.21-3.76l.62-.16,1.4,6.71,1.78,31.13,2.75-4.49Z" style="fill: rgb(163, 99, 87);"></path></g><g id="__id2554_sjespoftu"><path d="M418.92,320.3H399.8l-.07-.53L388.46,242.9v0l-3.27-59.63h28.68l0,58.59Z" style="fill: rgb(51, 54, 56);"></path></g><g id="__id2555_sjespoftu"><path d="M418.92,320.67H399.8a.38.38,0,0,1-.37-.32l-.07-.52L388.09,243l-3.27-59.7a.37.37,0,0,1,.1-.28.4.4,0,0,1,.27-.12h28.68a.38.38,0,0,1,.37.38l0,58.58,5,78.45a.35.35,0,0,1-.1.28A.36.36,0,0,1,418.92,320.67Zm-18.79-.75h18.4l-5-78.07v0l0-58.22h-27.9l3.24,59.24Z" style="fill: inherit;"></path></g><g id="__id2556_sjespoftu"><path d="M374.86,138.7a13.35,13.35,0,0,1,9-5.69l7.83-1.32c1.57,12.29,13.23,0,13.23,0l11.46,3.58a10.09,10.09,0,0,1,5.65,4.45l9.84,16.4-12.29,9.77-3-5.2-1.28,40s-15.52.38-20.44,1.79c-15,4.28-20-5.46-20-5.46l1.74-37.92L375.28,161l-11-6.62Z" style="fill: rgb(140, 82, 255);"></path></g><g id="__id2557_sjespoftu"><path d="M97.31,124.08s6.88-7.26,9.3-8.65,9.77-4.28,10.51-3.91-6.69,6.7-6.69,6.7a4.36,4.36,0,0,1,.83,4.19c-.65,2.79-10,9.39-10,9.39Z" style="fill: rgb(237, 190, 164);"></path></g><g id="__id2558_sjespoftu"><path d="M42.89,121.57l2.23,3.21c9.35-4,15.07-.7,19.26,1.25s16.84,7.82,16.84,7.82l12.65-12.28c6.7,1,10.79,11.91,10.79,11.91s-12,14.88-18.37,18-18.56-4.88-18.56-4.88L78.24,194.5s-14.93,7.72-28.46,9.67-30.33-4.46-30.33-4.46c.39-1.74,3.86-18.36,4.12-18.33-2.58-.35-7.38-.24-8.29-3.27s-.34-5.9-.34-9.05c0-4.33,2.23-28.33,3.91-33.63S34.94,125.2,34.94,125.2l.28-2.93Z" style="fill: rgb(140, 82, 255);"></path></g><g id="__id2559_sjespoftu"><path d="M86.21,167.44,53.11,170A1.7,1.7,0,0,1,51.29,168L55,142.26a1.7,1.7,0,0,1,1.65-1.47L90.08,140a1.71,1.71,0,0,1,1.72,2l-4,24A1.73,1.73,0,0,1,86.21,167.44Z" style="fill: rgb(86, 85, 86);"></path></g><g id="__id2560_sjespoftu"><path d="M91.69,140.38a2.17,2.17,0,0,0-1.62-.72l-33.46.76a2.06,2.06,0,0,0-2,1.79L50.92,168A2.08,2.08,0,0,0,53,170.34h.16l33.1-2.53a2.08,2.08,0,0,0,1.9-1.73l4-24A2,2,0,0,0,91.69,140.38ZM91.43,142l-4,24a1.34,1.34,0,0,1-1.22,1.11l-33.1,2.53a1.31,1.31,0,0,1-1.08-.42,1.35,1.35,0,0,1-.34-1.1l3.68-25.76a1.31,1.31,0,0,1,1.29-1.14l33.46-.76h0a1.35,1.35,0,0,1,1,.46A1.31,1.31,0,0,1,91.43,142Zm-2.67.81a.38.38,0,0,1-.37.38L58.76,144a.72.72,0,0,0-.69.62L55,167.11a.36.36,0,0,1-.37.32h0a.38.38,0,0,1-.32-.42l3.09-22.53a1.46,1.46,0,0,1,1.41-1.27l29.63-.81h0A.38.38,0,0,1,88.76,142.77Z" style="fill: inherit;"></path></g><g id="__id2561_sjespoftu"><path d="M76.61,156.57a4.15,4.15,0,1,1-7.72-2.88,4.15,4.15,0,1,1,7.72,2.88Z" style="fill: rgb(86, 85, 86);"></path></g><g id="__id2562_sjespoftu"><path d="M44.29,157s15.35-7.3,17.63-6.24S59,154.87,59,154.87s3.64-2,4.86-1.07-3.5,4-3.5,4,2.74-.92,3,.45-15.35,9.13-15.35,9.13S47.94,160.8,44.29,157Z" style="fill: rgb(237, 190, 164);"></path></g><g id="__id2563_sjespoftu"><path d="M30.83,161.91a2,2,0,0,1-1.15-.37,2,2,0,0,1-.83-1.7l.46-11.5a.39.39,0,0,1,.39-.36.38.38,0,0,1,.36.39l-.46,11.5a1.22,1.22,0,0,0,1.68,1.2l12.41-4.83a.37.37,0,0,1,.48.22.37.37,0,0,1-.21.48l-12.41,4.83A2,2,0,0,1,30.83,161.91ZM27.6,182.17l20.65-12.28a.37.37,0,1,0-.39-.64L27.21,181.53a.37.37,0,0,0,.19.69A.35.35,0,0,0,27.6,182.17Z" style="fill: inherit;"></path></g><g id="__id2564_sjespoftu"><path d="M50.57,100.5s9.9,21.21-8,19l.28,2.09-7.44,1.3-.79-8s-2.51-.7-2.37-2.65a3.13,3.13,0,0,1,3.49-3.07c1.62,0,2.71-1.82,3.71-2.87a32.55,32.55,0,0,1,4.33-3.8,4.43,4.43,0,0,1,3.38-.82A4.84,4.84,0,0,0,50.57,100.5Z" style="fill: rgb(237, 190, 164);"></path></g><g id="__id2565_sjespoftu"><path d="M19.45,199.71s-6.7,104.93,1.49,129.49c0,0,8.56,4.09,14.14-1.12l5.21-40.93,3.35,42.42s11.16,1.86,17.48-3.35L78.24,194.5S51.45,209,19.45,199.71Z" style="fill: rgb(68, 175, 214);"></path></g><g id="__id2566_sjespoftu"><path d="M78.45,194.19a.37.37,0,0,0-.39,0c-.26.14-27,14.33-58.51,5.18a.41.41,0,0,0-.32.05.36.36,0,0,0-.15.28c-.07,1-6.61,105.29,1.5,129.63a.4.4,0,0,0,.2.22,18.47,18.47,0,0,0,7.13,1.55,10.57,10.57,0,0,0,7.42-2.73.35.35,0,0,0,.12-.22l4.75-37.32,3.06,38.79a.38.38,0,0,0,.31.34c.47.07,11.41,1.83,17.79-3.43a.4.4,0,0,0,.14-.24L78.61,194.55A.37.37,0,0,0,78.45,194.19ZM60.77,326c-5.57,4.48-15,3.46-16.78,3.22l-3.33-42.08L51.08,213.9a.38.38,0,0,0-.32-.42.37.37,0,0,0-.43.31L39.92,287.1h0l-5.2,40.8c-4.94,4.48-12.36,1.51-13.48,1-7.71-23.65-1.91-121.1-1.44-128.72,28.87,8.2,53.72-3,58-5Z" style="fill: inherit;"></path></g><g id="__id2567_sjespoftu"><path d="M69.5,333.48a80.4,80.4,0,0,1-8.75-7.07c-5.72,3.2-17,2.51-17,2.51l-1.26,3.66,0,.14c-3.37-2.11-7.36-4.64-7.36-4.64-5.72,3.21-14.14,1.12-14.14,1.12l-1.32,3.51a1.66,1.66,0,0,0,1.31,2.23c4.89.73,17.16,2.52,20.71,2.63,4.46.14,7.11-1,3.9-2.93l0,0c5.54.81,16,2.3,19.22,2.4C69.17,337.15,72.71,335.43,69.5,333.48Z" style="fill: inherit;"></path></g><g id="__id2568_sjespoftu"><path d="M387.79,60H279a3.09,3.09,0,0,1-3.09-3.08V3.47A3.09,3.09,0,0,1,279,.38h108.8a3.09,3.09,0,0,1,3.09,3.09V56.9A3.08,3.08,0,0,1,387.79,60Z" style="fill: rgb(198, 211, 52);"></path></g><g id="__id2569_sjespoftu"><path d="M387.79,60.36H279a3.46,3.46,0,0,1-3.46-3.46V3.46A3.46,3.46,0,0,1,279,0h108.8a3.46,3.46,0,0,1,3.46,3.46V56.9A3.46,3.46,0,0,1,387.79,60.36ZM279,.75a2.72,2.72,0,0,0-2.71,2.71V56.9A2.72,2.72,0,0,0,279,59.61h108.8a2.71,2.71,0,0,0,2.71-2.71V3.46A2.71,2.71,0,0,0,387.79.75Z" style="fill: inherit;"></path></g><g id="__id2570_sjespoftu"><path d="M287.91,22.14s2.49-.12,5.43,7.16,9.85,12,18.67,6.4,12.4-2.3,20.33,8.18,18.79,5.75,24-4.73,9.21-19.31,13.94-12.91S378,53.66,378,53.66H287.91Zm3.45-13.23h0a1.72,1.72,0,0,0-1.73-1.72h0a1.72,1.72,0,0,0-1.72,1.72h0a1.72,1.72,0,0,0,1.72,1.73h0A1.72,1.72,0,0,0,291.36,8.91Zm40.46-1H295.64v2h36.18Zm-40.46,7.25h0a1.72,1.72,0,0,0-1.73-1.72h0a1.72,1.72,0,0,0-1.72,1.72h0a1.72,1.72,0,0,0,1.72,1.73h0A1.72,1.72,0,0,0,291.36,15.14Zm32.15-1H295.64v2.05h27.87Z" style="fill: rgb(140, 82, 255);"></path></g><g id="__id2571_sjespoftu"><path d="M280.74,97.89v53.37a4.4,4.4,0,0,1-4.39,4.39H207a4.4,4.4,0,0,1-4.39-4.39V97.89A4.4,4.4,0,0,1,207,93.5h69.36A4.4,4.4,0,0,1,280.74,97.89Z" style="fill: inherit;"></path></g><g id="__id2572_sjespoftu"><path d="M338.49,198.92H294.06a3.26,3.26,0,0,1-3.27-3.27V92.8a3.26,3.26,0,0,1,3.27-3.27h44.43a3.26,3.26,0,0,1,3.27,3.27V195.65A3.26,3.26,0,0,1,338.49,198.92Z" style="fill: rgb(198, 211, 52);"></path></g><g id="__id2573_sjespoftu"><path d="M338.49,199.3H294.06a3.66,3.66,0,0,1-3.65-3.65V92.8a3.66,3.66,0,0,1,3.65-3.65h44.43a3.66,3.66,0,0,1,3.65,3.65V195.65A3.66,3.66,0,0,1,338.49,199.3ZM294.06,89.9a2.9,2.9,0,0,0-2.9,2.9V195.65a2.9,2.9,0,0,0,2.9,2.9h44.43a2.9,2.9,0,0,0,2.9-2.9V92.8a2.9,2.9,0,0,0-2.9-2.9Z" style="fill: inherit;"></path></g><g id="__id2574_sjespoftu"><path d="M271.89,149.81H202.52a4,4,0,0,1-4-4V92.43a4,4,0,0,1,4-4h69.37a4,4,0,0,1,4,4v53.36A4,4,0,0,1,271.89,149.81Z" style="fill:rgb(198, 211, 52);"></path></g><g id="__id2575_sjespoftu"><path d="M271.89,150.18H202.52a4.4,4.4,0,0,1-4.39-4.39V92.43A4.4,4.4,0,0,1,202.52,88h69.37a4.4,4.4,0,0,1,4.39,4.39v53.36A4.4,4.4,0,0,1,271.89,150.18ZM202.52,88.79a3.65,3.65,0,0,0-3.64,3.64v53.36a3.65,3.65,0,0,0,3.64,3.64h69.37a3.65,3.65,0,0,0,3.64-3.64V92.43a3.65,3.65,0,0,0-3.64-3.64Z" style="fill: inherit;"></path></g><g id="__id2576_sjespoftu"><path d="M315,172.83a2.16,2.16,0,0,1-3.27-.32l-5.11-7.31a1.37,1.37,0,0,1,.34-1.92h0a1.38,1.38,0,0,1,1.92.34l4.72,6.74,11.62-11.1a1.38,1.38,0,0,1,1.95,0h0a1.38,1.38,0,0,1,0,1.95Zm12.13-59.61a1.38,1.38,0,0,0,0-2h0a1.38,1.38,0,0,0-1.95,0l-11.62,11.11-4.72-6.75a1.39,1.39,0,0,0-1.92-.34h0a1.37,1.37,0,0,0-.34,1.92l5.11,7.31a2.16,2.16,0,0,0,3.27.32Z" style="fill: rgb(140, 82, 255);"></path></g><g id="__id2577_sjespoftu"><path d="M316.09,184.51A18.52,18.52,0,1,1,334.6,166,18.54,18.54,0,0,1,316.09,184.51Zm0-36.28A17.77,17.77,0,1,0,333.85,166,17.79,17.79,0,0,0,316.09,148.23Zm0-11.75A18.52,18.52,0,1,1,334.6,118,18.54,18.54,0,0,1,316.09,136.48Zm0-36.28A17.77,17.77,0,1,0,333.85,118,17.79,17.79,0,0,0,316.09,100.2Z" style="fill: inherit;"></path></g><g id="__id2578_sjespoftu"><path d="M184.63,128.48h-41a3.91,3.91,0,0,1-3.92-3.92V92.5a3.91,3.91,0,0,1,3.92-3.92h41a3.91,3.91,0,0,1,3.92,3.92v32.06A3.91,3.91,0,0,1,184.63,128.48Z" style="fill: rgb(198, 211, 52);"></path></g><g id="__id2579_sjespoftu"><path d="M184.63,128.86h-41a4.31,4.31,0,0,1-4.3-4.3V92.5a4.31,4.31,0,0,1,4.3-4.3h41a4.31,4.31,0,0,1,4.3,4.3v32.06A4.31,4.31,0,0,1,184.63,128.86ZM143.64,89a3.55,3.55,0,0,0-3.55,3.55v32.06a3.55,3.55,0,0,0,3.55,3.55h41a3.55,3.55,0,0,0,3.55-3.55V92.5A3.55,3.55,0,0,0,184.63,89Zm38.87,7.72a.38.38,0,0,0-.37-.38H145.86a.38.38,0,0,0-.38.38.37.37,0,0,0,.38.37h36.28A.37.37,0,0,0,182.51,96.67Zm0,4a.37.37,0,0,0-.37-.37H164.65a.37.37,0,0,0-.38.37.38.38,0,0,0,.38.38h17.49A.38.38,0,0,0,182.51,100.67Zm-25.49,0a.37.37,0,0,0-.37-.37H145.86a.37.37,0,0,0-.38.37.38.38,0,0,0,.38.38h10.79A.38.38,0,0,0,157,100.67Zm25.49,4a.38.38,0,0,0-.37-.37H145.86a.38.38,0,1,0,0,.75h36.28A.38.38,0,0,0,182.51,104.67Zm0,4a.38.38,0,0,0-.37-.38H145.86a.38.38,0,1,0,0,.75h36.28A.38.38,0,0,0,182.51,108.68Zm0,4a.38.38,0,0,0-.37-.38H145.86a.38.38,0,1,0,0,.75h36.28A.38.38,0,0,0,182.51,112.68Zm0,4a.38.38,0,0,0-.37-.38h-5.59a.38.38,0,0,0-.37.38.37.37,0,0,0,.37.37h5.59A.37.37,0,0,0,182.51,116.68Zm-11.35,0a.38.38,0,0,0-.37-.38H145.86a.38.38,0,0,0-.38.38.37.37,0,0,0,.38.37h24.93A.37.37,0,0,0,171.16,116.68Zm11.35,4a.38.38,0,0,0-.37-.37H145.86a.38.38,0,1,0,0,.75h36.28A.38.38,0,0,0,182.51,120.68Z" style="fill: inherit;"></path></g><g id="__id2580_sjespoftu"><path d="M286.23,306.06a12.36,12.36,0,0,1,.08-8.67c1.5-4,2.65-13.81-1.31-19.12a8.9,8.9,0,0,0-8.23-3.48,11.56,11.56,0,0,0-8.54,4.37c-4.41,5.47-4.86,15.06-3.9,21.61a30.32,30.32,0,0,1-2.51,17.75,18.68,18.68,0,0,1-2.49,3.74c-2.53,3.26-5.69,7.32-4.95,14.84l.06.56a.37.37,0,0,0,.37.34h41.45a.38.38,0,0,0,.37-.33l.07-.54A44.09,44.09,0,0,0,286.23,306.06ZM275.1,323.93l13.28-13.84c.71,1,1.37,2.08,2,3.11l-14.85,14.58c-.15-1.18-.31-2.46-.47-3.8Zm9.3-45.21c3.79,5.08,2.66,14.5,1.21,18.41a12.9,12.9,0,0,0-.05,9.28l.06.1c.84,1,1.61,2,2.32,3l-13,13.57c-1.1-9.63-2.08-22.59-1.13-33.37a.14.14,0,0,0,0-.09c.49-5.5,1.5-10.42,3.24-14A8.13,8.13,0,0,1,284.4,278.72Zm-17.83,4.85,6.43,6.16c-.1,1.14-.18,2.34-.24,3.57l-6.88-6.88a.36.36,0,0,0-.22-.09A22.3,22.3,0,0,1,266.57,283.57Zm2.24-3.94a10.68,10.68,0,0,1,7.37-4,42.17,42.17,0,0,0-3.09,13.16l-6.1-5.85-.12-.08A14.58,14.58,0,0,1,268.81,279.63ZM255.13,337c-.71-7.23,2.34-11.15,4.79-14.31a18.77,18.77,0,0,0,2.58-3.9,31,31,0,0,0,2.57-18.16,38.67,38.67,0,0,1,.4-13.58l7.24,7.24a162.1,162.1,0,0,0,.43,18.12c1,13.24,3,24.58,3,24.69s.05.08.07.12h-21ZM296,337l0,.21H276.82a.37.37,0,0,0,.05-.25c0-.12-.59-3.34-1.26-8.31h0l15.06-14.79A42.93,42.93,0,0,1,296,337Z" style="fill: inherit;"></path></g><g id="__id2581_sjespoftu"><path d="M172,175.77l5.29.94-.25,5.21a10.18,10.18,0,0,1-9.09,9.64h0a10.17,10.17,0,0,1-9.93-5.11l-6.64-11.73,8.19.33,1.11-8.82c-.87-.49-2.86-1.81-3.15-3.71A4,4,0,0,1,159,159l.18-.16h.24a4.13,4.13,0,0,1,2.94,1.25c1.95-1.49,8.53-7,6.59-12.37l-1.52-4.18,2.59,3.61c.41.56,9.8,13.76,6.71,19.5-.93,1.72-2.81,2.6-5.59,2.62Z" style="fill: rgb(237, 190, 164);"></path></g><g id="__id2582_sjespoftu"><path d="M166.83,192a10.56,10.56,0,0,1-9.18-5.35L151,174.91a.37.37,0,0,1,0-.38.38.38,0,0,1,.33-.18l7.85.31,1-8.23c-1-.6-2.82-1.94-3.11-3.85a4.3,4.3,0,0,1,1.67-3.85l.18-.17a.37.37,0,0,1,.25-.1h.24a4.63,4.63,0,0,1,3,1.12c2.23-1.76,8-6.87,6.2-11.74l-1.52-4.17a.38.38,0,0,1,.18-.46.38.38,0,0,1,.48.11l2.59,3.61c.41.57,9.95,13.93,6.73,19.9-.95,1.75-2.8,2.7-5.5,2.8l.7,5.82,5,.89a.37.37,0,0,1,.31.39l-.25,5.21a10.49,10.49,0,0,1-9.42,10A10.65,10.65,0,0,1,166.83,192ZM152,175.12l6.3,11.15a9.8,9.8,0,0,0,18.32-4.37l.24-4.88-5-.88a.36.36,0,0,1-.3-.32l-.79-6.51a.35.35,0,0,1,.1-.29.37.37,0,0,1,.27-.13c2.64,0,4.41-.83,5.27-2.41,3-5.56-6.58-19-6.68-19.11l-1-1.4.58,1.62c2,5.55-4.63,11.2-6.72,12.8a.38.38,0,0,1-.52-.07,3.74,3.74,0,0,0-2.64-1.11h-.09l-.07.07a3.59,3.59,0,0,0-1.44,3.18c.26,1.74,2.16,3,3,3.44a.39.39,0,0,1,.19.38l-1.11,8.82a.37.37,0,0,1-.38.33Z" style="fill: inherit;"></path></g><g id="__id2583_sjespoftu"><path d="M431,156.26s7.09,14.13,8.91,17.62,4,7.71,2.33,10.29-19.43,9.76-23.12,10.22a6.37,6.37,0,0,1-5.76-2.62,7.47,7.47,0,0,1-2.93-.36c-3.42,1.81-4.15,1.09-5.2,1.09s.91-1.25.91-1.25-2.44.21-3.59.17,1.36-2,1.36-2c-2.69.46-2.55-.55-2.55-.55,6.87-5.79,9.66-3.21,9.66-3.21l-1.64-1.85s-5.71-3.5-5.24-4.34c.3-.54,3.56.23,5.85.85a8.13,8.13,0,0,1,3.71,2.19l5.82,6,12-8.79-10.69-15.1Z" style="fill: rgb(163, 99, 87);"></path></g><g id="__id2584_sjespoftu"><path d="M219.86,118.55v13a3.72,3.72,0,1,1-7.44,0v-13Zm12.57-5.25v18.27a3.72,3.72,0,1,0,7.44,0V113.3Zm20-7.31v25.58a3.72,3.72,0,1,0,7.44,0V106Z" style="fill: rgb(140, 82, 255);"></path></g><g id="__id2585_sjespoftu"><path d="M216.14,135.67a4.11,4.11,0,0,1-4.1-4.1v-26a4.1,4.1,0,1,1,8.19,0v26A4.1,4.1,0,0,1,216.14,135.67Zm0-33.49a3.35,3.35,0,0,0-3.35,3.35v26a3.35,3.35,0,1,0,6.69,0v-26A3.35,3.35,0,0,0,216.14,102.18Zm20,33.49a4.11,4.11,0,0,1-4.1-4.1v-26a4.1,4.1,0,1,1,8.19,0v26A4.1,4.1,0,0,1,236.15,135.67Zm0-33.49a3.35,3.35,0,0,0-3.35,3.35v26a3.35,3.35,0,1,0,6.69,0v-26A3.35,3.35,0,0,0,236.15,102.18Zm20,33.49a4.1,4.1,0,0,1-4.09-4.1v-26a4.1,4.1,0,1,1,8.19,0v26A4.11,4.11,0,0,1,256.16,135.67Zm0-33.49a3.35,3.35,0,0,0-3.34,3.35v26a3.35,3.35,0,1,0,6.69,0v-26A3.35,3.35,0,0,0,256.16,102.18Z" style="fill: inherit;"></path></g><path d="M308.57,310.44c-6.25.78-6.68-8.37-6.68-8.37,5.54-3.3,12.29-1.58,12.29-1.58S315.68,309.55,308.57,310.44Z" style="fill: none;"></path><g id="__id2586_sjespoftu"><path d="M308.57,310.44c-6.25.78-6.68-8.37-6.68-8.37,5.54-3.3,12.29-1.58,12.29-1.58S315.68,309.55,308.57,310.44Z" style="fill: rgb(234, 56, 83);"></path></g></svg>